<?xml version="1.0" encoding="UTF-8"?>
<svg width="33px" height="24px" viewBox="0 0 33 24" version="1.1" xmlns="http://www.w3.org/2000/svg" xmlns:xlink="http://www.w3.org/1999/xlink">
    <title>yonghuqun</title>
    <defs>
        <polygon id="path-1" points="0.00173913043 0.0234146341 21.9754203 0.0234146341 21.9754203 23.9999707 0.00173913043 23.9999707"></polygon>
    </defs>
    <g id="页面-1" stroke="none" stroke-width="1" fill="none" fill-rule="evenodd">
        <g id="图标" transform="translate(-223.000000, -94.000000)">
            <g id="yonghuqun" transform="translate(223.034026, 94.000000)">
                <path d="M23.7376938,11.4945632 C23.3724292,11.4945632 23.029367,11.2680906 22.8968243,10.902953 C22.727039,10.4360107 22.9662515,9.91933625 23.4308447,9.74862666 C24.7861285,9.25107998 25.6967832,7.94112126 25.6967832,6.48984218 C25.6967832,4.86524313 24.5992437,3.47584797 23.0279794,3.11066536 C22.546242,2.99886925 22.2458387,2.51558963 22.3572534,2.0308698 C22.4686233,1.54669004 22.9491073,1.24465153 23.4312028,1.35667267 C24.566343,1.62054568 25.5962459,2.27066434 26.3302665,3.18785148 C27.0761941,4.11926066 27.4869376,5.2919046 27.4869376,6.48984218 C27.4869376,8.69448479 26.1036771,10.6837264 24.0445877,11.4398803 C23.9463333,11.4758855 23.8424388,11.4945632 23.7376938,11.4945632 Z" id="路径" fill="#6462F3"></path>
                <path d="M31.1039823,20 C30.6132879,20 30.215526,19.5954656 30.215526,19.0964163 C30.215526,15.3631247 27.4833897,12.1296053 23.859954,11.5749404 C23.374768,11.5008014 23.0403975,11.0403803 23.1136063,10.5469333 C23.1865041,10.0536669 23.639217,9.71396464 24.1242253,9.78787778 C26.2931692,10.1196737 28.2836667,11.2352381 29.7286075,12.9276504 C31.1886966,14.6381343 31.9924386,16.8286019 31.9924386,19.0964163 C31.9924386,19.5954656 31.5947211,20 31.1039823,20 Z" id="Fill-3" fill="#6462F3"></path>
                <path d="M8.37792537,11.5555556 C8.27420795,11.5555556 8.17102332,11.5367658 8.07356624,11.5005444 C6.0311855,10.7398517 4.65910523,8.7386698 4.65910523,6.52079391 C4.65910523,5.31566576 5.06651579,4.13598308 5.80639041,3.19898315 C6.53480995,2.27629063 7.55600032,1.62226966 8.68197371,1.35681276 C9.1597576,1.24411922 9.63674231,1.54797071 9.74720847,2.03505673 C9.85767462,2.52232386 9.55970903,3.00886656 9.08188074,3.12133372 C7.52341103,3.48870832 6.43473329,4.88644328 6.43473329,6.52079391 C6.43473329,7.98114645 7.33799838,9.29860593 8.6822845,9.79913911 C9.14310776,9.97087338 9.38002393,10.4906491 9.21197151,10.9603942 C9.08085955,11.3277235 8.74058115,11.5555556 8.37792537,11.5555556 Z" id="Fill-4" fill="#6462F3"></path>
                <path d="M1.10312416,20 C0.612381417,20 0.214660786,19.5954656 0.214660786,19.0964163 C0.214660786,16.8286019 1.0186313,14.6381343 2.4785099,12.9276504 C3.92346231,11.2348767 5.9136647,10.1196737 8.08293688,9.78787778 C8.56794904,9.71396464 9.02066556,10.0536669 9.09356398,10.5469333 C9.1664624,11.0403803 8.83240017,11.5008014 8.34721032,11.5749404 C4.72379012,12.129289 1.99158754,15.3627633 1.99158754,19.0964163 C1.99158754,19.5954656 1.59386691,20 1.10312416,20 Z" id="Fill-5" fill="#6462F3"></path>
                <g id="yonghu(1)" transform="translate(4.965974, 0.000000)">
                    <g id="编组" transform="translate(-0.000000, 0.000000)">
                        <mask id="mask-2" fill="white">
                            <use xlink:href="#path-1"></use>
                        </mask>
                        <g id="Clip-2"></g>
                        <path d="M19.8366087,23.9999707 L2.13869565,23.9999707 C0.958115942,23.9985951 0.00136231884,23.0325366 0,21.8404098 C0.000463768116,18.6843512 1.2842029,15.6669659 3.55118841,13.4941463 L6.51472464,10.652839 C6.54031884,10.6277854 6.55492754,10.5933951 6.55501449,10.5574829 C6.5566087,10.5341561 6.54823188,10.5112976 6.53202899,10.4947317 C5.37081159,9.35130732 4.71762319,7.78179512 4.72136232,6.14402927 C4.72136232,2.76892683 7.45176812,0.0234146341 10.8103478,0.0234146341 C10.8709275,0.0234146341 10.9233333,0.0270731707 10.9648986,0.0299414634 L11.010087,0.0299414634 C11.0504928,0.0270731707 11.1037101,0.0234146341 11.1642899,0.0234146341 C14.5228696,0.0234146341 17.2577101,2.76892683 17.2577101,6.14402927 C17.2608696,7.78258537 16.6064348,9.35244878 15.4437391,10.495522 C15.4274203,10.5120878 15.4189275,10.5349756 15.4204058,10.5582732 C15.4206377,10.5941854 15.4351304,10.6286049 15.4607246,10.6536293 L18.4242609,13.4949366 C20.6911304,15.6677854 21.9749855,18.6851415 21.9754203,21.8412 C21.9736232,23.0330927 21.0169855,23.9985951 19.8366087,23.9999707 Z M10.8103478,1.54249756 C8.28136232,1.54249756 6.22373913,3.60673171 6.22373913,6.14402927 C6.22168116,7.37432195 6.71330435,8.55283902 7.58649275,9.41075122 C7.89481159,9.71566829 8.06588406,10.1348195 8.05988406,10.5705073 C8.05501449,11.0184585 7.87115942,11.4453659 7.55014493,11.7546146 L4.5866087,14.5959512 C2.62318841,16.4848976 1.50962319,19.1020098 1.5044058,21.8404098 C1.50463768,22.1940293 1.78849275,22.4806537 2.13869565,22.4808878 L19.8366087,22.4808878 C20.1868116,22.4805366 20.4704348,22.1939122 20.4706667,21.8404098 C20.4656812,19.1022146 19.3525797,16.4849854 17.3895942,14.5959512 L14.426058,11.7546146 C14.1050725,11.4453659 13.9213043,11.0184585 13.9163188,10.5705073 C13.9103188,10.1348195 14.0814203,9.71566829 14.3897101,9.41075122 C15.2625797,8.55272195 15.7537391,7.3740878 15.7512464,6.14402927 C15.7512464,3.60673171 13.6932754,1.54249756 11.1642899,1.54249756 C11.1553333,1.54249756 11.132029,1.54249756 11.1134493,1.54536585 C11.0794783,1.54776585 11.045971,1.54981463 11.0121159,1.55107317 L10.9628696,1.55107317 C10.9290145,1.55107317 10.8955072,1.54776585 10.8616522,1.54536585 C10.8430725,1.54410732 10.8191884,1.54249756 10.8103478,1.54249756 Z" id="Fill-1" fill="#424242" mask="url(#mask-2)"></path>
                    </g>
                    <path d="M10.9998259,15 L11.0003007,15 C11.6668196,15 12,15.3061621 12,15.918748 L12,18.081252 C12,18.6937216 11.6668196,19 11.0003007,19 L10.9998259,19 C10.333307,19 10,18.6937216 10,18.081252 L10,15.918748 C10,15.3061621 10.333307,15 10.9998259,15 Z" id="Fill-3" fill="#6462F3"></path>
                </g>
            </g>
        </g>
    </g>
</svg>