<?xml version="1.0" encoding="UTF-8"?>
<svg width="30px" height="32px" viewBox="0 0 30 32" version="1.1" xmlns="http://www.w3.org/2000/svg" xmlns:xlink="http://www.w3.org/1999/xlink">
    <title>yonghu(1)</title>
    <defs>
        <polygon id="path-1" points="0.00234895539 0.0312195122 29.6810871 0.0312195122 29.6810871 31.999961 0.00234895539 31.999961"></polygon>
    </defs>
    <g id="页面-1" stroke="none" stroke-width="1" fill="none" fill-rule="evenodd">
        <g id="图标" transform="translate(-324.000000, -40.000000)">
            <g id="yonghu(1)" transform="translate(324.000000, 40.000000)">
                <g id="编组">
                    <mask id="mask-2" fill="white">
                        <use xlink:href="#path-1"></use>
                    </mask>
                    <g id="Clip-2"></g>
                    <path d="M26.7923027,31.999961 L2.88862789,31.999961 C1.29407867,31.9981268 0.00184001506,30.7100488 0,29.1205463 C0.000626388105,24.9124683 1.73450781,20.8892878 4.79641031,17.9921951 L8.7991086,14.2037854 C8.8336774,14.1703805 8.85340862,14.1245268 8.85352607,14.0766439 C8.85567928,14.0455415 8.84436514,14.0150634 8.82248071,13.9929756 C7.25408319,12.4684098 6.3718547,10.3757268 6.37690495,8.19203902 C6.37690495,3.69190244 10.0647258,0.0312195122 14.6009893,0.0312195122 C14.6828112,0.0312195122 14.7535931,0.036097561 14.8097331,0.0399219512 L14.8707668,0.0399219512 C14.9253409,0.036097561 14.9972189,0.0312195122 15.0790408,0.0312195122 C19.6153043,0.0312195122 23.309115,3.69190244 23.309115,8.19203902 C23.3133823,10.3767805 22.4294704,12.4699317 20.8590762,13.9940293 C20.8370352,14.0161171 20.8255645,14.0466341 20.8275611,14.0776976 C20.8278743,14.1255805 20.8474489,14.1714732 20.8820177,14.204839 L24.884716,17.9932488 C27.9464619,20.8903805 29.6804999,24.913522 29.6810871,29.1216 C29.6786599,30.7107902 28.3865778,31.9981268 26.7923027,31.999961 Z M14.6009893,2.05666341 C11.1852166,2.05666341 8.40608922,4.80897561 8.40608922,8.19203902 C8.40330962,9.83242927 9.06732016,11.4037854 10.2466915,12.5476683 C10.6631222,12.9542244 10.8941811,13.5130927 10.8860772,14.0940098 C10.8795001,14.691278 10.6311764,15.2604878 10.1975983,15.6728195 L6.19490006,19.4612683 C3.54300772,21.9798634 2.03897158,25.4693463 2.03192471,29.1205463 C2.03223791,29.592039 2.41562658,29.9742049 2.88862789,29.9745171 L26.7923027,29.9745171 C27.265304,29.9740488 27.6483794,29.5918829 27.6486926,29.1205463 C27.641959,25.4696195 26.1385492,21.9799805 23.4872441,19.4612683 L19.4845458,15.6728195 C19.051007,15.2604878 18.8028007,14.691278 18.796067,14.0940098 C18.7879631,13.5130927 19.0190612,12.9542244 19.4354527,12.5476683 C20.6143934,11.4036293 21.2777775,9.83211707 21.2744107,8.19203902 C21.2744107,4.80897561 18.4948135,2.05666341 15.0790408,2.05666341 C15.0669437,2.05666341 15.0354677,2.05666341 15.010373,2.0604878 C14.9644901,2.0636878 14.9192336,2.06641951 14.8735072,2.06809756 L14.8069927,2.06809756 C14.7612663,2.06809756 14.7160098,2.0636878 14.6702835,2.0604878 C14.6451888,2.05880976 14.6129298,2.05666341 14.6009893,2.05666341 Z" id="Fill-1" fill="#424242" mask="url(#mask-2)"></path>
                </g>
                <path d="M14.8569439,20.5714286 L14.8574865,20.5714286 C15.6192224,20.5714286 16,20.9796447 16,21.7964258 L16,24.6797646 C16,25.4963907 15.6192224,25.9047619 14.8574865,25.9047619 L14.8569439,25.9047619 C14.095208,25.9047619 13.7142857,25.4963907 13.7142857,24.6797646 L13.7142857,21.7964258 C13.7142857,20.9796447 14.095208,20.5714286 14.8569439,20.5714286 Z" id="Fill-3" fill="#6462F3"></path>
            </g>
        </g>
    </g>
</svg>