<?xml version="1.0" encoding="UTF-8"?>
<svg width="32px" height="28px" viewBox="0 0 32 28" version="1.1" xmlns="http://www.w3.org/2000/svg" xmlns:xlink="http://www.w3.org/1999/xlink">
    <title>safety</title>
    <defs>
        <polygon id="path-1" points="0 0.0161392737 5.55726561 0.0161392737 5.55726561 5.54852174 0 5.54852174"></polygon>
    </defs>
    <g id="页面-1" stroke="none" stroke-width="1" fill="none" fill-rule="evenodd">
        <g id="图标" transform="translate(-531.000000, -41.000000)">
            <g id="safety" transform="translate(531.000000, 41.000000)">
                <path d="M14.2607893,22.9565217 C8.70817836,22.9565217 4.17391304,18.4387097 4.17391304,12.8694649 C4.17391304,7.30042069 8.69169392,2.7826087 14.2607893,2.7826087 C19.8300051,2.7826087 24.3478261,7.30042069 24.3478261,12.8694649 C24.3478261,18.4387097 19.8135608,22.9565217 14.2607893,22.9565217 Z M14.2607893,4.0475768 C9.39815869,4.0475768 5.43888367,8.00668352 5.43888367,12.8694649 C5.43888367,17.7322865 9.39815869,21.6915135 14.2607893,21.6915135 C19.1235804,21.6915135 23.0828555,17.7322865 23.0828555,12.8694649 C23.0828555,8.00668352 19.1235804,4.0475768 14.2607893,4.0475768 Z" id="Fill-1" fill="#424242"></path>
                <path d="M21.6480819,11.3562863 C21.4994646,11.3562863 21.3507262,11.3230017 21.2019474,11.2732977 C21.053209,11.2233911 20.9045917,11.1570651 20.7889331,11.0905364 C20.7227331,11.0574545 20.6732746,11.0241699 20.6070745,11.0075478 L20.5576161,10.9909258 C20.2435187,10.8580711 20.1444001,10.8083266 19.929623,10.8746931 C19.0208544,11.1736871 18.0458857,10.9079372 17.2527756,10.1441343 C16.6579027,9.56276831 16.5258253,8.59978468 16.9222996,7.78607506 C17.0214182,7.60331372 17.1205368,7.43737712 17.2361953,7.27123782 C16.4927454,6.30805148 17.0876183,5.37814976 17.4840927,4.76382353 L17.6659513,4.48149211 C17.8476485,4.18261975 18.2442842,4.08288751 18.54164,4.26560832 C18.8391571,4.4482075 18.9382757,4.8468121 18.7564171,5.14564392 L18.5581799,5.46130049 C18.1120454,6.15873692 18.0955055,6.30805148 18.2608242,6.50743486 C18.5912598,6.90587729 18.6407586,7.48708107 18.3434028,7.90230771 C18.2277443,8.06828485 18.1286257,8.21780212 18.0624256,8.36727884 C17.9138083,8.68273271 17.9302272,9.03147119 18.1286257,9.23069241 C18.3928613,9.47982028 18.9217358,9.87842488 19.5331486,9.6790415 C20.2106002,9.44653566 20.6898146,9.66254109 21.069749,9.82851822 L21.1193688,9.84514026 C21.2019474,9.87842488 21.2845261,9.92812883 21.3672661,9.96141345 L21.5655033,10.0610241 C21.730822,9.82851822 22.0612576,9.72890762 22.3420734,9.84514026 C22.6561305,9.99465753 22.8047479,10.3600181 22.6726704,10.692094 C22.4577319,11.1071584 22.0777975,11.3562863 21.6480819,11.3562863 Z M18.5085601,20.173913 C18.3928613,20.173913 18.2937427,20.1407906 18.1780842,20.0743024 C17.6659513,19.7588486 17.4675527,19.1942668 17.6824912,18.6130631 C17.7981497,18.2809466 17.979847,17.9986152 18.2442842,17.7827314 C17.8972683,17.0520509 17.5171725,16.2383818 17.9138083,15.1424624 C18.2772027,14.146032 19.1365129,13.3988916 20.2271401,13.1663858 C20.7227331,13.066613 21.2019474,13.0169091 21.5820432,12.9836244 C22.3256948,12.9172985 23.0031464,13.1995082 23.5318192,13.7640494 C23.6640177,13.9135667 23.7962565,14.0464214 23.9449949,14.1793166 L24.1598123,14.3951599 C24.4076693,14.6442472 24.4076693,15.0426896 24.1763523,15.2918175 C23.9284549,15.5409454 23.5318192,15.5409454 23.2839622,15.3084396 L23.0691448,15.1092183 C22.9040278,14.943079 22.7387091,14.7937645 22.5899304,14.6276252 C22.3420734,14.3452532 22.0447177,14.2290206 21.6977017,14.2622647 C21.3672661,14.2955493 20.9211316,14.3287933 20.5079559,14.428404 C19.8635843,14.5612586 19.3347501,15.0096077 19.119973,15.5908115 C18.9051959,16.1886373 19.0704742,16.5870798 19.4174901,17.3011382 C19.4835288,17.4340335 19.5495272,17.5835102 19.6157273,17.7328653 C19.6983059,17.8990046 19.6983059,18.0982258 19.6322672,18.2809466 C19.5660671,18.4469237 19.4338687,18.596441 19.2521714,18.662767 C19.0704742,18.7459177 18.9548157,18.8621504 18.8886156,19.0447496 C19.1365129,19.2439708 19.2190916,19.6093313 19.0539343,19.8917033 C18.9217358,20.0576804 18.7234986,20.173913 18.5085601,20.173913 Z" id="Fill-2" fill="#424242"></path>
                <path d="M14.0215993,17.8839783 C13.901835,17.7994935 13.7821123,17.7319304 13.6623897,17.6472805 C13.3715393,17.4613892 13.0637347,17.2585761 12.7728843,17.0049978 C12.4137164,16.6836914 11.9861475,16.63305 11.4217766,16.5653219 L11.2335277,16.5485652 C11.0112036,16.5147218 10.7888377,16.4978 10.5493924,16.4639153 L9.33496139,16.3119087 L9.72841331,15.5003262 C10.0019756,14.9255653 9.95073745,14.3677261 9.77960967,13.5900284 C9.69417105,13.2182456 9.88225293,12.7955327 10.1045771,12.5757566 C10.3782646,12.3052566 10.669115,12.0516371 10.9426773,11.7982239 C11.0625669,11.6798543 11.1992854,11.5782827 11.3190081,11.4599545 L11.3703715,11.4093544 C11.3703715,11.3924326 11.3532503,11.3585479 11.3361292,11.3248695 C11.2848911,11.2232979 11.2506488,11.1218914 11.1992854,11.0035631 C11.0966839,10.783787 11.0112036,10.5640522 10.9257232,10.3443174 C10.8914809,10.2429109 10.8571969,10.1921457 10.703232,10.158261 L10.5322713,10.1245826 C10.0019756,10.0062543 9.43756289,9.88788479 8.89031311,9.58350008 C8.01792889,9.09326528 7.79560475,8.2312065 7.67588212,7.72400871 C7.57328061,7.33513918 7.82967998,6.99703483 7.94940261,6.86178483 C9.16383361,5.47560653 10.7374743,4.57953921 12.5848025,4.19083477 C12.6531617,4.17391304 12.721688,4.17391304 12.7900055,4.17391304 C13.0637347,4.17391304 13.3203429,4.27531958 13.4741408,4.44428921 C14.2268024,5.25587172 14.4833688,6.23625877 14.2096395,7.28449782 C14.107038,7.65628053 13.7821123,7.87618043 13.6281474,7.94374351 C13.4400655,8.04515006 13.337464,8.18040005 13.2689378,8.41709786 C13.097977,8.95797402 12.9097699,9.48209354 12.687404,10.0399327 C12.6531617,10.1076609 12.6531617,10.1413392 12.6531617,10.1413392 C12.6531617,10.1413392 12.6531617,10.158261 12.687404,10.1751827 C12.8754858,10.3949588 13.0808559,10.6148587 13.2689378,10.8176718 C13.4912619,11.07125 13.7136278,11.3248695 13.936119,11.5615261 C14.7742192,12.47435 14.9965433,13.6916 14.4833688,14.7565957 C14.3807672,14.9594088 14.3807672,15.0777783 14.5347739,15.3819979 C14.7228558,15.7708262 14.8596995,16.1596957 14.9794222,16.5485652 L15.1334288,17.0049978 L15.3043478,17.4952739 L14.3636461,18.0869565 L14.0215993,17.8839783 Z" id="Fill-3" fill="#6462F3"></path>
                <path d="M12.6727379,4.77040023 C12.757309,4.77040023 12.8417152,4.78719775 12.8755272,4.83759033 C13.4666593,5.45840227 13.6692837,6.2135944 13.4497533,7.06948975 C13.4159413,7.17015199 13.2976819,7.27081423 13.1963697,7.32120681 C12.8586212,7.50573376 12.6558319,7.77428931 12.5376137,8.16014075 C12.3688013,8.69721088 12.166177,9.21736058 11.9802936,9.73763318 C11.8620755,10.0396199 11.8958874,10.2913779 12.115459,10.543095 C12.5376137,10.9961775 12.9261214,11.482855 13.3484411,11.9358966 C13.9732202,12.6240625 14.1760095,13.5469841 13.7705958,14.4027155 C13.5679715,14.8391234 13.6185657,15.1747462 13.821355,15.577559 C14.0577914,16.0640727 14.2096978,16.6011428 14.3955399,17.1212925 C14.3617279,17.1548876 14.31101,17.1716851 14.2773217,17.2052801 C13.888814,16.9367656 13.4666593,16.7018051 13.1120048,16.3830208 C12.5545197,15.8795457 11.8958874,15.8459507 11.2203904,15.762086 C10.9162889,15.7284909 10.6123111,15.6782213 10.2407506,15.6277877 C10.6123111,14.8391234 10.510834,14.0839313 10.3420628,13.3288621 C10.3082096,13.2114023 10.3926158,13.0099139 10.4771869,12.9092517 C10.8655297,12.5232364 11.2709434,12.1876546 11.6763571,11.8184368 C11.9971996,11.5332476 12.0310528,11.3653543 11.8620755,10.9459078 C11.7269513,10.6271236 11.5750449,10.324973 11.4568267,10.0061887 C11.3386085,9.67056599 11.102131,9.48587516 10.7642175,9.41884894 C10.2068974,9.30138917 9.64961851,9.20068596 9.12598666,8.89853536 C8.55176056,8.56295359 8.36604217,8.02604734 8.23091802,7.45534119 C8.21397081,7.388274 8.28147103,7.25401671 8.34913619,7.18694952 C9.49754715,5.87801263 10.9162889,5.08934835 12.5883317,4.7536027 C12.6390909,4.77040023 12.6558319,4.77040023 12.6727379,4.77040023 L12.6727379,4.77040023 Z M12.6727379,3.47826087 C12.5545197,3.47826087 12.4532075,3.49505839 12.3518953,3.51185592 C10.3926158,3.91450488 8.72069668,4.87106247 7.40330837,6.36469019 C7.01480067,6.8009342 6.87967652,7.32120681 6.99789469,7.80772048 C7.14996605,8.37842663 7.42021435,9.41884894 8.50100139,10.0564174 C9.14289264,10.4256352 9.76783668,10.5598925 10.3251568,10.6773523 C10.3926158,10.8452456 10.4602809,10.9961775 10.5277812,11.1472323 L10.443375,11.231097 C10.1561794,11.482855 9.86914887,11.7345721 9.58195335,12.0199252 C9.22729885,12.355507 8.94026827,12.9931164 9.09213346,13.6308488 C9.22729885,14.2852558 9.27801679,14.7048661 9.09213346,15.1075151 L8.33223021,16.7018051 L10.1055852,16.9367656 L10.443375,16.9871581 C10.6798113,17.0206303 10.8824357,17.0542253 11.102131,17.0710228 L11.3047553,17.0878204 C11.8114812,17.1548876 12.0985118,17.1884826 12.2843951,17.356212 C12.6052377,17.6415651 12.9430274,17.8596871 13.2302229,18.0610116 C13.3484411,18.1282427 13.4497533,18.2121074 13.5679715,18.2792975 L14.2773217,18.7826087 L15.0036192,18.3127696 L15.1218373,18.2289049 L16,17.6751602 L15.6453043,16.7018051 C15.59471,16.5507502 15.5439921,16.3998183 15.4932741,16.265561 C15.3582737,15.8627482 15.2231495,15.4433017 15.0203602,15.0236504 C15.0036192,14.9900553 14.986672,14.9566242 14.986672,14.9398266 C15.59471,13.6476463 15.3413677,12.1708571 14.327916,11.0801651 C14.1083856,10.8452456 13.9057612,10.6103261 13.6692837,10.3417705 L13.3146291,9.93895766 C13.4834003,9.46907763 13.6523777,9.0160361 13.804449,8.54615606 C13.821355,8.47908887 13.8380961,8.46229135 13.8380961,8.46229135 C14.0577914,8.34483158 14.5643523,8.00920884 14.7333296,7.388274 C15.0710782,6.12972969 14.7671416,4.93825257 13.855002,3.96493843 C13.5510655,3.64611321 13.1287458,3.47826087 12.6727379,3.47826087 Z" id="Fill-4" fill="#424242"></path>
                <line x1="9.04347826" y1="9.04347826" x2="3.47826087" y2="4.17391304" id="Fill-5" fill="#EFEFFD"></line>
                <path d="M9.13942271,9.04347826 C8.99656431,9.04347826 8.85386085,8.99175751 8.72692295,8.87129982 L3.68140283,3.93219877 C3.42748829,3.69128341 3.41160653,3.26113142 3.63375754,3.0029478 C3.85586982,2.72753793 4.25260402,2.71031168 4.4906368,2.95126906 L9.53600197,7.87326991 C9.78987777,8.11418527 9.80579827,8.54437927 9.58364726,8.80252088 C9.47259112,8.95747307 9.29812414,9.04347826 9.13942271,9.04347826 Z" id="Fill-6" fill="#424242"></path>
                <g id="编组">
                    <mask id="mask-2" fill="white">
                        <use xlink:href="#path-1"></use>
                    </mask>
                    <g id="Clip-8"></g>
                    <path d="M0.661967963,2.79341883 C0.661967963,3.97076259 1.60575351,4.92525743 2.77001373,4.92525743 C3.93427395,4.92525743 4.87822687,3.97076259 4.87822687,2.79341883 C4.87822687,1.61591492 3.93427395,0.661420081 2.77001373,0.661420081 C1.60575351,0.661420081 0.661967963,1.61591492 0.661967963,2.79341883 Z" id="Fill-7" fill="#EFEFFD" mask="url(#mask-2)"></path>
                    <path d="M2.77001373,5.54852174 C2.34161752,5.54852174 1.93020987,5.45014952 1.53612553,5.25336503 C0.850432167,4.90900219 0.353370382,4.33486393 0.130594312,3.61342759 C-0.332155606,2.17019456 0.473336384,0.628749453 1.93020987,0.153143572 C2.61590324,-0.0764716922 3.36988558,-0.0109302471 4.02126708,0.300761964 C4.70675123,0.645164842 5.20381301,1.21914295 5.42663093,1.94057929 C5.889339,3.38381232 5.08384701,4.92525743 3.62701536,5.40086331 C3.33574109,5.49923553 3.04429944,5.54852174 2.77001373,5.54852174 Z M2.77001373,1.30109978 C2.61590324,1.30109978 2.47873946,1.31751517 2.34161752,1.36660119 C1.57027002,1.61263184 1.14187381,2.46547138 1.3990036,3.25260932 C1.5189696,3.64609822 1.79321347,3.95779043 2.15315332,4.13811949 C2.47873946,4.30219331 2.85583524,4.33486393 3.21577509,4.22007632 C3.98691337,3.97420582 4.41547695,3.12136628 4.15838902,2.33422834 C4.02126708,1.94057929 3.7641373,1.62904723 3.40419745,1.44871817 C3.19857731,1.3501858 2.97580124,1.30109978 2.77001373,1.30109978 Z" id="Fill-9" fill="#424242" mask="url(#mask-2)"></path>
                </g>
                <line x1="21.5652174" y1="13.9130435" x2="27.826087" y2="17.3913043" id="Fill-10" fill="#EFEFFD"></line>
                <path d="M27.8727744,17.3913043 C27.7697556,17.3913043 27.6495461,17.3571188 27.5465273,17.3055471 L21.2093841,13.7535546 C20.8829693,13.5818725 20.7799506,13.1699696 20.9517743,12.8611681 C21.1234303,12.53519 21.5356732,12.4322561 21.8447295,12.6037707 L28.1819984,16.1559307 C28.5082455,16.3274452 28.6113062,16.7393481 28.4396502,17.0481497 C28.3364637,17.2711939 28.1132354,17.3913043 27.8727744,17.3913043 Z" id="Fill-11" fill="#424242"></path>
                <g id="编组" transform="translate(26.434783, 15.304348)">
                    <path d="M0.6664034,2.7863995 C0.6664034,3.97243604 1.61014711,4.93384751 2.77444917,4.93384751 C3.93887676,4.93384751 4.88266231,3.97243604 4.88266231,2.7863995 C4.88266231,1.60052426 3.93887676,0.639112791 2.77444917,0.639112791 C1.61014711,0.639112791 0.6664034,1.60052426 0.6664034,2.7863995 Z" id="Fill-12" fill="#EFEFFD"></path>
                    <path d="M2.7916051,5.56162823 C2.56882903,5.56162823 2.32885518,5.52851922 2.10607911,5.47891619 C1.36908532,5.2972804 0.752057535,4.83476244 0.374961752,4.17395337 C-0.379062439,2.85257719 0.0665315463,1.16764713 1.36908532,0.391339635 C2.00326904,0.0113724008 2.74026283,-0.0877126654 3.46010069,0.094084436 C4.19713632,0.275679899 4.81399673,0.738197858 5.19109251,1.39888595 C5.94524224,2.72042344 5.49969009,4.40519219 4.19713632,5.181661 C3.75137496,5.42943415 3.27151095,5.56162823 2.7916051,5.56162823 Z M2.77444917,1.28326654 C2.51748676,1.28326654 2.27755476,1.34940391 2.05461131,1.48159798 C1.35192939,1.89447259 1.11195554,2.83604285 1.52336319,3.5628683 C1.72898333,3.90976686 2.05461131,4.15754001 2.43166525,4.25662508 C2.7916051,4.35571014 3.16870088,4.28957278 3.49428702,4.10793699 C4.19713632,3.69506238 4.43706832,2.75349212 4.02566067,2.02662634 C3.82004054,1.67976812 3.49428702,1.43195463 3.11735861,1.33286957 C3.01438117,1.29980088 2.89441517,1.28326654 2.77444917,1.28326654 Z" id="Fill-14" fill="#424242"></path>
                </g>
                <line x1="21.5652174" y1="6.95652174" x2="24.3478261" y2="4.86956522" id="Fill-15" fill="#EFEFFD"></line>
                <path d="M21.4951261,6.95652174 C21.2840615,6.95652174 21.0728384,6.85206644 20.9591791,6.67294818 C20.7806226,6.40448931 20.8780279,6.04639847 21.1702437,5.88235849 L24.0932339,4.25623564 C24.3854497,4.09219566 24.7752293,4.18168195 24.9537858,4.4502865 C25.1324612,4.71874536 25.035056,5.0768362 24.7426816,5.24087619 L21.8198896,6.86699903 C21.7224843,6.92662013 21.608825,6.95652174 21.4951261,6.95652174 Z" id="Fill-16" fill="#424242"></path>
                <path d="M24.3478261,4.17389208 C24.3478261,4.67102611 24.6130381,5.13037712 25.0435003,5.3788393 C25.4739625,5.62734342 26.0043424,5.62734342 26.4348047,5.3788393 C26.8652669,5.13037712 27.1304348,4.67102611 27.1304348,4.17389208 C27.1304348,3.67688384 26.8652669,3.21757477 26.4348047,2.96911259 C26.0043424,2.72044073 25.4739625,2.72044073 25.0435003,2.96911259 C24.6130381,3.21757477 24.3478261,3.67688384 24.3478261,4.17389208 Z" id="Fill-17" fill="#EFEFFD"></path>
                <path d="M25.052408,6.26086957 L24.9802742,6.26086957 C23.8244135,6.22608685 22.9213739,5.26568323 22.9575731,4.11342054 C22.9756506,3.53716132 23.2103942,3.01350243 23.6437262,2.62935803 C24.0410795,2.26269024 24.5648434,2.07057542 25.1066848,2.08805203 C26.2625455,2.12300525 27.165541,3.08323836 27.1293859,4.23562893 C27.1113084,4.81176027 26.8765207,5.33558967 26.4430123,5.71973407 C26.0637807,6.06888262 25.5761719,6.26086957 25.052408,6.26086957 Z M25.052408,3.43242954 C24.8898424,3.43242954 24.727409,3.50233598 24.6009985,3.60706776 C24.4565104,3.74679538 24.3662549,3.93878233 24.3662549,4.14824588 C24.3481774,4.54986689 24.6550988,4.89901544 25.0343305,4.91649205 C25.1969402,4.91649205 25.3775834,4.86423273 25.503994,4.74198171 C25.6483498,4.60229672 25.7387816,4.41013927 25.7387816,4.20067571 C25.7568592,3.7990547 25.4497613,3.44990615 25.0704856,3.43242954 L25.052408,3.43242954 Z" id="Fill-18" fill="#424242"></path>
                <line x1="9.73913043" y1="20.8695652" x2="7.65217391" y2="25.0434783" id="Fill-19" fill="#EFEFFD"></line>
                <path d="M8.24772736,25.7391304 C8.17125259,25.7391304 8.07946046,25.7212481 8.0029857,25.6854398 C7.71214249,25.5246296 7.57454769,25.131567 7.69682512,24.7743127 L9.30357972,20.5761494 C9.44132396,20.236603 9.7780072,20.0759236 10.0840183,20.236603 C10.3747495,20.3974132 10.5124937,20.7904758 10.3900668,21.1477301 L8.78331222,25.3460678 C8.67620272,25.5782766 8.46198372,25.7391304 8.24772736,25.7391304 Z" id="Fill-20" fill="#424242"></path>
                <path d="M6.26086957,25.7391933 C6.26086957,26.5076555 6.88380018,27.1304348 7.65217391,27.1304348 C8.42054764,27.1304348 9.04347826,26.5076555 9.04347826,25.7391933 C9.04347826,24.9707731 8.42054764,24.3478261 7.65217391,24.3478261 C6.88380018,24.3478261 6.26086957,24.9707731 6.26086957,25.7391933 Z" id="Fill-21" fill="#EFEFFD"></path>
                <path d="M7.65223527,27.826087 C7.50733654,27.826087 7.38056673,27.8085084 7.23562378,27.7909726 C6.67411356,27.6858863 6.20324796,27.3530915 5.89549845,26.880096 C5.27955725,25.9339767 5.55122578,24.6376979 6.49308964,24.0070087 C6.96395524,23.6915786 7.50733654,23.5864923 8.06866988,23.6915786 C8.6301801,23.796836 9.1010457,24.1296309 9.40897209,24.6025836 C10.0247364,25.5485746 9.75306788,26.8450244 8.81138089,27.4757136 C8.46715245,27.7034221 8.06866988,27.826087 7.65223527,27.826087 Z M7.65223527,25.0055643 C7.52546546,25.0055643 7.39869565,25.0405075 7.29005477,25.1106506 C6.96395524,25.3383591 6.85531436,25.8113546 7.09072505,26.1616852 C7.19936594,26.3194216 7.36239359,26.4420437 7.54359438,26.4771153 C7.72461831,26.5122296 7.88764596,26.4771153 8.03258891,26.3720289 C8.35851156,26.1443205 8.46715245,25.6711967 8.23174175,25.3208233 C8.12305665,25.1633007 7.960029,25.0405075 7.77900507,25.0055643 L7.65223527,25.0055643 Z" id="Fill-22" fill="#424242"></path>
            </g>
        </g>
    </g>
</svg>