<?xml version="1.0" encoding="UTF-8"?>
<svg width="29px" height="34px" viewBox="0 0 29 34" version="1.1" xmlns="http://www.w3.org/2000/svg" xmlns:xlink="http://www.w3.org/1999/xlink">
    <title>kongjian</title>
    <g id="页面-1" stroke="none" stroke-width="1" fill="none" fill-rule="evenodd">
        <g id="图标" transform="translate(-364.000000, -90.000000)">
            <g id="kongjian" transform="translate(364.000000, 90.000000)">
                <polygon id="Fill-1" fill="#6462F3" points="28 9 28 25.0001042 14 33 14 16.9999479"></polygon>
                <path d="M29,8.87387151 C29,8.74098096 29,8.60814234 28.8682846,8.60814234 L28.8682846,8.47504407 C28.8682846,8.34220546 28.7363117,8.34220546 28.7363117,8.34220546 L28.6045962,8.20910719 L15.0272994,0.0998237031 C14.7636111,-0.0332745677 14.2363889,-0.0332745677 13.9727006,0.0998237031 L0.52717068,8.07626857 L0.263688323,8.34220546 L0.131766924,8.47504407 C0.131766924,8.47504407 0.131766924,8.60814234 0,8.74098096 L0,24.9600153 C0,25.3587908 0.263688323,25.7576182 0.52717068,25.8905088 L13.9727006,33.8671095 L14.1046735,33.8671095 C14.2363889,33.8671095 14.3681558,34 14.5001287,34 C14.6318442,34 14.7636111,34 14.8955325,33.8671095 L28.4728293,25.8905088 C28.7363117,25.7576182 29,25.3587908 29,24.9600153 L29,8.87387151 Z M13.4455299,17.648127 L13.4455299,31.0752135 L2.10914615,24.295251 L2.10914615,10.8681126 L13.4455299,17.648127 Z M25.8365125,9.00691785 L14.5001287,15.7869323 L3.16369347,9.00691785 L14.5001287,2.22674757 L25.8365125,9.00691785 Z M26.8908539,10.8681126 L26.8908539,24.295251 L15.5544701,31.0752135 L15.5544701,17.648127 L26.8908539,10.8681126 Z" id="Fill-3" fill="#424242"></path>
            </g>
        </g>
    </g>
</svg>