<svg height="511pt" viewBox="-25 0 511 511.99943" width="511pt" xmlns="http://www.w3.org/2000/svg"><path d="m137.703125 126.867188v24.734374c0 5.53125 4.484375 10.015626 10.015625 10.015626h142.683594v-120.746094c0-17.054688-11.570313-30.875-25.84375-30.875h-154.394532c-14.273437 0-25.84375 13.820312-25.84375 30.875v66.5625h33.949219c10.734375 0 19.433594 8.699218 19.433594 19.433594zm0 0" fill="#b1d9ff"/><path d="m276.601562 220.101562c27.785157-16.042968 60.09375-17.132812 87.628907-5.785156v-30.355468c0-12.339844-10.003907-22.34375-22.34375-22.34375h-194.164063c-5.535156 0-10.019531-4.484376-10.019531-10.015626v-24.734374c0-10.734376-8.699219-19.433594-19.433594-19.433594h-88.339843c-10.734376 0-19.433594 8.703125-19.433594 19.433594v211.054687c0 16.179687 13.117187 29.296875 29.296875 29.296875h208.09375c-2.769531-3.566406-5.335938-7.355469-7.65625-11.375-27.441407-47.527344-11.15625-108.300781 36.371093-135.742188zm0 0" fill="#ffcb78"/><path d="m408.722656 410.8125-17.15625-29.71875c-4.746094 4.125-9.945312 7.859375-15.59375 11.121094-5.855468 3.382812-11.910156 6.09375-18.082031 8.171875l17.222656 29.828125 16.804688-9.703125zm0 0" fill="#f8f8f8"/><path d="m391.566406 381.09375c35.183594-30.578125 44.957032-82.742188 20.777344-124.621094-11.398438-19.742187-28.550781-34.089844-48.117188-42.15625-27.53125-11.347656-59.839843-10.257812-87.625 5.785156-47.527343 27.441407-63.8125 88.214844-36.371093 135.742188 2.320312 4.019531 4.886719 7.808594 7.65625 11.375 25.941406 33.394531 70.324219 46.519531 110.003906 33.167969 6.171875-2.078125 12.226563-4.789063 18.082031-8.171875 5.648438-3.261719 10.847656-6.996094 15.59375-11.121094zm-95.414062-127.132812c28.828125-16.640626 65.6875-6.765626 82.332031 22.0625 16.644531 28.828124 6.765625 65.6875-22.058594 82.332031-28.828125 16.640625-65.6875 6.765625-82.332031-22.0625s-6.769531-65.6875 22.058594-82.332031zm0 0" fill="#ff838e"/><path d="m378.472656 276.015625c-16.644531-28.828125-53.503906-38.703125-82.328125-22.058594-28.828125 16.640625-38.703125 53.503907-22.058593 82.328125 16.640624 28.828125 53.5 38.703125 82.328124 22.058594 28.828126-16.640625 38.703126-53.503906 22.058594-82.328125zm0 0" fill="#ff6978"/><path d="m447.378906 459.847656-27.882812-48.296875c-1.664063-2.882812-5.351563-3.871093-8.234375-2.207031l-19.34375 11.171875-16.804688 9.703125-2.539062 1.464844c-2.882813 1.664062-3.871094 5.351562-2.207031 8.234375l27.882812 48.292969c7.621094 13.199218 24.5 17.722656 37.699219 10.101562l1.332031-.769531c13.195312-7.621094 17.71875-24.496094 10.097656-37.695313zm0 0" fill="#ff838e"/><path d="m456.035156 454.847656-27.882812-48.292968c-3.1875-5.519532-9.105469-8.371094-14.957032-7.984376l-9.007812-15.601562c19.453125-19.800781 31.464844-46.929688 31.464844-76.808594 0-43.175781-25.074219-80.597656-61.429688-98.476562v-23.722656c0-17.832032-14.503906-32.335938-32.335937-32.335938l-41.488281-.003906v-110.75c-.003907-22.539063-16.078126-40.871094-35.839844-40.871094h-154.394532c-19.761718 0-35.835937 18.332031-35.835937 40.871094v56.566406h-44.398437c-16.226563 0-29.429688 13.203125-29.429688 29.429688v211.054687c0 21.664063 17.625 39.292969 39.292969 39.292969h202.664062c27.316407 32.019531 70.351563 45.574218 110.820313 35.171875l9.003906 15.59375c-3.285156 4.914062-3.722656 11.476562-.574219 16.933593l27.886719 48.296876c10.3125 17.863281 33.320312 24.167968 51.347656 13.757812.097656-.058594 1.433594-.828125 1.332032-.769531 17.953124-10.363281 24.125-33.398438 13.761718-51.351563zm-361.71875-413.976562c0-11.320313 7.257813-20.882813 15.847656-20.882813h154.394532c8.589844 0 15.847656 9.5625 15.847656 20.882813v110.746094l-132.707031-.015626v-24.734374c0-16.226563-13.203125-29.425782-29.429688-29.425782h-23.953125zm231.671875 354.960937c-40.75 0-76.839843-27.664062-86.96875-67.707031-1.347656-5.351562-6.777343-8.597656-12.132812-7.25-5.351563 1.347656-8.597657 6.78125-7.25 12.132812 2.105469 8.351563 5.195312 16.476563 9.269531 24.214844h-189.113281c-10.644531 0-19.304688-8.660156-19.304688-19.300781v-211.054687c0-5.203126 4.238281-9.4375 9.441407-9.4375h88.339843c5.207031 0 9.441407 4.234374 9.441407 9.4375v24.734374c0 11.035157 8.976562 20.011719 20.011718 20.011719h194.164063c6.808593 0 12.347656 5.539063 12.347656 12.347657v16.21875c-9.015625-2.402344-18.480469-3.6875-28.246094-3.6875-40.246093 0-77.191406 21.988281-96.421875 57.386718-2.632812 4.851563-.839844 10.917969 4.011719 13.554688 4.851563 2.632812 10.917969.835937 13.554687-4.011719 15.726563-28.953125 45.945313-46.9375 78.855469-46.9375 49.449219 0 89.675781 40.226563 89.675781 89.671875 0 49.449219-40.230468 89.675781-89.675781 89.675781zm46.402344 9.683594c5.714844-2.679687 11.164063-5.839844 16.292969-9.425781l6.386718 11.0625-16.300781 9.410156zm59.890625 83.371094-1.332031.769531c-8.410157 4.851562-19.191407 1.960938-24.046875-6.441406l-25.898438-44.859375 31.820313-18.371094 25.898437 44.859375c4.855469 8.40625 1.964844 19.191406-6.441406 24.042969zm0 0"/><path d="m227.8125 283.003906c-5.519531 0-9.996094 4.488282-9.996094 10.007813 0 5.523437 4.476563 9.996093 9.996094 9.996093s9.996094-4.472656 9.996094-9.996093v-.023438c0-5.519531-4.476563-9.984375-9.996094-9.984375zm0 0"/><path d="m326.289062 235.882812c-38.75 0-70.277343 31.523438-70.277343 70.277344 0 38.75 31.527343 70.273438 70.277343 70.273438s70.273438-31.523438 70.273438-70.273438c0-38.753906-31.527344-70.277344-70.273438-70.277344zm0 120.5625c-27.730468 0-50.289062-22.558593-50.289062-50.285156 0-27.730468 22.558594-50.289062 50.289062-50.289062 27.726563 0 50.285157 22.558594 50.285157 50.289062 0 27.726563-22.558594 50.285156-50.285157 50.285156zm0 0"/></svg>