<svg height="511pt" viewBox="1 -2 511.999 511" width="511pt" xmlns="http://www.w3.org/2000/svg"><path d="m379.730469 270.421875c0 65.675781-53.238281 118.917969-118.914063 118.917969-65.675781 0-118.917968-53.242188-118.917968-118.917969s53.242187-118.914063 118.917968-118.914063c65.675782 0 118.914063 53.238282 118.914063 118.914063zm0 0" fill="#b1d9ff"/><path d="m29.453125 163.257812h121.996094c6.953125 0 12.589843-5.636718 12.589843-12.59375v-64.886718c0-6.015625-4.875-10.890625-10.890624-10.890625h-77.5625c-2.378907 0-4.308594-1.929688-4.308594-4.304688v-20.410156c0-4.613281-3.738282-8.351563-8.351563-8.351563h-42.574219c-4.613281 0-8.351562 3.738282-8.351562 8.351563v95.632813c0 9.640624 7.8125 17.453124 17.453125 17.453124zm0 0" fill="#ffcb78"/><path d="m488.710938 321.382812h-51.882813v33.128907c0 8.15625-6.609375 14.769531-14.765625 14.769531h-37.515625v113.25c0 7.339844 5.949219 13.289062 13.289063 13.289062h90.875c7.339843 0 13.289062-5.949218 13.289062-13.289062v-147.859375c0-7.339844-5.949219-13.289063-13.289062-13.289063zm0 0" fill="#ffcb78"/><path d="m436.828125 354.511719v-33.128907h-4.730469c-3.144531 0-6.167968 1.210938-8.445312 3.386719l-35.324219 33.742188c-2.417969 2.304687-3.78125 5.5-3.78125 8.839843v1.933594h37.511719c8.160156-.003906 14.769531-6.613281 14.769531-14.773437zm0 0" fill="#ff9d6a"/><path d="m376.097656 44.277344h94.292969v90.394531h-94.292969zm0 0" fill="#f8f8f8"/><path d="m454.644531 169.339844c8.695313 0 15.746094-7.046875 15.746094-15.742188v-18.925781h-94.292969v18.925781c0 8.695313 7.050782 15.742188 15.746094 15.742188zm0 0" fill="#b1d9ff"/><path d="m470.390625 25.351562c0-8.695312-7.050781-15.746093-15.746094-15.746093h-62.800781c-8.699219 0-15.746094 7.050781-15.746094 15.746093v18.925782h94.292969zm0 0" fill="#b1d9ff"/><path d="m172.210938 409.640625-57.554688 32.046875c-12.492188 6.957031-27.695312 6.957031-40.191406 0l-57.554688-32.046875v64.679687c0 7.574219 6.140625 13.714844 13.714844 13.714844h127.871094c7.574218 0 13.714844-6.140625 13.714844-13.714844 0 0-.175782-65.625 0-64.679687zm0 0" fill="#63d9b8"/><path d="m114.65625 441.6875 57.554688-32.046875v-2.324219c0-7.554687-6.140626-13.714844-13.714844-13.714844h-127.871094c-7.5625 0-13.714844 6.128907-13.714844 13.714844v2.324219l57.554688 32.046875c12.496094 6.957031 27.699218 6.957031 40.191406 0zm0 0" fill="#1dd0a8"/><path d="m259.828125 142.398438c-71.363281 0-129.421875 57.832031-129.421875 128.917968 0 71.085938 58.058594 128.914063 129.421875 128.914063 71.367187 0 129.425781-57.828125 129.425781-128.914063 0-71.085937-58.058594-128.917968-129.425781-128.917968zm96.25 77.277343c-9.761719-3.164062-19.648437-5.847656-29.628906-8.019531-2.152344-10.929688-4.902344-21.75-8.222657-32.382812 15.824219 10 28.910157 23.925781 37.851563 40.402343zm9.671875 78.726563c-4.339844 1.46875-16.785156 6.527344-35.855469 11.230468.0625-.503906.132813-1.003906.191407-1.507812.660156-5.484375-3.269532-10.460938-8.773438-11.117188-5.5-.644531-10.503906 3.257813-11.164062 8.742188-.328126 2.746094-.699219 5.492188-1.109376 8.226562-32.539062 5.546876-65.847656 5.546876-98.386718.007813-4.210938-28.277344-4.210938-57.058594 0-85.335937 32.53125-5.539063 65.832031-5.539063 98.363281 0 .25 1.65625.511719 3.050781 1.136719 8.234374.660156 5.5 5.679687 9.398438 11.160156 8.738282 5.503906-.65625 9.433594-5.632813 8.773438-11.117188-.058594-.503906-.128907-1.003906-.191407-1.503906 19.074219 4.703125 31.40625 9.726562 35.855469 11.226562 4.566406 17.703126 4.566406 36.464844 0 54.175782zm-211.839844 0c-4.5625-17.699219-4.566406-36.460938 0-54.175782 4.308594-1.453124 16.796875-6.53125 35.894532-11.238281-3.171876 25.445313-3.171876 51.210938 0 76.652344-19.113282-4.707031-31.476563-9.742187-35.894532-11.238281zm139.066406-130.882813c1.117188 3.359375 7.128907 18.054688 12.140626 40.273438-30.015626-4.386719-60.554688-4.386719-90.570313 0 5.007813-22.257813 11.0625-37.050781 12.136719-40.269531 21.5-6.828126 44.777344-6.835938 66.292968-.003907zm-91.5625 11.769531c-3.328124 10.660157-6.0625 21.464844-8.203124 32.367188-9.980469 2.171875-19.867188 4.855469-29.632813 8.019531 8.941406-16.46875 22.019531-30.390625 37.835937-40.386719zm-37.832031 143.667969c9.765625 3.164063 19.652344 5.847657 29.628907 8.023438 2.140624 10.898437 4.875 21.703125 8.199218 32.363281-15.8125-9.996094-28.890625-23.917969-37.828125-40.386719zm63.101563 52.152344c-1.117188-3.359375-7.15625-18.128906-12.136719-40.265625 29.171875 4.257812 59.5 4.535156 90.585937-.003906-4.996093 22.152344-11.101562 37.109375-12.15625 40.269531-21.5 6.832031-44.777343 6.835937-66.292968 0zm91.566406-11.765625c3.316406-10.632812 6.058594-21.441406 8.210938-32.371094 9.976562-2.171875 19.859374-4.855468 29.617187-8.015625-8.9375 16.46875-22.015625 30.390625-37.828125 40.386719zm0 0"/><path d="m157.109375 384.492188c-13.515625 0-109.007813 0-128.371094 0-13.128906 0-23.808593 10.640624-23.808593 23.71875v67c0 13.078124 10.679687 23.714843 23.808593 23.714843h128.371094c13.128906 0 23.808594-10.636719 23.808594-23.714843v-67c0-13.078126-10.679688-23.71875-23.808594-23.71875zm3.730469 80.003906-25.335938-22.894532 25.335938-14.054687zm-135.832032-36.949219 25.335938 14.050781-25.335938 22.898438zm43.246094 24.875c.210938-.191406.40625-.394531.597656-.597656 15.203126 8.023437 32.921876 8.027343 48.144532 0 .191406.203125.386718.40625.597656.597656l29.332031 26.503906h-108.003906zm90.382813-46.542969-50.421875 27.964844c-9.574219 5.3125-21.007813 5.3125-30.582032 0l-50.421874-27.964844c3.191406-2.632812 2.402343-.875 65.710937-1.386718 64.445313.519531 62.628906-1.15625 65.714844 1.386718zm0 0"/><path d="m27.558594 174.148438h122.476562c12.503906 0 22.679688-10.136719 22.679688-22.59375v-64.882813c0-11.519531-9.40625-20.894531-20.972656-20.894531h-72.152344v-14.710938c0-10.121094-8.265625-18.355468-18.425782-18.355468h-42.738281c-10.160156 0-18.425781 8.234374-18.425781 18.355468v95.632813c0 15.136719 12.363281 27.449219 27.558594 27.449219zm-7.480469-121.4375h39.433594v18.761718c0 7.890625 6.441406 14.308594 14.359375 14.308594h77.871094c.492187 0 .894531.398438.894531.890625v64.886719c0 1.429687-1.167969 2.59375-2.601563 2.59375h-122.476562c-4.125 0-7.480469-3.34375-7.480469-7.453125zm0 0"/><path d="m488.621094 312.277344h-52.085938c-2.273437.324218-11.835937-1.769532-20.164062 6.148437l-35.464844 33.746094c-7.921875 7.539063-6.796875 17.4375-6.898438 18v113.25c0 12.839844 10.488282 23.289063 23.378907 23.289063h91.234375c12.890625 0 23.378906-10.449219 23.378906-23.289063v-147.859375c0-12.839844-10.488281-23.285156-23.378906-23.285156zm-62.128906 24.179687v18.949219c0 2.628906-2.144532 4.769531-4.785157 4.769531h-20.140625zm65.429687 146.964844c0 1.816406-1.480469 3.289063-3.300781 3.289063h-91.234375c-1.820313 0-3.300781-1.472657-3.300781-3.289063v-103.246094h27.625c13.710937 0 24.863281-11.109375 24.863281-24.769531v-23.128906h42.046875c1.820312 0 3.300781 1.472656 3.300781 3.285156zm0 0"/><path d="m391.371094 180.234375h63.050781c14.25 0 25.84375-11.550781 25.84375-25.746094 0-27.113281 0-98.992187 0-128.242187 0-14.199219-11.59375-25.746094-25.84375-25.746094h-63.050781c-14.25 0-25.84375 11.546875-25.84375 25.746094v128.242187c-.003906 14.195313 11.59375 25.746094 25.84375 25.746094zm68.816406-25.746094c0 3.167969-2.585938 5.746094-5.765625 5.746094h-63.050781c-3.179688 0-5.769532-2.578125-5.769532-5.746094v-8.921875h74.585938zm-74.582031-28.921875v-70.398437h74.582031v70.398437zm0-99.320312c0-3.167969 2.585937-5.746094 5.765625-5.746094h63.050781c3.179687 0 5.765625 2.578125 5.765625 5.746094v8.921875h-74.582031zm0 0"/><path d="m318.152344 261.511719c-5.621094 1.15625-8.933594 6.511719-7.878906 11.761719.980468 4.742187 5.097656 8.039062 9.847656 8.039062 5.625 0 10.039062-4.574219 10.039062-10 0-6.3125-5.839844-11.035156-12.007812-9.800781zm0 0"/><path d="m54.855469 265.046875c-.359375 11.542969.273437 23.160156 1.890625 34.617187.773437 5.464844 5.851562 9.277344 11.34375 8.507813 5.488281-.773437 9.3125-5.828125 8.539062-11.296875-1.453125-10.300781-2.03125-20.78125-1.703125-31.203125.171875-5.523437-4.183593-10.136719-9.722656-10.308594-5.578125-.136719-10.175781 4.164063-10.347656 9.683594zm0 0"/><path d="m77.878906 365.433594c2.566406 4.921875 8.636719 6.800781 13.535156 4.265625 4.921876-2.542969 6.839844-8.582031 4.285157-13.484375-4.820313-9.246094-8.882813-18.957032-12.066407-28.867188-1.691406-5.261718-7.34375-8.160156-12.625-6.472656-5.277343 1.683594-8.1875 7.3125-6.496093 12.570312 3.527343 10.980469 8.027343 21.742188 13.367187 31.988282zm0 0"/><path d="m78.574219 234.625c2.015625-9.800781 4.933593-19.929688 8.855469-30.015625 2.003906-5.148437-.566407-10.941406-5.734376-12.9375-5.167968-1.996094-10.984374.566406-12.988281 5.714844-4.1875 10.769531-7.480469 21.941406-9.800781 33.230469-1.109375 5.410156 2.390625 10.695312 7.824219 11.800781 5.394531 1.105469 10.730469-2.347657 11.84375-7.792969zm0 0"/><path d="m228.792969 451.859375c-9.808594-1.203125-19.675781-3.097656-29.5-5.699219-5.359375-1.425781-10.859375 1.753906-12.28125 7.09375-1.425781 5.335938 1.761719 10.8125 7.121093 12.234375 15.683594 4.152344 31.214844 6.296875 33.445313 6.296875 4.996094 0 9.324219-3.710937 9.949219-8.777344.679687-5.480468-3.230469-10.472656-8.734375-11.148437zm0 0"/><path d="m291.785156 450.226562c-10.308594 1.835938-20.878906 2.902344-31.417968 3.171876-5.542969.140624-9.921876 4.730468-9.78125 10.25.140624 5.453124 4.660156 9.867187 10.292968 9.742187 11.550782-.296875 23.136719-1.464844 34.4375-3.476563 5.460938-.972656 9.09375-6.167968 8.117188-11.605468-.972656-5.433594-6.195313-9.054688-11.648438-8.082032zm0 0"/><path d="m351.164062 429.773438c-9.175781 4.90625-18.882812 9.128906-28.851562 12.550781-5.242188 1.800781-8.027344 7.492187-6.21875 12.714843 1.8125 5.238282 7.535156 7.992188 12.761719 6.195313 10.984375-3.773437 21.679687-8.429687 31.800781-13.835937 4.886719-2.613282 6.722656-8.675782 4.101562-13.539063-2.621093-4.867187-8.707031-6.695313-13.59375-4.085937zm0 0"/><path d="m452.765625 240.449219c5.46875-.933594 9.136719-6.101563 8.203125-11.542969-1.949219-11.355469-4.804688-22.617188-8.488281-33.476562-1.777344-5.234376-7.472657-8.042969-12.726563-6.273438-5.25 1.769531-8.070312 7.441406-6.296875 12.675781 3.347657 9.875 5.945313 20.121094 7.722657 30.445313.929687 5.429687 6.105468 9.105468 11.585937 8.171875zm0 0"/><path d="m452.121094 306.324219c4.9375 0 9.242187-3.628907 9.933594-8.640625 1.546874-11.238282 2.285156-22.707032 2.105468-34.417969-.082031-5.523437-4.648437-9.953125-10.1875-9.847656-5.542968.082031-9.972656 4.625-9.886718 10.148437.15625 10.492188-.476563 20.902344-1.921876 31.394532-.828124 6 3.847657 11.363281 9.957032 11.363281zm0 0"/><path d="m319.464844 97.347656c8.21875 2.992188 16.363281 6.613282 24.316406 10.882813 4.882812 2.621093 10.972656.800781 13.601562-4.058594 2.632813-4.859375.808594-10.925781-4.074218-13.546875-8.363282-4.492188-17.363282-8.570312-26.953125-12.0625-5.210938-1.898438-10.972657.769531-12.875 5.957031-1.902344 5.1875.777343 10.929688 5.984375 12.828125zm0 0"/><path d="m196.199219 95.917969c9.898437-3.367188 20.144531-5.910157 30.453125-7.558594 5.476562-.875 9.199218-6.007813 8.320312-11.460937-.875-5.449219-6.027344-9.164063-11.5-8.289063-11.429687 1.828125-22.789062 4.648437-33.761718 8.378906-12.4375 4.230469-6.25 23.257813 6.488281 18.929688zm0 0"/><path d="m257.941406 86.058594c19.582032.230468 30.21875 3.207031 33.0625 3.207031 4.746094 0 8.964844-3.367187 9.859375-8.183594 1.007813-5.433593-2.59375-10.648437-8.046875-11.652343-12.253906-2.253907-25.285156-3.371094-34.757812-3.371094-5.488282 0-9.972656 4.398437-10.039063 9.882812-.066406 5.523438 4.378907 10.050782 9.921875 10.117188zm0 0"/></svg>