<?xml version="1.0" encoding="UTF-8"?>
<svg width="32px" height="26px" viewBox="0 0 32 26" version="1.1" xmlns="http://www.w3.org/2000/svg" xmlns:xlink="http://www.w3.org/1999/xlink">
    <title>cloud-disk</title>
    <g id="页面-1" stroke="none" stroke-width="1" fill="none" fill-rule="evenodd">
        <g id="图标" transform="translate(-75.000000, -42.000000)">
            <g id="cloud-disk" transform="translate(75.000000, 42.000000)">
                <path d="M29.8774713,25.7391304 L2.12236926,25.7391304 C0.946986607,25.7391304 0,24.7549949 0,23.5334622 L0,20.2927491 C0,19.0710921 0.946986607,18.0869565 2.12236926,18.0869565 L29.8774713,18.0869565 C31.0530533,18.0869565 32,19.0710921 32,20.2927491 L32,23.5334622 C32,24.7549949 31.0530533,25.7391304 29.8774713,25.7391304 Z M2.12236926,19.6479534 C1.77953603,19.6479534 1.48569037,19.9364255 1.48569037,20.3097326 L1.48569037,23.5503215 C1.48569037,23.9067693 1.76331314,24.2121007 2.12236926,24.2121007 L29.8774713,24.2121007 C30.2203444,24.2121007 30.5143096,23.9235871 30.5143096,23.5503215 L30.5143096,20.3097326 C30.5143096,19.9534505 30.2366869,19.6479534 29.8774713,19.6479534 L2.12236926,19.6479534 Z" id="Fill-1" fill="#424242"></path>
                <path d="M3.47826087,22.2608696 C3.47826087,22.6450893 3.78969332,22.9565217 4.17391304,22.9565217 C4.55793866,22.9565217 4.86956522,22.6450893 4.86956522,22.2608696 C4.86956522,21.8766498 4.55793866,21.5652174 4.17391304,21.5652174 C3.78969332,21.5652174 3.47826087,21.8766498 3.47826087,22.2608696 Z" id="Fill-2" fill="#6462F3"></path>
                <path d="M4.86956522,22.2608696 C4.86956522,22.6450893 5.18119177,22.9565217 5.56521739,22.9565217 C5.94943711,22.9565217 6.26086957,22.6450893 6.26086957,22.2608696 C6.26086957,21.8766498 5.94943711,21.5652174 5.56521739,21.5652174 C5.18119177,21.5652174 4.86956522,21.8766498 4.86956522,22.2608696 Z" id="Fill-3" fill="#6462F3"></path>
                <path d="M6.26086957,22.2608635 C6.26086957,22.5093571 6.39353649,22.7391202 6.60869565,22.8632457 C6.82404891,22.9876138 7.08918866,22.9876138 7.30434783,22.8632457 C7.51965256,22.7391202 7.65217391,22.5093571 7.65217391,22.2608635 C7.65217391,21.8766471 7.34074146,21.5652174 6.95652174,21.5652174 C6.57230202,21.5652174 6.26086957,21.8766471 6.26086957,22.2608635 Z" id="Fill-4" fill="#6462F3"></path>
                <path d="M28.4397257,22.9565217 L20.9514136,22.9565217 C20.5289056,22.9565217 20.173913,22.6541076 20.173913,22.2607957 C20.173913,21.8828058 20.5119855,21.5652174 20.9514136,21.5652174 L28.4397257,21.5652174 C28.8623988,21.5652174 29.2173913,21.8676684 29.2173913,22.2607957 C29.2173913,22.6541076 28.8791951,22.9565217 28.4397257,22.9565217 Z" id="Fill-5" fill="#424242"></path>
                <path d="M29.8774713,16.6956522 L2.12236926,16.6956522 C0.946986607,16.6956522 0,15.7115166 0,14.4898596 L0,11.2492708 C0,10.0276138 0.946986607,9.04347826 2.12236926,9.04347826 L29.8774713,9.04347826 C31.0530533,9.04347826 32,10.0276138 32,11.2492708 L32,14.4898596 C32,15.694533 31.0530533,16.6956522 29.8774713,16.6956522 Z M2.12236926,10.5874916 C1.77953603,10.5874916 1.48569037,10.8760051 1.48569037,11.2492708 L1.48569037,14.4898596 C1.48569037,14.8461417 1.76331314,15.1516388 2.12236926,15.1516388 L29.8774713,15.1516388 C30.2203444,15.1516388 30.5143096,14.8631253 30.5143096,14.4898596 L30.5143096,11.2492708 C30.5143096,10.8929887 30.2366869,10.5874916 29.8774713,10.5874916 L2.12236926,10.5874916 Z" id="Fill-6" fill="#6462F3"></path>
                <path d="M3.47826087,12.5217391 C3.47826087,12.9059589 3.78969332,13.2173913 4.17391304,13.2173913 C4.55793866,13.2173913 4.86956522,12.9059589 4.86956522,12.5217391 C4.86956522,12.1375194 4.55793866,11.826087 4.17391304,11.826087 C3.78969332,11.826087 3.47826087,12.1375194 3.47826087,12.5217391 Z" id="Fill-7" fill="#6462F3"></path>
                <path d="M4.86956522,12.5217391 C4.86956522,12.9059589 5.18119177,13.2173913 5.56521739,13.2173913 C5.94943711,13.2173913 6.26086957,12.9059589 6.26086957,12.5217391 C6.26086957,12.1375194 5.94943711,11.826087 5.56521739,11.826087 C5.18119177,11.826087 4.86956522,12.1375194 4.86956522,12.5217391 Z" id="Fill-8" fill="#6462F3"></path>
                <path d="M6.26086957,12.5217331 C6.26086957,12.7702266 6.39353649,12.9999898 6.60869565,13.1241152 C6.82404891,13.2484833 7.08918866,13.2484833 7.30434783,13.1241152 C7.51965256,12.9999898 7.65217391,12.7702266 7.65217391,12.5217331 C7.65217391,12.1375167 7.34074146,11.826087 6.95652174,11.826087 C6.57230202,11.826087 6.26086957,12.1375167 6.26086957,12.5217331 Z" id="Fill-9" fill="#6462F3"></path>
                <path d="M28.4397257,13.2173913 L20.9514136,13.2173913 C20.5289056,13.2173913 20.173913,12.9148215 20.173913,12.5216468 C20.173913,12.1436468 20.5119855,11.826087 20.9514136,11.826087 L28.4397257,11.826087 C28.8623988,11.826087 29.2173913,12.1285091 29.2173913,12.5216468 C29.2173913,12.8996837 28.8791951,13.2173913 28.4397257,13.2173913 Z" id="Fill-10" fill="#424242"></path>
                <path d="M29.8774713,7.65217391 L2.12236926,7.65217391 C0.946986607,7.65217391 0,6.66807444 0,5.44636944 L0,2.20563878 C0,0.984140897 0.946986607,0 2.12236926,0 L29.8774713,0 C31.0530533,0 32,0.984140897 32,2.20563878 L32,5.44636944 C32,6.65109078 31.0530533,7.65217391 29.8774713,7.65217391 Z M2.12236926,1.54398029 C1.77953603,1.54398029 1.48569037,1.83249537 1.48569037,2.20563878 L1.48569037,5.44636944 C1.48569037,5.80269488 1.76331314,6.10819363 2.12236926,6.10819363 L29.8774713,6.10819363 C30.2203444,6.10819363 30.5143096,5.81967854 30.5143096,5.44636944 L30.5143096,2.20563878 C30.5143096,1.84935476 30.2366869,1.54398029 29.8774713,1.54398029 L2.12236926,1.54398029 Z" id="Fill-11" fill="#D7D7FF"></path>
                <path d="M3.47826087,3.47826087 C3.47826087,3.86248059 3.78969332,4.17391304 4.17391304,4.17391304 C4.55793866,4.17391304 4.86956522,3.86248059 4.86956522,3.47826087 C4.86956522,3.09404115 4.55793866,2.7826087 4.17391304,2.7826087 C3.78969332,2.7826087 3.47826087,3.09404115 3.47826087,3.47826087 Z" id="Fill-12" fill="#6462F3"></path>
                <path d="M4.86956522,3.47826087 C4.86956522,3.86248059 5.18119177,4.17391304 5.56521739,4.17391304 C5.94943711,4.17391304 6.26086957,3.86248059 6.26086957,3.47826087 C6.26086957,3.09404115 5.94943711,2.7826087 5.56521739,2.7826087 C5.18119177,2.7826087 4.86956522,3.09404115 4.86956522,3.47826087 Z" id="Fill-13" fill="#6462F3"></path>
                <path d="M6.26086957,3.4782548 C6.26086957,3.72674837 6.39353649,3.9565115 6.60869565,4.08063697 C6.82404891,4.20500507 7.08918866,4.20500507 7.30434783,4.08063697 C7.51965256,3.9565115 7.65217391,3.72674837 7.65217391,3.4782548 C7.65217391,3.09403843 7.34074146,2.7826087 6.95652174,2.7826087 C6.57230202,2.7826087 6.26086957,3.09403843 6.26086957,3.4782548 Z" id="Fill-14" fill="#6462F3"></path>
                <path d="M28.4397257,4.17391304 L20.9514136,4.17391304 C20.5289056,4.17391304 20.173913,3.87146681 20.173913,3.47826087 C20.173913,3.10023078 20.5119855,2.7826087 20.9514136,2.7826087 L28.4397257,2.7826087 C28.8623988,2.7826087 29.2173913,3.08509185 29.2173913,3.47826087 C29.2173913,3.85629096 28.8791951,4.17391304 28.4397257,4.17391304 Z" id="Fill-15" fill="#424242"></path>
            </g>
        </g>
    </g>
</svg>