<?xml version="1.0" encoding="UTF-8"?>
<svg width="32px" height="30px" viewBox="0 0 32 30" version="1.1" xmlns="http://www.w3.org/2000/svg" xmlns:xlink="http://www.w3.org/1999/xlink">
    <title>VNC</title>
    <g id="页面-1" stroke="none" stroke-width="1" fill="none" fill-rule="evenodd">
        <g id="图标" transform="translate(-282.000000, -41.000000)">
            <g id="VNC" transform="translate(282.000000, 41.000000)">
                <path d="M30.732069,24.3478261 L1.15348325,24.2160105 C0.908220877,24.2160105 0.695652174,24.0019207 0.695652174,23.754857 L0.810139881,1.15684592 C0.810139881,0.909741938 1.02266866,0.695652174 1.26793103,0.695652174 L30.8465168,0.82742756 C31.091819,0.82742756 31.3043478,1.04155754 31.3043478,1.28862131 L31.2062668,23.8866323 C31.1899,24.1502233 30.993738,24.3478261 30.732069,24.3478261 Z" id="Fill-1" fill="#EFEFFD"></path>
                <path d="M29.8122608,25.0434783 L2.07350128,24.9120946 C1.51841518,24.9120946 0.995854592,24.6822033 0.60411352,24.2880123 C0.21221301,23.8939416 0,23.3683669 0,22.7935985 L0.0979352679,2.08558001 C0.0979352679,1.52724964 0.326490753,1.00167498 0.718391263,0.607644334 C1.11017219,0.213453314 1.63269292,0 2.18777902,0 L2.20412149,0 L29.9265386,0.131383642 C30.4816247,0.131383642 31.0041454,0.361274947 31.3958865,0.755305595 C31.787787,1.14953671 32,1.674951 32,2.24971935 L31.9020647,22.9578983 C31.9020647,23.5162286 31.6735092,24.0418033 31.2816087,24.4358339 C30.8898677,24.8300249 30.3673071,25.0434783 29.8122608,25.0434783 Z M29.8122608,23.5655426 C29.975566,23.5655426 30.1387516,23.4997505 30.2530293,23.3848049 C30.3673071,23.2698592 30.4327168,23.1057199 30.4327168,22.9414603 L30.5306521,2.23344173 C30.5306521,2.06914202 30.4652423,1.9048423 30.3509646,1.78989665 C30.2366869,1.674951 30.0735013,1.60931932 29.9101961,1.60931932 L2.18777902,1.47793567 C2.02443399,1.47793567 1.86124841,1.54372773 1.74697066,1.65867338 C1.63269292,1.77361903 1.56728316,1.93775837 1.56728316,2.102018 L1.4693479,22.8100365 C1.4693479,22.9743362 1.53475765,23.1384756 1.6490354,23.2534212 C1.76331314,23.3683669 1.92649872,23.4341589 2.08984375,23.4341589 L29.8122608,23.5655426 Z" id="Fill-2" fill="#424242"></path>
                <polygon id="Fill-3" fill="#424242" points="0.695652174 8.16337625 0.702321462 6.26086957 31.3043478 6.44537101 31.2976785 8.34782609"></polygon>
                <path d="M25.4633471,18.7826087 L6.52041869,18.7826087 C6.37442973,18.7826087 6.26086957,18.6699542 6.26086957,18.5250398 L6.26086957,12.779308 C6.26086957,12.6343936 6.37442973,12.5217391 6.52041869,12.5217391 L25.4795813,12.5217391 C25.6256099,12.5217391 25.7391304,12.6343936 25.7391304,12.779308 L25.7391304,18.5411894 C25.7228962,18.6699542 25.6093757,18.7826087 25.4633471,18.7826087 Z" id="Fill-4" fill="#6462F3"></path>
                <path d="M10.4347826,13.9828396 L11.2474672,13.9828396 L11.7512681,15.9387951 C11.865036,16.3754795 11.9464235,16.7945123 12.0763023,17.2312393 L12.1088414,17.2312393 C12.222649,16.7772018 12.3201473,16.3754795 12.4339152,15.9387951 L12.9378352,13.9828396 L13.7179807,13.9828396 L12.5315723,17.9996793 L11.621191,17.9996793 L10.4347826,13.9828396 Z M14.173092,13.9828396 L14.9532374,13.9828396 L16.0747262,16.1310011 L16.4648783,17.0041993 L16.4974175,17.0041993 C16.4486088,16.5849959 16.3999191,16.0610343 16.3999191,15.5895585 L16.3999191,13.9828396 L17.1312559,13.9828396 L17.1312559,17.9996793 L16.3511104,17.9996793 L15.213352,15.8515179 L14.8231999,14.9958007 L14.7907799,14.9958007 C14.8231999,15.4324851 14.8882782,15.9387951 14.8882782,16.3929605 L14.8882782,17.9996793 L14.1568224,17.9996793 L14.1568224,13.9828396 L14.173092,13.9828396 Z M17.8790209,16.0087618 C17.8790209,14.6815261 18.6917055,13.9130435 19.6668476,13.9130435 C20.154498,13.9130435 20.5444914,14.1575646 20.804606,14.437005 L20.3983431,14.9434856 C20.2031877,14.7513223 19.9756122,14.6115594 19.6831172,14.6115594 C19.0979684,14.6115594 18.6591664,15.135521 18.6591664,15.9912808 C18.6591664,16.864479 19.0491597,17.3884406 19.6668476,17.3884406 C19.9919214,17.3884406 20.2519964,17.2312393 20.4633023,16.9867182 L20.8695652,17.4931988 C20.5444914,17.8774401 20.1382285,18.0869565 19.6343085,18.0869565 C18.6754359,18.0694755 17.8790209,17.3534785 17.8790209,16.0087618 Z" id="Fill-5" fill="#FFFFFF"></path>
                <path d="M24.2980595,29.2173913 L6.31063617,29.2173913 C5.89647868,29.2173913 5.56521739,28.9082126 5.56521739,28.5218146 C5.56521739,28.1352657 5.89647868,27.826087 6.31063617,27.826087 L24.2980595,27.826087 C24.712217,27.826087 25.0434783,28.1352657 25.0434783,28.5218146 C25.0434783,28.9082126 24.712217,29.2173913 24.2980595,29.2173913 Z" id="Fill-6" fill="#424242"></path>
                <polygon id="Fill-7" fill="#424242" points="14.6086957 28.5217391 16 28.5217391 16 25.0434783 14.6086957 25.0434783"></polygon>
            </g>
        </g>
    </g>
</svg>