<?xml version="1.0" encoding="UTF-8"?>
<svg width="32px" height="28px" viewBox="0 0 32 28" version="1.1" xmlns="http://www.w3.org/2000/svg" xmlns:xlink="http://www.w3.org/1999/xlink">
    <title>CVM-02</title>
    <defs>
        <polygon id="path-1" points="0.00234146341 0.00841331751 31.9687415 0.00841331751 31.9687415 21.3320049 0.00234146341 21.3320049"></polygon>
    </defs>
    <g id="页面-1" stroke="none" stroke-width="1" fill="none" fill-rule="evenodd">
        <g id="图标" transform="translate(-122.000000, -47.000000)">
            <g id="CVM-02" transform="translate(122.000000, 47.000000)">
                <g id="编组">
                    <mask id="mask-2" fill="white">
                        <use xlink:href="#path-1"></use>
                    </mask>
                    <g id="Clip-2"></g>
                    <path d="M28.2763707,21.3320049 C28.0846049,21.3320049 27.8958829,21.2424127 27.7745561,21.0696361 C27.5826341,20.7943346 27.6498341,20.4134994 27.9246829,20.2181392 C29.6926829,18.9829548 30.7466537,16.9609768 30.7475512,14.8025592 C30.7475512,11.3680488 28.1740878,8.54493773 24.7629659,8.23447131 L24.3281951,8.19602442 L24.2259122,7.77037363 C23.2893268,3.9165812 19.8718049,1.22471306 15.9140293,1.22471306 C11.9500098,1.22471306 8.52924878,3.9197851 7.59894634,7.78318926 L7.49666341,8.19922833 L7.07149268,8.24732601 C3.73763902,8.62245665 1.21830244,11.446779 1.22119024,14.8057631 C1.22119024,16.9150281 2.24101463,18.9123126 3.94817561,20.1542173 C4.21982439,20.3526252 4.28062439,20.7335775 4.08245854,21.005558 C3.88413659,21.2776947 3.50700488,21.3416166 3.2288,21.1432088 C1.20839024,19.6740611 0,17.305475 0,14.8057631 C0,10.9615824 2.77482927,7.71922833 6.52163902,7.09497436 C7.71586341,2.89336264 11.5541073,-0.00164102564 15.9172293,0.00841331751 C20.2969366,0.00841331751 24.0980293,2.89246398 25.3065366,7.07254701 C29.1330732,7.62947985 31.9687415,10.8814847 31.9687415,14.8057631 C31.9687415,17.3599414 30.7187512,19.7572454 28.6248585,21.2231893 C28.5193756,21.2969182 28.3978537,21.3320049 28.2763707,21.3320049 Z" id="Fill-1" fill="#000000" mask="url(#mask-2)"></path>
                </g>
                <path d="M24.717465,19.3333333 L6.61586834,19.3333333 C5.90949461,19.3333333 5.33333333,18.7865677 5.33333333,18.1163839 L5.33333333,13.2171379 C5.33333333,12.5467656 5.90949461,12 6.61586834,12 L24.717465,12 C25.4238387,12 26,12.5467656 26,13.2171379 L26,18.1132919 C26,18.7859644 25.426342,19.3317119 24.717465,19.3333333 Z M6.61586834,13.1799956 L6.57351055,18.1163839 L24.717465,18.1564298 C24.740273,18.1564298 24.7598228,18.1378775 24.7598228,18.1163839 L24.7598228,13.2171379 L6.61586834,13.1799956 Z" id="Fill-3" fill="#000000"></path>
                <path d="M9.33333333,17.3333333 L11.8136426,17.3333333 L11.8136426,14.6666667 L9.33333333,14.6666667 L9.33333333,17.3333333 Z M22.0773847,16.6334968 L15.2317643,16.6334968 C14.9063562,16.6334968 14.6425953,16.3497563 14.6425953,15.9999393 C14.6425953,15.6500817 14.9063562,15.3665032 15.2317643,15.3665032 L22.0773847,15.3665032 C22.4027551,15.3665032 22.6666667,15.6500817 22.6666667,15.9999393 C22.6666667,16.3497563 22.4027551,16.6334968 22.0773847,16.6334968 Z" id="Fill-4" fill="#6462F3"></path>
                <path d="M24.717465,28 L6.61586834,28 C5.90949461,28 5.33333333,27.4530122 5.33333333,26.7824052 L5.33333333,21.8842615 C5.33333333,21.2136545 5.90949461,20.6666667 6.61586834,20.6666667 L24.717465,20.6666667 C25.4238387,20.6666667 26,21.2136545 26,21.8842615 L26,26.7824052 C26,27.4530122 25.4238387,28 24.717465,28 Z M6.61586834,21.8440485 L6.57351055,26.7824052 L24.717465,26.822505 C24.740273,26.822505 24.7598228,26.8040583 24.7598228,26.7824052 L24.7598228,21.8842615 L6.61586834,21.8440485 Z" id="Fill-5" fill="#000000"></path>
                <path d="M9.33333333,25.3333333 L11.8136426,25.3333333 L11.8136426,22.6666667 L9.33333333,22.6666667 L9.33333333,25.3333333 Z M22.0773847,24.6301768 L15.2317643,24.6301768 C14.9063562,24.6301768 14.6425953,24.3465982 14.6425953,23.9965788 C14.6425953,23.6467617 14.9063562,23.3631832 15.2317643,23.3631832 L22.0773847,23.3631832 C22.4027551,23.3631832 22.6666667,23.6467617 22.6666667,23.9965788 C22.6666667,24.3465982 22.4027551,24.6301768 22.0773847,24.6301768 Z" id="Fill-6" fill="#6462F3"></path>
            </g>
        </g>
    </g>
</svg>