<?xml version="1.0" encoding="UTF-8"?>
<svg width="31px" height="32px" viewBox="0 0 31 32" version="1.1" xmlns="http://www.w3.org/2000/svg" xmlns:xlink="http://www.w3.org/1999/xlink">
    <title>iops-demand</title>
    <defs>
        <polygon id="path-1" points="0.00242199983 0.0300558207 20.3865781 0.0300558207 20.3865781 20.4208721 0.00242199983 20.4208721"></polygon>
    </defs>
    <g id="页面-1" stroke="none" stroke-width="1" fill="none" fill-rule="evenodd">
        <g id="图标" transform="translate(-199.000000, -40.000000)">
            <g id="iops-demand" transform="translate(199.000000, 40.000000)">
                <path d="M25.2724711,28.5957447 L5.36602301,28.5957447 C4.27264951,28.5957447 3.40425532,27.69706 3.40425532,26.6025807 L3.40425532,5.39741925 C3.40425532,4.2863878 4.2887447,3.40425532 5.36602301,3.40425532 L25.2724711,3.40425532 C26.3658054,3.40425532 27.2340426,4.30274058 27.2340426,5.39741925 L27.2340426,26.586228 C27.2340426,27.69706 26.3658054,28.5957447 25.2724711,28.5957447 Z M5.36602301,4.92362752 C5.10869631,4.92362752 4.89969443,5.13597428 4.89969443,5.39741925 L4.89969443,26.586228 C4.89969443,26.8476331 5.10869631,27.0600197 5.36602301,27.0600197 L25.2724711,27.0600197 C25.5296408,27.0600197 25.7387997,26.8476331 25.7387997,26.586228 L25.7387997,5.39741925 C25.7387997,5.13597428 25.5296408,4.92362752 25.2724711,4.92362752 L5.36602301,4.92362752 Z" id="Fill-1" fill="#424242"></path>
                <path d="M23.9594569,25.1914894 L6.67825496,25.1914894 C6.3779117,25.1914894 6.12765957,24.951867 6.12765957,24.6640469 L6.12765957,7.3359921 C6.12765957,7.04832816 6.3779117,6.80851064 6.67825496,6.80851064 L23.9594569,6.80851064 C24.2598002,6.80851064 24.5098487,7.04832816 24.5098487,7.3359921 L24.5098487,24.6480461 C24.5265457,24.951867 24.2763343,25.1914894 23.9594569,25.1914894 Z" id="Fill-2" fill="#D7D7FF"></path>
                <path d="M21.9200806,23.1489362 L9.38281982,23.1489362 C9.09282475,23.1489362 8.85106383,22.9054611 8.85106383,22.6132513 L8.85106383,9.38659019 C8.85106383,9.09453893 9.09282475,8.85106383 9.38281982,8.85106383 L21.9362111,8.85106383 C22.2263635,8.85106383 22.4680851,9.09453893 22.4680851,9.38659019 L22.4680851,22.6132513 C22.4680851,22.9054611 22.2263635,23.1489362 21.9200806,23.1489362 Z" id="Fill-3" fill="#6462F3"></path>
                <path d="M29.8849442,13.0733554 L26.6636474,13.0733554 C26.2470218,13.0733554 25.9104502,12.7384959 25.9104502,12.3238339 C25.9104502,11.9092886 26.2470218,11.5744681 26.6636474,11.5744681 L29.8849442,11.5744681 C30.3017264,11.5744681 30.6382979,11.9092886 30.6382979,12.3238339 C30.6382979,12.7384959 30.3017264,13.0733554 29.8849442,13.0733554 Z M29.8849442,17.1233954 L26.6636474,17.1233954 C26.2470218,17.1233954 25.9104502,16.7885359 25.9104502,16.3738738 C25.9104502,15.9593286 26.2470218,15.624508 26.6636474,15.624508 L29.8849442,15.624508 C30.3017264,15.624508 30.6382979,15.9593286 30.6382979,16.3738738 C30.6382979,16.7885359 30.3017264,17.1233954 29.8849442,17.1233954 Z M29.8849442,21.1732796 L26.6636474,21.1732796 C26.2470218,21.1732796 25.9104502,20.8384201 25.9104502,20.4239138 C25.9104502,20.0093685 26.2470218,19.674548 26.6636474,19.674548 L29.8849442,19.674548 C30.3017264,19.674548 30.6382979,20.0093685 30.6382979,20.4239138 C30.6382979,20.8384201 30.3017264,21.1732796 29.8849442,21.1732796 Z M19.4517361,32 C19.0351105,32 18.698539,31.6651405 18.698539,31.2504785 L18.698539,27.918039 C18.698539,27.5034937 19.0351105,27.1686732 19.4517361,27.1686732 C19.8684008,27.1686732 20.2049332,27.5034937 20.2049332,27.918039 L20.2049332,31.2504785 C20.1890476,31.6651405 19.8524761,32 19.4517361,32 Z M15.5413323,32 C15.1246676,32 14.7881352,31.6651405 14.7881352,31.2504785 L14.7881352,27.918039 C14.7881352,27.5034937 15.1246676,27.1686732 15.5413323,27.1686732 C15.9579579,27.1686732 16.2945294,27.5034937 16.2945294,27.918039 L16.2945294,31.2504785 C16.2945294,31.6651405 15.9579579,32 15.5413323,32 Z M11.6468141,32 C11.2301494,32 10.893617,31.6651405 10.893617,31.2504785 L10.893617,27.918039 C10.893617,27.5034937 11.2301494,27.1686732 11.6468141,27.1686732 C12.0635962,27.1686732 12.4001286,27.5034937 12.4001286,27.918039 L12.4001286,31.2504785 C12.3840865,31.6651405 12.0475541,32 11.6468141,32 Z" id="Fill-4" fill="#424242"></path>
                <g id="编组">
                    <mask id="mask-2" fill="white">
                        <use xlink:href="#path-1"></use>
                    </mask>
                    <g id="Clip-6"></g>
                    <path d="M19.6095198,4.84947173 C19.1796956,4.84947173 18.8324615,4.5154405 18.8324615,4.10195939 L18.8324615,0.777568158 C18.8324615,0.364087048 19.1796956,0.0300558207 19.6095198,0.0300558207 C20.0393844,0.0300558207 20.3865781,0.364087048 20.3865781,0.777568158 L20.3865781,4.10195939 C20.3701892,4.53136154 20.0229552,4.84947173 19.6095198,4.84947173 Z M15.5752351,4.84947173 C15.1453704,4.84947173 14.7981768,4.5154405 14.7981768,4.10195939 L14.7981768,0.777568158 C14.7981768,0.364087048 15.1453704,0.0300558207 15.5752351,0.0300558207 C16.0050593,0.0300558207 16.3522933,0.364087048 16.3522933,0.777568158 L16.3522933,4.10195939 C16.3522933,4.53136154 16.0050593,4.84947173 15.5752351,4.84947173 Z M11.5573392,4.84947173 C11.1274746,4.84947173 10.7802809,4.5154405 10.7802809,4.10195939 L10.7802809,0.777568158 C10.7802809,0.38000809 11.1274746,0.0460156945 11.5409099,0.0460156945 C11.9707745,0.0460156945 12.3179682,0.38000809 12.3179682,0.793528032 L12.3179682,4.1177251 C12.3179682,4.53136154 11.9707745,4.84947173 11.5573392,4.84947173 Z" id="Fill-5" fill="#424242" mask="url(#mask-2)"></path>
                    <path d="M4.08397612,12.3409821 L0.777058279,12.3409821 C0.347234043,12.3409821 0,12.0069509 0,11.5933145 C0,11.1797945 0.347234043,10.8458021 0.777058279,10.8458021 L4.10052645,10.8458021 C4.53035069,10.8458021 4.87758473,11.1797945 4.87758473,11.5933145 C4.8610344,12.0069509 4.51380035,12.3409821 4.08397612,12.3409821 Z M4.08397612,16.3810048 L0.777058279,16.3810048 C0.347234043,16.3810048 0,16.0469735 0,15.6333371 C0,15.2198172 0.347234043,14.8858248 0.777058279,14.8858248 L4.10052645,14.8858248 C4.53035069,14.8858248 4.87758473,15.2198172 4.87758473,15.6333371 C4.87758473,16.0469735 4.51380035,16.3810048 4.08397612,16.3810048 Z M4.08397612,20.4208721 L0.777058279,20.4208721 C0.347234043,20.4208721 0,20.0868409 0,19.6733598 C0,19.2598398 0.347234043,18.9258474 0.777058279,18.9258474 L4.10052645,18.9258474 C4.53035069,18.9258474 4.87758473,19.2598398 4.87758473,19.6733598 C4.8610344,20.0868409 4.51380035,20.4208721 4.08397612,20.4208721 Z" id="Fill-7" fill="#424242" mask="url(#mask-2)"></path>
                </g>
                <path d="M10.212766,17.1375655 L10.6784242,16.5879088 C10.9675494,16.855375 11.3528799,17.0187198 11.7222153,17.0187198 C12.1396926,17.0187198 12.3805584,16.8405057 12.3805584,16.5730395 C12.3805584,16.2759435 12.1396926,16.1868365 11.7704747,16.0383973 L11.2243711,15.815539 C10.806933,15.6520491 10.3894558,15.3252508 10.3894558,14.7608337 C10.3894558,14.12207 10.9675494,13.6170213 11.8024647,13.6170213 C12.2842356,13.6170213 12.749933,13.7952354 13.0871609,14.12207 L12.6696836,14.6122131 C12.4127444,14.4042604 12.1396926,14.2854148 11.8024647,14.2854148 C11.4492027,14.2854148 11.2084545,14.433999 11.2084545,14.7013202 C11.2084545,14.9836919 11.4974229,15.0876683 11.8507241,15.2212382 L12.3805584,15.4440964 C12.8784419,15.6371798 13.1995571,15.9491452 13.1995571,16.5136711 C13.1995571,17.1524348 12.6375368,17.7021277 11.6900685,17.7021277 C11.1602343,17.7021277 10.6142874,17.4941387 10.212766,17.1375655 Z M13.5528583,17.1375655 L14.0185558,16.5879088 C14.3075242,16.855375 14.6929723,17.0187198 15.0621901,17.0187198 C15.479785,17.0187198 15.72069,16.8405057 15.72069,16.5730395 C15.72069,16.2759435 15.479785,16.1868365 15.1104103,16.0383973 L14.5644635,15.815539 C14.1470254,15.6520491 13.7294306,15.3252508 13.7294306,14.7608337 C13.7294306,14.12207 14.3075242,13.6170213 15.1425963,13.6170213 C15.6242104,13.6170213 16.0899078,13.7952354 16.4270965,14.12207 L16.0096584,14.6122131 C15.75268,14.4042604 15.479785,14.2854148 15.1425963,14.2854148 C14.7892951,14.2854148 14.5483901,14.433999 14.5483901,14.7013202 C14.5483901,14.9836919 14.8373585,15.0876683 15.1906597,15.2212382 L15.72069,15.4440964 C16.2183774,15.6371798 16.5394927,15.9491452 16.5394927,16.5136711 C16.5394927,17.1524348 15.9774724,17.7021277 15.0301609,17.7021277 C14.5001698,17.7021277 13.954223,17.4941387 13.5528583,17.1375655 Z M17.278242,13.691259 L18.4022825,13.691259 C19.6547926,13.691259 20.4255319,14.3151534 20.4255319,15.6520491 C20.4255319,16.9742207 19.6547926,17.6426142 18.4503851,17.6426142 L17.278242,17.6426142 L17.278242,13.691259 Z M18.3540623,17.0038505 C19.1088458,17.0038505 19.590499,16.6027781 19.590499,15.6520491 C19.590499,14.6865959 19.1088458,14.3300227 18.3540623,14.3300227 L18.0972407,14.3300227 L18.0972407,17.0038505 L18.3540623,17.0038505 Z" id="Fill-8" fill="#FFFFFF"></path>
            </g>
        </g>
    </g>
</svg>