<?xml version="1.0" encoding="UTF-8"?>
<svg width="31px" height="32px" viewBox="0 0 31 32" version="1.1" xmlns="http://www.w3.org/2000/svg" xmlns:xlink="http://www.w3.org/1999/xlink">
    <title>sharpicons_database-center</title>
    <defs>
        <polygon id="path-1" points="0.00224589348 0.0303377203 30.6638949 0.0303377203 30.6638949 31.0961253 0.00224589348 31.0961253"></polygon>
    </defs>
    <g id="页面-1" stroke="none" stroke-width="1" fill="none" fill-rule="evenodd">
        <g id="图标" transform="translate(-759.000000, -40.000000)">
            <g id="sharpicons_database-center" transform="translate(759.000000, 40.000000)">
                <path d="M22.3648021,8.46076941 C22.3648021,6.44337642 17.6440389,4.79989363 11.8102591,4.79989363 C10.8892168,4.79989363 9.99684704,4.83941041 9.15252707,4.92786187 L9.14285714,4.77048669 C10.1311017,3.1073224 14.3817862,1.84782122 19.4862733,1.84782122 C25.3200157,1.84782122 30.0408163,3.49115024 30.0408163,5.5085048 C30.0408163,7.17166909 26.8552485,8.57878157 22.4798668,9.03149469 L22.3648021,9.03149469 L22.3648021,8.46076941 Z" id="Fill-1" fill="#6462F3"></path>
                <g id="编组" transform="translate(0.000000, 0.541699)">
                    <mask id="mask-2" fill="white">
                        <use xlink:href="#path-1"></use>
                    </mask>
                    <g id="Clip-3"></g>
                    <path d="M22.0397388,7.52500606 C22.0397388,9.52479273 17.3251218,11.1461163 11.4989372,11.1461163 C5.67279004,11.1461163 0.958322748,9.52479273 0.958322748,7.52500606 C0.958322748,5.84547194 4.30257043,4.4377638 8.84466541,4.03973291 C9.68788611,3.95247404 10.5790941,3.91349007 11.4989372,3.91349007 C17.3251218,3.91349007 22.0397388,5.53481368 22.0397388,7.52500606 Z" id="Fill-2" fill="#D7D7FF" mask="url(#mask-2)"></path>
                    <path d="M19.1649577,0.0303377203 C14.7876739,0.0303377203 9.80474744,0.993370728 8.19781065,3.13017013 C4.13487705,3.56983954 0,4.92896941 0,7.52500606 L0,26.5139161 C0,29.5234179 5.78493499,31.0961253 11.4989372,31.0961253 C15.9711474,31.0961253 20.902306,30.1254321 22.4652233,28.0051667 C26.4926343,27.5653835 30.6638949,26.1945357 30.6638949,23.601457 L30.6638949,4.61254699 C30.6638949,1.60308306 24.8789599,0.0303377203 19.1649577,0.0303377203 Z M21.081416,26.5139161 C21.081416,26.5557063 21.0738174,26.5915427 21.0402039,26.6614712 C20.5793091,27.7071365 17.0060552,29.1545492 11.4989372,29.1545492 C5.55405714,29.1545492 1.91645834,27.4459667 1.91645834,26.5139161 L1.91645834,22.8249631 C4.08692723,24.1043806 7.80302001,24.7665392 11.4989372,24.7665392 C15.1948918,24.7665392 18.9109846,24.1043806 21.081416,22.8249631 L21.081416,26.5139161 Z M21.081416,20.18433 C21.081416,21.0812647 17.6988384,22.8249631 11.4989372,22.8249631 C5.29903594,22.8249631 1.91645834,21.0812647 1.91645834,20.18433 L1.91645834,16.5001172 C4.08692723,17.7816204 7.80302001,18.4465853 11.4989372,18.4465853 C15.1948918,18.4465853 18.9109846,17.7824927 21.081416,16.5001172 L21.081416,20.18433 Z M21.081416,13.8545922 C21.081416,14.7885768 17.4439669,16.5050092 11.4989372,16.5050092 C5.55405714,16.5050092 1.91645834,14.7885768 1.91645834,13.8545922 L1.91645834,10.1703794 C4.08692723,11.4529065 7.80302001,12.1168475 11.4989372,12.1168475 C15.1948918,12.1168475 18.9109846,11.4529065 21.081416,10.1703794 L21.081416,13.8545922 Z M11.4989372,10.1752714 C5.55405714,10.1752714 1.91645834,8.4598629 1.91645834,7.52500606 C1.91645834,6.88226353 4.03426103,5.43572311 8.94232434,5.00568592 C9.71861742,4.92510135 10.5790941,4.88437296 11.4989372,4.88437296 C17.4439669,4.88437296 21.081416,6.59295544 21.081416,7.52500606 C21.081416,8.4598629 17.4439669,10.1752714 11.4989372,10.1752714 Z M28.7474365,23.601457 C28.7474365,24.1781391 26.9938429,25.4324143 22.9978744,25.9847883 L22.9978744,21.6181285 C25.1319223,21.3405005 27.2716599,20.7872163 28.7474365,19.9202022 L28.7474365,23.601457 Z M28.7474365,17.2718709 C28.7474365,17.8398309 27.0005806,19.1066583 22.9978744,19.6629004 L22.9978744,15.2915004 C25.1443496,15.0118245 27.2764886,14.4594125 28.7474365,13.5963802 L28.7474365,17.2718709 Z M28.7474365,10.9421331 C28.7474365,11.517943 26.9957519,12.7770722 22.9978744,13.3322904 L22.9978744,8.9666166 C25.140569,8.68504463 27.2745796,8.13069864 28.7474365,7.26577024 L28.7474365,10.9421331 Z M22.9366363,7.01631833 C22.34533,4.4387877 17.2733539,3.05151959 12.0911419,2.95242901 C13.7221846,2.40107887 16.1071363,1.97191389 19.1649577,1.97191389 C25.1099875,1.97191389 28.7474365,3.68064807 28.7474365,4.61254699 C28.7474365,5.18922913 26.980405,6.46390637 22.9366363,7.01631833 Z" id="Fill-4" fill="#424242" mask="url(#mask-2)"></path>
                </g>
            </g>
        </g>
    </g>
</svg>