<?xml version="1.0" encoding="UTF-8"?>
<svg width="32px" height="32px" viewBox="0 0 32 32" version="1.1" xmlns="http://www.w3.org/2000/svg" xmlns:xlink="http://www.w3.org/1999/xlink">
    <title>sharpicons_phone-jack</title>
    <defs>
        <polygon id="path-1" points="0 0 31.3043478 0 31.3043478 31.3019022 0 31.3019022"></polygon>
    </defs>
    <g id="页面-1" stroke="none" stroke-width="1" fill="none" fill-rule="evenodd">
        <g id="图标" transform="translate(-801.000000, -40.000000)">
            <g id="sharpicons_phone-jack" transform="translate(801.000000, 40.000000)">
                <g id="编组" transform="translate(0.000000, 0.669385)">
                    <mask id="mask-2" fill="white">
                        <use xlink:href="#path-1"></use>
                    </mask>
                    <g id="Clip-2"></g>
                    <path d="M30.260788,2.08691576 L30.260788,29.2174321 C30.260788,29.7912636 29.7912636,30.260788 29.2174321,30.260788 L2.08691576,30.260788 C1.51308424,30.260788 1.04355978,29.7912636 1.04355978,29.2174321 L1.04355978,2.08691576 C1.04355978,1.51308424 1.51308424,1.04355978 2.08691576,1.04355978 L29.2174321,1.04355978 C29.7912636,1.04355978 30.260788,1.51308424 30.260788,2.08691576 Z M26.6087364,20.3477853 L26.6087364,4.69561141 L4.69561141,4.69561141 L4.69561141,20.3477853 L8.86964674,20.3477853 L8.86964674,22.4347011 L13.0434783,22.4347011 L13.0434783,24.5218207 L18.2608696,24.5218207 L18.2608696,22.4347011 L22.4347011,22.4347011 L22.4347011,20.3477853 L26.6087364,20.3477853 Z" id="Fill-1" fill="#D7D7FF" mask="url(#mask-2)"></path>
                    <path d="M29.2174321,0 L2.08691576,0 C0.93607337,0 0,0.93607337 0,2.08691576 L0,29.2174321 C0,30.3682745 0.93607337,31.3043478 2.08691576,31.3043478 L29.2174321,31.3043478 C30.3682745,31.3043478 31.3043478,30.3682745 31.3043478,29.2174321 L31.3043478,2.08691576 C31.3043478,0.93607337 30.3682745,0 29.2174321,0 Z M29.2142527,29.2174321 L2.08691576,29.2174321 L2.08691576,2.08691576 L29.2174321,2.08691576 L29.2142527,29.2174321 Z" id="Fill-3" fill="#424242" mask="url(#mask-2)"></path>
                </g>
                <path d="M4.69568923,21.5390319 L8.34791872,21.5390319 L8.34791872,23.1041678 C8.34791872,23.3923879 8.58147685,23.6259477 8.86969491,23.6259477 L12.5217206,23.6259477 L12.5217206,25.1912873 C12.5217206,25.4793036 12.7553195,25.7128634 13.0434968,25.7128634 L18.260851,25.7128634 C18.5490283,25.7128634 18.7826272,25.4793036 18.7826272,25.1912873 L18.7826272,23.6259477 L22.4346529,23.6259477 C22.722871,23.6259477 22.9564291,23.3923879 22.9564291,23.1041678 L22.9564291,21.5390319 L26.6086586,21.5390319 C26.8968359,21.5390319 27.1304348,21.3054721 27.1304348,21.017252 L27.1304348,5.3650781 C27.1304348,5.07689875 26.8968359,4.8432982 26.6086586,4.8432982 L4.69568923,4.8432982 C4.40751193,4.8432982 4.17391304,5.07689875 4.17391304,5.3650781 L4.17391304,21.017252 C4.17391304,21.3054721 4.40751193,21.5390319 4.69568923,21.5390319 Z M13.565273,24.6695074 L17.7390749,24.6695074 L17.7390749,23.6259477 L13.565273,23.6259477 L13.565273,24.6695074 Z M9.39126729,22.5825917 L21.9130805,22.5825917 L21.9130805,21.5390319 L9.39126729,21.5390319 L9.39126729,22.5825917 Z M5.21746541,20.4954721 L26.0868824,20.4954721 L26.0868824,5.88685799 L5.21746541,5.88685799 L5.21746541,20.4954721 Z" id="Fill-4" fill="#6462F3"></path>
                <path d="M9.39118789,7.6259069 C8.81498902,7.6259069 8.34782609,8.12421125 8.34782609,8.73903734 L8.34782609,12.0782112 C8.34782609,12.6928199 8.81498902,13.1911243 9.39118789,13.1911243 C9.96759056,13.1911243 10.4347535,12.6928199 10.4347535,12.0782112 L10.4347535,8.73903734 C10.4347535,8.12421125 9.96759056,7.6259069 9.39118789,7.6259069 Z M21.9131599,7.6259069 C21.3367573,7.6259069 20.8695943,8.12421125 20.8695943,8.73903734 L20.8695943,12.0782112 C20.8695943,12.6928199 21.3367573,13.1911243 21.9131599,13.1911243 C22.4893588,13.1911243 22.9565217,12.6928199 22.9565217,12.0782112 L22.9565217,8.73903734 C22.9565217,8.12421125 22.4893588,7.6259069 21.9131599,7.6259069 Z M18.7826669,7.6259069 C18.2062643,7.6259069 17.7391013,8.12421125 17.7391013,8.73903734 L17.7391013,12.0782112 C17.7391013,12.6928199 18.2062643,13.1911243 18.7826669,13.1911243 C19.3589066,13.1911243 19.8260287,12.6928199 19.8260287,12.0782112 L19.8260287,8.73903734 C19.8260287,8.12421125 19.3589066,7.6259069 18.7826669,7.6259069 Z M15.6521739,7.6259069 C15.0759343,7.6259069 14.6086083,8.12421125 14.6086083,8.73903734 L14.6086083,12.0782112 C14.6086083,12.6928199 15.0759343,13.1911243 15.6521739,13.1911243 C16.2284135,13.1911243 16.6957395,12.6928199 16.6957395,12.0782112 L16.6957395,8.73903734 C16.6957395,8.12421125 16.2284135,7.6259069 15.6521739,7.6259069 Z M12.5216809,7.6259069 C11.9454413,7.6259069 11.4783191,8.12421125 11.4783191,8.73903734 L11.4783191,12.0782112 C11.4783191,12.6928199 11.9454413,13.1911243 12.5216809,13.1911243 C13.0980836,13.1911243 13.5652465,12.6928199 13.5652465,12.0782112 L13.5652465,8.73903734 C13.5652465,8.12421125 13.0980836,7.6259069 12.5216809,7.6259069 Z" id="Fill-5" fill="#6462F3"></path>
            </g>
        </g>
    </g>
</svg>