<svg height="512pt" viewBox="-14 0 512 512" width="512pt" xmlns="http://www.w3.org/2000/svg"><path d="m447.53125 193.769531h-90.878906l-35.875 48.652344h55.054687c13.679688 0 24.765625 11.089844 24.765625 24.765625v205.351562c0 16.269532 13.1875 29.460938 29.460938 29.460938h2.410156c23.355469 0 42.292969-18.9375 42.292969-42.296875v-238.699219c.003906-15.042968-12.191407-27.234375-27.230469-27.234375zm0 0" fill="#ff9d6a"/><path d="m183.253906 242.421875h80.59375l-35.875-48.652344h-57.367187v36.003907c0 6.988281 5.660156 12.648437 12.648437 12.648437zm0 0" fill="#ff9d6a"/><path d="m320.777344 242.421875 35.875-48.652344 14.734375-19.984375c7.34375-9.957031.234375-24.03125-12.136719-24.03125h-29.996094c-3.515625 0-6.363281-2.851562-6.363281-6.367187v-120.097657c0-7.339843-5.953125-13.289062-13.292969-13.289062h-34.570312c-7.339844 0-13.289063 5.949219-13.289063 13.289062v120.097657c0 3.515625-2.851562 6.367187-6.367187 6.367187h-29.996094c-12.371094 0-19.480469 14.070313-12.136719 24.027344l14.734375 19.988281 35.875 48.652344zm0 0" fill="#b1d9ff"/><path d="m400.597656 472.539062v-205.351562c0-13.675781-11.085937-24.765625-24.761718-24.765625h-192.582032c-6.984375 0-12.648437-5.660156-12.648437-12.648437v-64.890626c0-13.550781-10.984375-24.535156-24.535157-24.535156h-111.535156c-13.550781 0-24.535156 10.984375-24.535156 24.535156v300.128907c0 20.425781 16.5625 36.988281 36.988281 36.988281h383.070313c-16.269532 0-29.460938-13.191406-29.460938-29.460938zm0 0" fill="#ffcb78"/><path d="m402.550781 325.199219c-6.085937-1.226563-11.949219 3.421875-11.949219 9.800781 0 10.976562 15.144532 13.785156 19.230469 3.820312 2.46875-5.925781-1.277343-12.496093-7.28125-13.621093zm0 0"/><path d="m447.53125 183.769531h-71.082031l2.984375-4.050781c12.203125-16.550781.375-39.964844-20.1875-39.964844h-26.359375v-116.464844c0-12.839843-10.449219-23.289062-23.289063-23.289062h-34.574218c-12.839844 0-23.289063 10.449219-23.289063 23.289062v116.464844h-26.359375c-9.519531 0-18.097656 5.277344-22.386719 13.773438-8.320312 16.464844 4.644531 29 5.1875 30.242187h-27.570312v-18.886719c0-19.042968-15.496094-34.535156-34.539063-34.535156h-111.53125c-19.042968 0-34.535156 15.492188-34.535156 34.535156v300.128907c0 25.910156 21.078125 46.988281 46.992188 46.988281 15.625 0 401.070312 0 385.476562 0 28.835938 0 52.296875-23.460938 52.296875-52.296875v-238.699219c0-20.53125-16.703125-37.234375-37.234375-37.234375zm-222.15625-24.015625h29.996094c9.023437 0 16.367187-7.34375 16.367187-16.367187v-120.097657c0-1.8125 1.476563-3.289062 3.289063-3.289062h34.570312c1.816406 0 3.292969 1.476562 3.292969 3.289062v120.097657c0 9.023437 7.339844 16.367187 16.363281 16.367187h29.996094c4.175781 0 6.566406 4.734375 4.089844 8.097656-7.800782 10.578126-42.484375 57.613282-47.613282 64.570313h-46.828124c-18.105469-24.554687-31.664063-42.941406-47.613282-64.570313-2.476562-3.363281-.085937-8.097656 4.089844-8.097656zm-2.453125 44.015625 21.128906 28.652344c-63.910156-.171875-61 .414063-62.277343-.453125-2.128907-1.4375-.734376-2.140625-1.167969-28.199219zm241.84375 255.933594c0 17.808594-14.488281 32.296875-32.296875 32.296875h-2.410156c-10.730469 0-19.460938-8.730469-19.460938-19.460938v-97.539062c0-5.523438-4.476562-10-10-10-5.523437 0-10 4.476562-10 10 .035156 103.460938-.070312 97.398438.078125 99.921875.371094 6.1875 2.203125 12.050781 5.0625 17.078125h-348.75c-14.882812 0-26.988281-12.109375-26.988281-26.988281v-300.128907c0-8.015624 6.519531-14.535156 14.535156-14.535156h111.53125c8.015625 0 14.539063 6.519532 14.539063 14.535156v64.890626c0 12.488281 10.15625 22.648437 22.648437 22.648437h192.582032c8.140624 0 14.761718 6.625 14.761718 14.765625v27.8125c0 5.523438 4.476563 10 10 10 5.523438 0 10-4.476562 10-10v-27.8125c0-19.167969-15.59375-34.765625-34.761718-34.765625h-35.261719l21.128906-28.652344h85.828125c9.503906 0 17.234375 7.730469 17.234375 17.234375zm0 0"/></svg>