<svg height="511pt" viewBox="-13 1 511 511.999" width="511pt" xmlns="http://www.w3.org/2000/svg"><path d="m432.949219 502h-366.878907v-308.21875h381.941407c15.039062 0 27.230469 12.191406 27.230469 27.230469v238.695312c0 23.355469-18.933594 42.292969-42.292969 42.292969zm0 0" fill="#ff9d6a"/><path d="m371.871094 106.925781-66.933594-90.773437c-6.027344-8.175782-18.25-8.175782-24.277344 0l-66.933594 90.773437c-7.34375 9.957031-.234374 24.03125 12.136719 24.03125h29.996094c3.515625 0 6.363281 2.851563 6.363281 6.367188v133.378906h61.148438v-133.378906c0-3.515625 2.851562-6.367188 6.367187-6.367188h29.992188c12.375 0 19.480469-14.074219 12.140625-24.03125zm0 0" fill="#b1d9ff"/><path d="m401.078125 472.539062v-205.34375c0-13.675781-11.085937-24.761718-24.761719-24.761718h-192.574218c-6.984376 0-12.644532-5.664063-12.644532-12.648438v-64.886718c0-13.550782-10.984375-24.535157-24.535156-24.535157h-111.53125c-13.546875 0-24.53125 10.984375-24.53125 24.535157v300.109374c0 20.429688 16.558594 36.988282 36.988281 36.988282h383.050781c-16.269531.003906-29.460937-13.1875-29.460937-29.457032zm0 0" fill="#ffcb78"/><path d="m399.125 325.207031c-6.238281 1.269531-9.683594 7.847657-7.28125 13.617188 2.039062 4.980469 7.847656 7.578125 13.058594 5.410156 3.171875-1.320313 5.320312-4.027344 5.980468-7.277344 1.414063-6.964843-4.796874-13.152343-11.757812-11.75zm0 0"/><path d="m448.011719 183.78125h-114.636719v-42.824219h26.355469c9.519531 0 18.097656-5.277343 22.386719-13.773437 4.292968-8.492188 3.449218-18.527344-2.199219-26.1875l-66.933594-90.777344c-10.367187-14.058594-30.648437-13.183594-40.371094 0l-66.9375 90.777344c-5.644531 7.660156-6.488281 17.695312-2.199219 26.1875 4.292969 8.496094 12.871094 13.773437 22.386719 13.773437h26.359375v42.824219h-71.128906v-18.882812c0-19.042969-15.492188-34.535157-34.535156-34.535157h-111.523438c-19.042968 0-34.535156 15.492188-34.535156 34.535157v300.113281c0 25.910156 21.078125 46.988281 46.988281 46.988281h385.460938c28.835937 0 52.292969-23.460938 52.292969-52.292969v-238.695312c0-20.527344-16.703126-37.230469-37.230469-37.230469zm-222.144531-62.824219c-4.175782 0-6.570313-4.734375-4.089844-8.09375l66.933594-90.777343c2.027343-2.746094 6.136718-2.769532 8.179687 0l66.933594 90.777343c2.476562 3.359375.085937 8.097657-4.089844 8.097657h-29.992187c-9.023438 0-16.367188 7.339843-16.367188 16.363281v95.109375h-41.148438c0-13.78125 0-81.273438 0-95.109375 0-9.023438-7.34375-16.363281-16.367187-16.363281h-29.992187zm26.359374 82.824219v28.652344c-72.261718-.171875-68.683593.410156-69.960937-.453125-2.128906-1.4375-.734375-2.140625-1.167969-28.199219zm213.015626 255.925781c0 17.804688-14.484376 32.292969-32.292969 32.292969h-2.410157c-10.730468 0-19.460937-8.730469-19.460937-19.460938v-97.535156c0-5.523437-4.476563-10-10-10-5.519531 0-10 4.476563-10 10 1.070313 102.625-3.023437 102.671875 5.144531 116.996094h-348.734375c-14.882812 0-26.988281-12.109375-26.988281-26.988281v-300.113281c0-8.015626 6.519531-14.535157 14.535156-14.535157h111.527344c8.015625 0 14.535156 6.519531 14.535156 14.535157v64.886718c0 12.488282 10.15625 22.648438 22.644532 22.648438h192.574218c8.140625 0 14.761719 6.621094 14.761719 14.761718v27.8125c0 5.523438 4.480469 10 10 10 5.523437 0 10-4.476562 10-10v-27.8125c0-19.167968-15.59375-34.761718-34.761719-34.761718h-42.941406v-28.652344h114.636719c9.503906 0 17.230469 7.730469 17.230469 17.230469zm0 0"/></svg>