<?xml version="1.0" encoding="UTF-8"?>
<svg width="32px" height="24px" viewBox="0 0 32 24" version="1.1" xmlns="http://www.w3.org/2000/svg" xmlns:xlink="http://www.w3.org/1999/xlink">
    <title>resource-maximization</title>
    <g id="页面-1" stroke="none" stroke-width="1" fill="none" fill-rule="evenodd">
        <g id="图标" transform="translate(-364.000000, -42.000000)">
            <g id="resource-maximization" transform="translate(364.000000, 42.000000)">
                <path d="M27.1304348,21.9624236 C27.1304348,22.5075452 26.6512794,22.9565217 26.0564798,22.9565217 L1.76944585,22.9565217 C1.1746462,22.9565217 0.695652174,22.5075452 0.695652174,21.9624236 L0.695652174,5.86366334 C0.695652174,5.31850265 1.1746462,4.86956522 1.76944585,4.86956522 L26.0564798,4.86956522 C26.6512794,4.86956522 27.1304348,5.31850265 27.1304348,5.86366334 L27.1304348,21.9624236 Z M0.712028727,22.9565217 L15.036471,22.9565217 L15.036471,13.8008678 L0.712028727,13.8008678 L0.712028727,22.9565217 Z" id="Fill-1" fill="#D7D7FF"></path>
                <path d="M30.2041614,23.6521739 L16.310228,23.6521739 C15.901985,23.6521739 15.5591518,23.3250348 15.5591518,22.8998178 C15.5591518,22.4908141 15.8856425,22.147302 16.310228,22.147302 L30.2041614,22.147302 C30.3836894,22.147302 30.5143096,22.0328113 30.5143096,21.8855348 L30.5143096,1.75026614 C30.5143096,1.60298965 30.3673071,1.48849894 30.2041614,1.48849894 L1.79587851,1.48849894 C1.61635045,1.48849894 1.48569037,1.60298965 1.48569037,1.75026614 L1.48569037,11.826087 C1.48569037,12.234931 1.15919962,12.578443 0.734773597,12.578443 C0.310148278,12.578443 0,12.234931 0,11.826087 L0,1.75026614 C0,0.78514186 0.816326531,0 1.79587851,0 L30.2041614,0 C31.2000159,0 32,0.78514186 32,1.75026614 L32,21.9019477 C32,22.8670321 31.1836735,23.6521739 30.2041614,23.6521739 Z" id="Fill-2" fill="#424242"></path>
                <path d="M12.8491097,22.9565217 L1.06377033,22.9565217 C0.862934023,22.9565217 0.695652174,22.7944759 0.695652174,22.5999734 L0.695652174,15.6610545 C0.695652174,15.4663937 0.862934023,15.3043478 1.06377033,15.3043478 L12.8491097,15.3043478 C13.0501095,15.3043478 13.2173913,15.4663937 13.2173913,15.6610545 L13.2173913,22.5999734 C13.2173913,22.7944759 13.0501095,22.9565217 12.8491097,22.9565217 Z" id="Fill-3" fill="#6462F3"></path>
                <path d="M12.0698022,23.6521739 L1.84283392,23.6521739 C0.830116325,23.6521739 0,22.8461219 0,21.8628493 L0,16.3980202 C0,15.4147477 0.830116325,14.6086957 1.84283392,14.6086957 L12.0698022,14.6086957 C13.0826819,14.6086957 13.9127982,15.4147477 13.9127982,16.3980202 L13.9127982,21.8628493 C13.9294168,22.8461219 13.0993005,23.6521739 12.0698022,23.6521739 Z M1.84283392,16.0595185 C1.66027318,16.0595185 1.51078739,16.2046244 1.51078739,16.3818842 L1.51078739,21.8467133 C1.51078739,22.0239732 1.66027318,22.1690791 1.84283392,22.1690791 L12.0698022,22.1690791 C12.2525251,22.1690791 12.4020108,22.0239732 12.4020108,21.8467133 L12.4020108,16.3818842 C12.4020108,16.2046244 12.2525251,16.0595185 12.0698022,16.0595185 L1.84283392,16.0595185 Z" id="Fill-4" fill="#424242"></path>
                <path d="M15.3595433,13.2173913 C15.1263568,13.2173913 14.9098032,13.124218 14.7598627,12.9377198 C14.5099619,12.6271044 14.576697,12.1766342 14.9098032,11.9436063 L21.7392325,7.09749702 C22.0723387,6.86450698 22.555426,6.92658457 22.8053268,7.23735171 C23.055187,7.54796717 22.9886552,7.99843732 22.6553457,8.23146527 L15.825957,13.0775745 C15.6759759,13.1707478 15.5094838,13.2173913 15.3595433,13.2173913 Z" id="Fill-5" fill="#424242"></path>
                <path d="M19.5982797,8.34782609 C19.1731128,8.34782609 18.8010268,7.95147711 18.7832466,7.42983664 C18.7655097,6.90839989 19.119902,6.47028708 19.5629789,6.44940517 L23.5144182,6.26162071 C23.9750589,6.24073879 24.329408,6.65791875 24.3471881,7.17955922 C24.3649251,7.70099597 24.0105328,8.13910878 23.567629,8.1599907 L19.6337968,8.34782609 L19.5982797,8.34782609 Z" id="Fill-6" fill="#424242"></path>
                <path d="M22.3333572,11.1304348 C22.2480312,11.1304348 22.1625384,11.1137688 22.0772124,11.0804368 C21.6673808,10.9305242 21.4625484,10.4976963 21.6162769,10.1147038 L22.845605,6.76817358 C22.9820349,6.36851508 23.4431788,6.16876712 23.8357535,6.30197308 C24.2455851,6.45188566 24.4504175,6.88471355 24.2968557,7.26770607 L23.0675276,10.6142363 C22.9480212,10.9305242 22.657696,11.1304348 22.3333572,11.1304348 Z" id="Fill-7" fill="#424242"></path>
            </g>
        </g>
    </g>
</svg>