<?xml version="1.0" encoding="UTF-8"?>
<svg width="32px" height="32px" viewBox="0 0 32 32" version="1.1" xmlns="http://www.w3.org/2000/svg" xmlns:xlink="http://www.w3.org/1999/xlink">
    <title>shitupeizhi</title>
    <g id="页面-1" stroke="none" stroke-width="1" fill="none" fill-rule="evenodd">
        <g id="图标" transform="translate(-716.000000, -40.000000)">
            <g id="shitupeizhi" transform="translate(716.000000, 40.000000)">
                <path d="M4.8597631,3.24063046 C3.70939866,3.24063046 2.77694544,4.17364504 2.77694544,5.32459638 L2.77694544,26.8378072 C2.77694544,27.9887585 3.70939866,28.9217731 4.8597631,28.9217731 L26.3783321,28.9217731 C27.5286966,28.9217731 28.4611932,27.9887585 28.4611932,26.8378072 L28.4611932,5.32459638 C28.4611932,4.17364504 27.5286966,3.24063046 26.3783321,3.24063046 L4.8597631,3.24063046 Z M4.8597631,0.462154167 L26.3783321,0.462154167 C29.0622842,0.462154167 31.2380952,2.6391737 31.2380952,5.32459638 L31.2380952,26.8378072 C31.2380952,29.5234038 29.0622842,31.7002494 26.3783321,31.7002494 L4.8597631,31.7002494 C2.17581107,31.7002494 0,29.5234038 0,26.8378072 L0,5.32459638 C0,2.6391737 2.17581107,0.462154167 4.8597631,0.462154167 Z" id="Fill-1" fill="#424242"></path>
                <path d="M13.3539257,14.6433314 L22.5179791,5.41163842 C23.01836,4.90756418 23.8296527,4.90756418 24.3300337,5.41163842 C24.8306295,5.91575596 24.8306295,6.73303676 24.3300337,7.23728417 L14.3632822,17.2776431 C14.086964,17.5560009 13.7158037,17.6806341 13.3543984,17.6515429 C12.9928211,17.6809371 12.6211882,17.5563472 12.3445261,17.2776431 L6.90806156,11.8010522 C6.4076806,11.296978 6.4076806,10.4796972 6.90806156,9.97557962 C7.40865738,9.47150538 8.21995006,9.47150538 8.72033101,9.97557962 L13.3539257,14.6433314 Z M2.80531591,19.9756784 L28.4329942,19.9756784 C29.1407213,19.9756784 29.7142857,20.5535196 29.7142857,21.2664704 C29.7142857,21.9793779 29.1407213,22.5573923 28.4329942,22.5573923 L2.80531591,22.5573923 C2.09758885,22.5573923 1.52380952,21.9793779 1.52380952,21.2664704 C1.52380952,20.5535196 2.09758885,19.9756784 2.80531591,19.9756784 Z" id="Fill-2" fill="#424242"></path>
                <path d="M6.85723041,27.8907256 C5.59488469,27.8907256 4.57142857,26.8673548 4.57142857,25.6051204 C4.57142857,24.3426678 5.59488469,23.319297 6.85723041,23.319297 C8.11940102,23.319297 9.14285714,24.3426678 9.14285714,25.6051204 C9.14285714,26.8673548 8.11957613,27.8907256 6.85723041,27.8907256 Z M12.952381,27.8907256 C11.6899869,27.8907256 10.6666667,26.8673548 10.6666667,25.6051204 C10.6666667,24.3426678 11.6899869,23.319297 12.952381,23.319297 C14.214775,23.319297 15.2380952,24.3426678 15.2380952,25.6051204 C15.2380952,26.8673548 14.214775,27.8907256 12.952381,27.8907256 Z" id="Fill-3" fill="#6462F3"></path>
            </g>
        </g>
    </g>
</svg>