<?xml version="1.0" encoding="UTF-8"?>
<svg width="32px" height="24px" viewBox="0 0 32 24" version="1.1" xmlns="http://www.w3.org/2000/svg" xmlns:xlink="http://www.w3.org/1999/xlink">
    <title>sSecond-deployment</title>
    <defs>
        <polygon id="path-1" points="0.00253397539 0.0181457961 26.3111111 0.0181457961 26.3111111 19.9111522 0.00253397539 19.9111522"></polygon>
    </defs>
    <g id="页面-1" stroke="none" stroke-width="1" fill="none" fill-rule="evenodd">
        <g id="图标" transform="translate(-240.000000, -42.000000)">
            <g id="sSecond-deployment" transform="translate(240.000000, 42.000000)">
                <polygon id="Fill-1" fill="#D7D7FF" points="0.711111111 10.6666667 25.6 10.6666667 25.6 9.24444444 0.711111111 9.24444444"></polygon>
                <path d="M3.55555556,7.4666531 C3.55555556,7.59372152 3.62335867,7.71113231 3.73332558,7.77461226 C3.8432925,7.83809221 3.97892973,7.83809221 4.08889664,7.77461226 C4.19898756,7.71113231 4.26666667,7.59372152 4.26666667,7.4666531 C4.26666667,7.33961181 4.19898756,7.22228241 4.08889664,7.15872108 C3.97892973,7.09524112 3.8432925,7.09524112 3.73332558,7.15872108 C3.62335867,7.22228241 3.55555556,7.33961181 3.55555556,7.4666531 Z" id="Fill-2" fill="#6462F3"></path>
                <path d="M4.97777778,7.4666531 C4.97777778,7.59372152 5.04560894,7.71113231 5.15554005,7.77461226 C5.26562618,7.83809221 5.40113349,7.83809221 5.51109561,7.77461226 C5.62118174,7.71113231 5.68888889,7.59372152 5.68888889,7.4666531 C5.68888889,7.33961181 5.62118174,7.22228241 5.51109561,7.15872108 C5.40113349,7.09524112 5.26562618,7.09524112 5.15554005,7.15872108 C5.04560894,7.22228241 4.97777778,7.33961181 4.97777778,7.4666531 Z" id="Fill-3" fill="#6462F3"></path>
                <path d="M6.4,7.4666531 C6.4,7.59372152 6.46770715,7.71113231 6.57779328,7.77461226 C6.6877554,7.83809221 6.82326271,7.83809221 6.93334883,7.77461226 C7.04327995,7.71113231 7.11111111,7.59372152 7.11111111,7.4666531 C7.11111111,7.33961181 7.04327995,7.22228241 6.93334883,7.15872108 C6.82326271,7.09524112 6.6877554,7.09524112 6.57779328,7.15872108 C6.46770715,7.22228241 6.4,7.33961181 6.4,7.4666531 Z" id="Fill-4" fill="#6462F3"></path>
                <path d="M9.7767089,13.8432289 L2.93537439,13.8432289 C2.88086973,13.8432289 2.84444444,13.8105957 2.84444444,13.761805 L2.84444444,12.8814637 C2.84444444,12.8326332 2.88086973,12.8 2.93537439,12.8 L9.7767089,12.8 C9.83121356,12.8 9.86763884,12.8326332 9.86763884,12.8814637 L9.86763884,13.761805 C9.86763884,13.8105957 9.83121356,13.8432289 9.7767089,13.8432289 Z M11.2868478,16.1743167 L2.93537439,16.1743167 C2.88086973,16.1743167 2.84444444,16.1416437 2.84444444,16.0926938 L2.84444444,15.2125117 C2.84444444,15.1636812 2.88086973,15.131048 2.93537439,15.131048 L11.2868478,15.131048 C11.3415302,15.131048 11.3777778,15.1636812 11.3777778,15.2125117 L11.3777778,16.0926938 C11.3777778,16.1253271 11.3233175,16.1743167 11.2868478,16.1743167 Z M7.28393131,18.4888889 L2.93537439,18.4888889 C2.88086973,18.4888889 2.84444444,18.456375 2.84444444,18.4074252 L2.84444444,17.527243 C2.84444444,17.4782534 2.88086973,17.4457793 2.93537439,17.4457793 L7.26571867,17.4457793 C7.32035659,17.4457793 7.3568263,17.4782534 7.3568263,17.527243 L7.3568263,18.4074252 C7.3568263,18.456375 7.32035659,18.4888889 7.28393131,18.4888889 Z" id="Fill-5" fill="#6462F3"></path>
                <path d="M23.4859598,17.5638692 C23.4859598,16.2283278 24.0162875,15.0109234 24.8717627,14.0979835 L24.8717627,9.95555556 L13.5111111,9.95555556 L13.5111111,22.0444444 L24.6664988,22.0444444 C24.7862569,22.0444444 24.8888889,21.9428599 24.8888889,21.8245166 L24.8888889,21.0299201 C24.0162875,20.1169802 23.4859598,18.8995757 23.4859598,17.5638692 Z" id="Fill-6" fill="#D7D7FF"></path>
                <g id="编组" transform="translate(0.000000, 3.555556)">
                    <mask id="mask-2" fill="white">
                        <use xlink:href="#path-1"></use>
                    </mask>
                    <g id="Clip-8"></g>
                    <path d="M22.5573222,10.0907869 L15.1708684,10.0907869 C15.1190486,10.0907869 15.0844176,10.0571227 15.0844176,10.0067497 L15.0844176,9.11542983 C15.0844176,9.06505677 15.1190486,9.03139262 15.1708684,9.03139262 L22.5573222,9.03139262 C22.6093109,9.03139262 22.6439419,9.06505677 22.6439419,9.11542983 L22.6439419,10.0067497 C22.6439419,10.0571227 22.6093109,10.0907869 22.5573222,10.0907869 Z M24.1834587,12.4449781 L15.1708684,12.4449781 C15.1190486,12.4449781 15.0844176,12.4112729 15.0844176,12.3609409 L15.0844176,11.4696211 C15.0844176,11.419248 15.1190486,11.3855839 15.1708684,11.3855839 L24.1834587,11.3855839 C24.2352785,11.3855839 24.2699095,11.419248 24.2699095,11.4696211 L24.2699095,12.3609409 C24.2699095,12.4112729 24.2352785,12.4449781 24.1834587,12.4449781 Z M19.8588918,14.7991283 L15.1708684,14.7991283 C15.1190486,14.7991283 15.0844176,14.7654642 15.0844176,14.7150911 L15.0844176,13.8238123 C15.0844176,13.7734393 15.1190486,13.7397751 15.1708684,13.7397751 L19.8588918,13.7397751 C19.9106694,13.7397751 19.9453426,13.7734393 19.9453426,13.8238123 L19.9453426,14.7150911 C19.9453426,14.7654642 19.9106694,14.7991283 19.8588918,14.7991283 Z" id="Fill-7" fill="#FFFFFF" mask="url(#mask-2)"></path>
                    <path d="M25.0137579,17.624166 L25.0137579,18.1623408 C25.0137579,18.4312845 24.7889099,18.6331873 24.5293886,18.6331873 L1.79903806,18.6331873 C1.52220125,18.6331873 1.31466866,18.4144524 1.31466866,18.1623408 L1.31466866,1.76695716 C1.31466866,1.49801347 1.53951675,1.2961107 1.79903806,1.2961107 L24.5293886,1.2961107 C24.8062254,1.2961107 25.0137579,1.51484554 25.0137579,1.76695716 L25.0137579,10.7464988 C25.394361,10.3598948 25.8267417,10.0235818 26.3111111,9.77134699 L26.3111111,1.76695716 C26.3111111,0.80859638 25.5154428,0.0181457961 24.5120731,0.0181457961 L1.79903806,0.0181457961 C0.795668272,0.0181457961 0,0.80859638 0,1.76695716 L0,18.1623408 C0,19.1207016 0.795668272,19.9111522 1.79903806,19.9111522 L24.5293886,19.9111522 C25.3770456,19.9111522 26.086263,19.3394364 26.276649,18.58265 C25.7922797,18.3135831 25.3770456,17.9941432 25.0137579,17.624166 Z" id="Fill-9" fill="#D7D7FF" mask="url(#mask-2)"></path>
                </g>
                <path d="M23.509971,17.6299617 C23.509971,14.8742395 25.7992087,12.6528865 28.639146,12.6528865 C28.8113526,12.6528865 28.983349,12.6696455 29.1555556,12.6696455 L29.1555556,1.17877081 C29.1555556,0.928202421 28.949059,0.711111111 28.6736041,0.711111111 L4.74857606,0.711111111 C4.4903923,0.711111111 4.26666667,0.91148427 4.26666667,1.17877081 L4.26666667,18.7323403 C4.26666667,18.9829087 4.47316325,19.2 4.74857606,19.2 L23.7681968,19.2 C23.6132193,18.7156221 23.509971,18.1812529 23.509971,17.6299617 Z" id="Fill-10" fill="#EFEFFD"></path>
                <polygon id="Fill-11" fill="#424242" points="3.55555556 7.11111111 28.4444444 7.11111111 28.4444444 5.68888889 3.55555556 5.68888889"></polygon>
                <path d="M6.4,3.91108492 C6.4,4.03807733 6.46780311,4.15543233 6.57777003,4.21903329 C6.68786095,4.28254446 6.82337417,4.28254446 6.93334108,4.21903329 C7.04343201,4.15543233 7.11111111,4.03807733 7.11111111,3.91108492 C7.11111111,3.78412244 7.04343201,3.66673752 6.93334108,3.60325628 C6.82337417,3.53965532 6.68786095,3.53965532 6.57777003,3.60325628 C6.46780311,3.66673752 6.4,3.78412244 6.4,3.91108492 Z" id="Fill-12" fill="#6462F3"></path>
                <path d="M8.53333333,3.91109614 C8.53333333,4.10754444 8.69246374,4.26666667 8.88888889,4.26666667 C9.08519003,4.26666667 9.24444444,4.10754444 9.24444444,3.91109614 C9.24444444,3.71479751 9.08519003,3.55555556 8.88888889,3.55555556 C8.69246374,3.55555556 8.53333333,3.71479751 8.53333333,3.91109614 Z" id="Fill-13" fill="#6462F3"></path>
                <path d="M9.95555556,3.91109614 C9.95555556,4.10754444 10.1146619,4.26666667 10.3110956,4.26666667 C10.5075293,4.26666667 10.6666667,4.10754444 10.6666667,3.91109614 C10.6666667,3.71479751 10.5075293,3.55555556 10.3110956,3.55555556 C10.1146619,3.55555556 9.95555556,3.71479751 9.95555556,3.91109614 Z" id="Fill-14" fill="#6462F3"></path>
                <path d="M13.4282502,9.95555556 L7.19413389,9.95555556 C7.14430403,9.95555556 7.11111111,9.93331214 7.11111111,9.89991989 L7.11111111,9.2999716 C7.11111111,9.26671499 7.14430403,9.24444444 7.19413389,9.24444444 L13.4282502,9.24444444 C13.4780396,9.24444444 13.5111111,9.26671499 13.5111111,9.2999716 L13.5111111,9.89991989 C13.4944742,9.93331214 13.4614432,9.95555556 13.4282502,9.95555556 Z" id="Fill-15" fill="#6462F3"></path>
                <path d="M14.8240159,12.0888889 L6.49110526,12.0888889 C6.43642434,12.0888889 6.4,12.0664014 6.4,12.0324773 L6.4,11.434272 C6.4,11.4003755 6.43642434,11.3777778 6.49110526,11.3777778 L14.8422281,11.3777778 C14.8968646,11.3777778 14.9333333,11.4003755 14.9333333,11.434272 L14.9333333,12.0438037 C14.9150767,12.0664014 14.8786524,12.0888889 14.8240159,12.0888889 Z" id="Fill-16" fill="#6462F3"></path>
                <path d="M11.2917993,14.9333333 L7.19725761,14.9333333 C7.14555291,14.9333333 7.11111111,14.9111976 7.11111111,14.8778312 L7.11111111,14.2778329 C7.11111111,14.2444665 7.14555291,14.2222222 7.19725761,14.2222222 L11.2917993,14.2222222 C11.343336,14.2222222 11.3777778,14.2444665 11.3777778,14.2778329 L11.3777778,14.8778312 C11.3777778,14.9111976 11.343336,14.9333333 11.2917993,14.9333333 Z" id="Fill-17" fill="#6462F3"></path>
                <path d="M23.4752924,18.2686673 C23.4752924,15.5258428 25.6856451,13.307898 28.4444444,13.223284 L28.4444444,7.11111111 L17.0666667,7.11111111 L17.0666667,19.2 L23.578079,19.2 C23.5094709,18.8951499 23.4752924,18.5904651 23.4752924,18.2686673 Z" id="Fill-18" fill="#D7D7FF"></path>
                <path d="M26.2298281,9.95555556 L19.2813227,9.95555556 C19.2326165,9.95555556 19.2,9.93295785 19.2,9.8990613 L19.2,9.30085603 C19.2,9.26693191 19.2326165,9.24444444 19.2813227,9.24444444 L26.2298281,9.24444444 C26.2785343,9.24444444 26.3111111,9.26693191 26.3111111,9.30085603 L26.3111111,9.8990613 C26.3111111,9.93295785 26.262246,9.95555556 26.2298281,9.95555556 Z" id="Fill-19" fill="#FFFFFF"></path>
                <path d="M27.6461593,12.8 L18.5758929,12.8 C18.523784,12.8 18.4888889,12.7774023 18.4888889,12.7434782 L18.4888889,12.1452729 C18.4888889,12.1113764 18.523784,12.0888889 18.5758929,12.0888889 L27.6461593,12.0888889 C27.6984807,12.0888889 27.7333333,12.1113764 27.7333333,12.1452729 L27.7333333,12.7434782 C27.7333333,12.7661034 27.6984807,12.8 27.6461593,12.8 Z" id="Fill-20" fill="#FFFFFF"></path>
                <path d="M23.3781377,14.9333333 L18.5774179,14.9333333 C18.5243956,14.9333333 18.4888889,14.9107365 18.4888889,14.8768137 L18.4888889,14.2786316 C18.4888889,14.2447364 18.5243956,14.2222222 18.5774179,14.2222222 L23.3781377,14.2222222 C23.4312032,14.2222222 23.4666667,14.2447364 23.4666667,14.2786316 L23.4666667,14.8768137 C23.4666667,14.9107365 23.4312032,14.9333333 23.3781377,14.9333333 Z" id="Fill-21" fill="#FFFFFF"></path>
                <path d="M23.6564819,18.6318572 L5.42388585,18.6318572 C5.11254674,18.6318572 4.87038471,18.3961987 4.87038471,18.0933148 L4.87038471,1.81779629 C4.87038471,1.51474806 5.11254674,1.27913063 5.42388585,1.27913063 L28.015694,1.27913063 C28.3269909,1.27913063 28.5691951,1.51474806 28.5691951,1.81779629 L28.5691951,12.6737441 L28.7075915,12.6737441 C29.1055076,12.6737441 29.5034236,12.7241631 29.8666667,12.8084413 L29.8666667,1.81779629 C29.8666667,0.8247021 29.0363727,0 27.9983786,0 L5.42388585,0 C4.40320711,0 3.55555556,0.807854673 3.55555556,1.81779629 L3.55555556,18.0933148 C3.55555556,19.086409 4.38601842,19.9111111 5.42388585,19.9111111 L24.088902,19.9111111 C23.8813708,19.5071016 23.7429321,19.086409 23.6564819,18.6318572 Z" id="Fill-22" fill="#424242"></path>
                <path d="M28.4443602,21.3333333 C26.4768098,21.3333333 24.8888889,19.7492045 24.8888889,17.7777993 C24.8888889,15.806394 26.4768098,14.2222222 28.4443602,14.2222222 C28.5651724,14.2222222 28.6687078,14.3278079 28.6687078,14.4510556 C28.6687078,14.5742604 28.5651724,14.6798461 28.4443602,14.6798461 C26.7184765,14.6798461 25.3203071,16.0704227 25.3203071,17.7777993 C25.3203071,19.4851329 26.7184765,20.8757525 28.4443602,20.8757525 C30.1704124,20.8757525 31.5685817,19.4851329 31.5685817,17.7777993 C31.5685817,17.0561468 31.3096381,16.3519415 30.8607743,15.806394 C30.7917929,15.7184275 30.7917929,15.5776036 30.8780513,15.4894651 C30.9644782,15.4191177 31.1023989,15.4191177 31.1888258,15.5070842 C31.7065024,16.1407702 32,16.9505611 32,17.7601802 C32,19.7492045 30.412037,21.3333333 28.4443602,21.3333333 Z" id="Fill-23" fill="#6462F3"></path>
                <path d="M28.8826355,14.9333333 C28.8384423,14.9333333 28.7945182,14.9333333 28.7503789,14.9112208 L27.1628148,14.4804853 C27.0305581,14.4472895 26.9864188,14.3589204 27.0526816,14.2926638 C27.1188907,14.2264071 27.2950714,14.2042946 27.4275434,14.2374634 L29.0148921,14.6681989 C29.1471488,14.7013677 29.1912881,14.7897638 29.1252406,14.8560204 C29.0811012,14.9112208 28.9927686,14.9333333 28.8826355,14.9333333 Z" id="Fill-24" fill="#6462F3"></path>
                <path d="M28.0735167,15.8415181 C28.0269446,15.8415181 27.9566869,15.8234359 27.9098865,15.8053537 C27.7696564,15.7331572 27.7462562,15.5886319 27.8164569,15.4981767 L28.8217526,14.3241124 C28.9151251,14.2157515 29.1022126,14.1976252 29.2190424,14.2517395 C29.3592725,14.3241124 29.3826727,14.4686377 29.3126433,14.5589165 L28.3074046,15.7331572 C28.2606042,15.8234359 28.1671746,15.8415181 28.0735167,15.8415181 Z M29.7333333,16.0401577 L27.8164569,17.7020887 C27.6294264,17.9731013 27.7696564,18.298184 28.1203742,18.4246272 C28.4710348,18.5691966 28.8917249,18.4608357 29.0553551,18.1898231 L29.7333333,16.0401577 Z" id="Fill-25" fill="#6462F3"></path>
            </g>
        </g>
    </g>
</svg>