<?xml version="1.0" encoding="UTF-8"?>
<svg width="29px" height="30px" viewBox="0 0 29 30" version="1.1" xmlns="http://www.w3.org/2000/svg" xmlns:xlink="http://www.w3.org/1999/xlink">
    <title>shitu</title>
    <defs>
        <polygon id="path-1" points="0.00274959326 0.00180722892 28.7387946 0.00180722892 28.7387946 30 0.00274959326 30"></polygon>
    </defs>
    <g id="页面-1" stroke="none" stroke-width="1" fill="none" fill-rule="evenodd">
        <g id="图标" transform="translate(-272.000000, -91.000000)">
            <g id="shitu" transform="translate(272.000000, 91.000000)">
                <g id="编组">
                    <mask id="mask-2" fill="white">
                        <use xlink:href="#path-1"></use>
                    </mask>
                    <g id="Clip-2"></g>
                    <path d="M27.0449993,0 L1.6900375,0 C0.755221616,0 0,0.744578313 0,1.66621988 L0,28.3337801 C0,29.2554217 0.755221616,30 1.6900375,30 L27.0485738,30 C27.983573,30 28.7387946,29.2554217 28.7387946,28.3337801 L28.7387946,1.66621988 C28.7350368,0.744578313 27.9798152,0 27.0449993,0 Z M27.0449993,27.8240964 C27.0449993,28.1313705 26.7920826,28.3807229 26.4804162,28.3807229 L2.20700686,28.3807229 C1.89534046,28.3807229 1.64242371,28.1313705 1.64242371,27.8240964 L1.64242371,2.22284639 C1.64242371,1.91557229 1.89534046,1.66621988 2.20700686,1.66621988 L26.484174,1.66621988 C26.7956571,1.66621988 27.0485738,1.91557229 27.0485738,2.22284639 L27.0485738,27.8240964 L27.0449993,27.8240964 Z" id="Fill-1" fill="#424242" mask="url(#mask-2)"></path>
                </g>
                <path d="M24.1455508,18.75 L13.2928664,18.75 C12.8210106,18.75 12.434609,19.1292145 12.434609,19.600265 C12.434609,20.0715456 12.8172023,20.450576 13.2928664,20.450576 L24.1417425,20.450576 C24.6135984,20.450576 25,20.0715456 25,19.600265 C25,19.1292145 24.6174067,18.75 24.1455508,18.75 Z M24.1306428,23.299608 L5.85825748,23.299608 C5.38640163,23.299608 5,23.6786385 5,24.149689 C5,24.6209235 5.38277912,25 5.85825748,25 L24.1343117,25 C24.6061676,25 24.9925692,24.6209235 24.9925692,24.149689 C24.9925692,23.6786385 24.6061676,23.299608 24.1306428,23.299608 Z" id="Fill-3" fill="#6462F3"></path>
                <path d="M3.75,4.8430752 L3.75,15.1569248 C3.75,15.7619339 4.24169847,16.25 4.84291381,16.25 L15.1570862,16.25 C15.761927,16.25 16.25,15.7583085 16.25,15.1569248 L16.25,4.8430752 C16.25,4.23824291 15.7584784,3.75 15.1570862,3.75 L4.84653932,3.75 C4.24169847,3.75 3.75,4.23824291 3.75,4.8430752 Z M14.6690132,14.6229216 L5.38417563,14.6229216 L5.38417563,5.33476672 L14.6724619,5.33476672 L14.6724619,14.6229216 L14.6690132,14.6229216 Z" id="Fill-4" fill="#6462F3"></path>
                <polygon id="Fill-5" fill="#EFEFFD" points="5 15 15 15 15 5 5 5"></polygon>
            </g>
        </g>
    </g>
</svg>