<svg height="512pt" viewBox="-90 0 512 512.00017" width="512pt" xmlns="http://www.w3.org/2000/svg"><path d="m295.546875 10.019531h-193.90625c-1.851563 0-3.683594.148438-5.488281.414063v52.996094c0 17.855468-14.472656 32.328124-32.324219 32.328124h-51.761719c-3.917968 11.308594-1.332031-5.683593-2.066406 380.042969 0 14.46875 11.734375 26.199219 26.207031 26.199219h259.339844c14.472656 0 26.207031-11.730469 26.207031-26.199219v-439.578125c0-14.472656-11.734375-26.203125-26.207031-26.203125zm-217.433594 405.007813c0 2.125-1.722656 3.851562-3.851562 3.851562h-31.058594c-2.125 0-3.851563-1.726562-3.851563-3.851562v-31.0625c0-2.125 1.726563-3.847656 3.851563-3.847656h31.058594c2.128906 0 3.851562 1.722656 3.851562 3.847656zm0-231.371094c0 2.125-1.722656 3.851562-3.851562 3.851562h-31.058594c-2.125 0-3.851563-1.726562-3.851563-3.851562v-31.0625c0-2.125 1.726563-3.851562 3.851563-3.851562h31.058594c2.128906 0 3.851562 1.726562 3.851562 3.851562zm104.097657-31.0625c0-2.125 1.722656-3.851562 3.851562-3.851562h31.058594c2.128906 0 3.851562 1.726562 3.851562 3.851562v31.0625c0 2.125-1.722656 3.851562-3.851562 3.851562h-31.058594c-2.128906 0-3.851562-1.726562-3.851562-3.851562zm-71.429688 0c0-2.125 1.722656-3.851562 3.851562-3.851562h31.058594c2.125 0 3.851563 1.726562 3.851563 3.851562v31.0625c0 2.125-1.722657 3.851562-3.851563 3.851562h-31.058594c-2.128906 0-3.851562-1.726562-3.851562-3.851562zm38.761719 262.433594c0 2.125-1.722657 3.851562-3.851563 3.851562h-31.058594c-2.128906 0-3.851562-1.726562-3.851562-3.851562v-31.0625c0-2.125 1.722656-3.847656 3.851562-3.847656h31.058594c2.128906 0 3.851563 1.722656 3.851563 3.847656zm71.429687 0c0 2.125-1.722656 3.851562-3.851562 3.851562h-31.058594c-2.128906 0-3.851562-1.726562-3.851562-3.851562v-31.0625c0-2.125 1.722656-3.847656 3.851562-3.847656h31.058594c2.128906 0 3.851562 1.722656 3.851562 3.847656zm-5.425781-116.78125-69.636719 40.910156c-10.335937 6.074219-23.355468-1.382812-23.355468-13.367188v-81.820312c0-11.988281 13.019531-19.441406 23.355468-13.367188l69.636719 40.90625c10.203125 5.992188 10.203125 20.746094 0 26.738282zm76.855469 116.78125c0 2.125-1.722656 3.851562-3.851563 3.851562h-31.058593c-2.128907 0-3.851563-1.726562-3.851563-3.851562v-31.0625c0-2.125 1.722656-3.847656 3.851563-3.847656h31.058593c2.128907 0 3.851563 1.722656 3.851563 3.847656zm0-231.371094c0 2.125-1.722656 3.851562-3.851563 3.851562h-31.058593c-2.128907 0-3.851563-1.726562-3.851563-3.851562v-31.0625c0-2.125 1.722656-3.851562 3.851563-3.851562h31.058593c2.128907 0 3.851563 1.726562 3.851563 3.851562zm0 0" fill="#b1d9ff"/><path d="m96.152344 63.433594v-53.1875c-8.59375 1.269531-16.546875 5.492187-22.417969 12.050781l-54.265625 60.628906c-3.367188 3.761719-5.902344 8.132813-7.511719 12.832031h51.871094c17.851563 0 32.324219-14.472656 32.324219-32.324218zm0 0" fill="#6e9fc5"/><g fill="#f8f8f8"><path d="m288.550781 148.742188h-31.058593c-2.128907 0-3.851563 1.726562-3.851563 3.851562v31.058594c0 2.128906 1.722656 3.851562 3.851563 3.851562h31.058593c2.128907 0 3.851563-1.722656 3.851563-3.851562v-31.058594c0-2.125-1.722656-3.851562-3.851563-3.851562zm0 0"/><path d="m186.0625 187.503906h31.058594c2.128906 0 3.851562-1.722656 3.851562-3.851562v-31.058594c0-2.125-1.722656-3.851562-3.851562-3.851562h-31.058594c-2.128906 0-3.851562 1.726562-3.851562 3.851562v31.058594c0 2.128906 1.722656 3.851562 3.851562 3.851562zm0 0"/><path d="m114.632812 187.503906h31.058594c2.128906 0 3.851563-1.722656 3.851563-3.851562v-31.058594c0-2.125-1.722657-3.851562-3.851563-3.851562h-31.058594c-2.128906 0-3.851562 1.726562-3.851562 3.851562v31.058594c0 2.128906 1.722656 3.851562 3.851562 3.851562zm0 0"/><path d="m74.261719 148.742188h-31.058594c-2.125 0-3.851563 1.726562-3.851563 3.851562v31.058594c0 2.128906 1.726563 3.851562 3.851563 3.851562h31.058594c2.128906 0 3.851562-1.722656 3.851562-3.851562v-31.058594c0-2.125-1.722656-3.851562-3.851562-3.851562zm0 0"/><path d="m288.550781 380.117188h-31.058593c-2.128907 0-3.851563 1.722656-3.851563 3.847656v31.0625c0 2.125 1.722656 3.851562 3.851563 3.851562h31.058593c2.128907 0 3.851563-1.726562 3.851563-3.851562v-31.0625c0-2.125-1.722656-3.847656-3.851563-3.847656zm0 0"/><path d="m217.121094 380.117188h-31.058594c-2.128906 0-3.851562 1.722656-3.851562 3.847656v31.0625c0 2.125 1.722656 3.851562 3.851562 3.851562h31.058594c2.128906 0 3.851562-1.726562 3.851562-3.851562v-31.0625c0-2.125-1.722656-3.847656-3.851562-3.847656zm0 0"/><path d="m145.691406 380.117188h-31.058594c-2.128906 0-3.851562 1.722656-3.851562 3.847656v31.0625c0 2.125 1.722656 3.851562 3.851562 3.851562h31.058594c2.128906 0 3.851563-1.726562 3.851563-3.851562v-31.0625c0-2.125-1.722657-3.847656-3.851563-3.847656zm0 0"/><path d="m74.261719 380.117188h-31.058594c-2.125 0-3.851563 1.722656-3.851563 3.847656v31.0625c0 2.125 1.726563 3.851562 3.851563 3.851562h31.058594c2.128906 0 3.851562-1.726562 3.851562-3.851562v-31.0625c0-2.125-1.722656-3.847656-3.851562-3.847656zm0 0"/></g><path d="m215.546875 271.507812-69.636719-40.90625c-10.335937-6.074218-23.355468 1.378907-23.355468 13.367188v81.820312c0 11.988282 13.019531 19.441407 23.355468 13.367188l69.636719-40.910156c10.203125-5.992188 10.203125-20.746094 0-26.738282zm0 0" fill="#ffcb78"/><path d="m295.546875.0195312c-169.5.078125-197-.2421872-200.855469.3320308-10.949218 1.617188-21.035156 7.042969-28.40625 15.277344l-54.265625 60.628906c-7.867187 8.789063-12.019531 19.925782-12.019531 31.730469v367.8125c0 19.960938 16.242188 36.199219 36.207031 36.199219h259.339844c19.964844 0 36.207031-16.238281 36.207031-36.199219v-439.582031c0-19.957031-16.242187-36.1992188-36.207031-36.1992188zm-209.394531 24.8085938v38.601563c0 12.3125-10.015625 22.328124-22.324219 22.328124h-33.292969c53.617188-59.472656 50.714844-57.570312 55.617188-60.929687zm225.601562 450.972656c0 8.933594-7.269531 16.199219-16.207031 16.199219h-259.339844c-8.9375 0-16.207031-7.265625-16.207031-16.199219.039062-384.570312-.085938-367.792969.097656-370.042969h43.730469c23.335937 0 42.324219-18.988281 42.324219-42.328124v-43.410157h189.394531c8.9375 0 16.207031 7.269531 16.207031 16.199219zm0 0"/><path d="m288.550781 138.746094h-31.0625c-7.636719 0-13.847656 6.210937-13.847656 13.847656v31.0625c0 7.636719 6.210937 13.851562 13.847656 13.851562h31.0625c7.636719 0 13.851563-6.214843 13.851563-13.851562v-31.0625c0-7.636719-6.214844-13.847656-13.851563-13.847656zm-6.148437 38.761718h-18.761719v-18.765624h18.761719zm0 0"/><path d="m186.0625 197.503906h31.058594c7.640625 0 13.851562-6.210937 13.851562-13.851562v-31.058594c0-7.636719-6.210937-13.851562-13.851562-13.851562h-31.058594c-7.640625 0-13.851562 6.214843-13.851562 13.851562v31.0625c0 7.636719 6.210937 13.847656 13.851562 13.847656zm6.148438-38.761718h18.761718v18.765624h-18.761718zm0 0"/><path d="m114.632812 197.503906h31.058594c7.640625 0 13.851563-6.210937 13.851563-13.851562v-31.058594c0-7.636719-6.210938-13.851562-13.851563-13.851562h-31.058594c-7.636718 0-13.851562 6.214843-13.851562 13.851562v31.0625c0 7.636719 6.214844 13.847656 13.851562 13.847656zm6.148438-38.761718h18.761719v18.765624h-18.761719zm0 0"/><path d="m74.261719 138.746094h-31.058594c-7.636719 0-13.851563 6.210937-13.851563 13.847656v31.0625c0 7.636719 6.214844 13.851562 13.851563 13.851562h31.058594c7.640625 0 13.851562-6.214843 13.851562-13.851562v-31.0625c0-7.636719-6.210937-13.847656-13.851562-13.847656zm-6.148438 38.761718h-18.761719v-18.765624h18.761719zm0 0"/><path d="m288.550781 370.117188h-31.0625c-7.636719 0-13.847656 6.214843-13.847656 13.851562v31.058594c0 7.636718 6.210937 13.851562 13.847656 13.851562h31.0625c7.636719 0 13.851563-6.214844 13.851563-13.851562v-31.058594c0-7.640625-6.214844-13.851562-13.851563-13.851562zm-6.148437 38.761718h-18.761719v-18.765625h18.761719zm0 0"/><path d="m217.121094 370.117188h-31.058594c-7.640625 0-13.851562 6.214843-13.851562 13.851562v31.058594c0 7.636718 6.210937 13.851562 13.851562 13.851562h31.058594c7.640625 0 13.851562-6.214844 13.851562-13.851562v-31.058594c0-7.640625-6.214844-13.851562-13.851562-13.851562zm-6.148438 38.761718h-18.761718v-18.765625h18.761718zm0 0"/><path d="m145.691406 370.117188h-31.058594c-7.640624 0-13.851562 6.214843-13.851562 13.851562v31.058594c0 7.636718 6.210938 13.851562 13.851562 13.851562h31.058594c7.636719 0 13.851563-6.214844 13.851563-13.851562v-31.058594c0-7.640625-6.214844-13.851562-13.851563-13.851562zm-6.148437 38.761718h-18.761719v-18.765625h18.761719zm0 0"/><path d="m74.261719 370.117188h-31.058594c-7.636719 0-13.851563 6.214843-13.851563 13.851562v31.058594c0 7.636718 6.214844 13.851562 13.851563 13.851562h31.058594c7.640625 0 13.851562-6.214844 13.851562-13.851562v-31.058594c0-7.640625-6.210937-13.851562-13.851562-13.851562zm-6.148438 38.761718h-18.761719v-18.765625h18.761719zm0 0"/><path d="m179.050781 260.050781c5.523438 0 10-4.476562 10-10 0-5.519531-4.476562-10-10-10h-.023437c-5.523438 0-9.988282 4.480469-9.988282 10 0 5.523438 4.488282 10 10.011719 10zm0 0"/><path d="m112.554688 325.785156v-81.816406c0-19.714844 21.402343-31.992188 38.421874-21.992188l2.71875 1.597657c4.761719 2.796875 6.351563 8.925781 3.554688 13.6875s-8.925781 6.351562-13.6875 3.554687l-2.714844-1.59375c-3.675781-2.160156-8.296875.492188-8.296875 4.746094v81.816406c0 4.253906 4.617188 6.910156 8.296875 4.75l69.636719-40.910156c3.625-2.128906 3.621094-7.367188 0-9.496094l-5.742187-3.371094c-4.761719-2.800781-6.355469-8.925781-3.558594-13.6875 2.796875-4.761718 8.925781-6.355468 13.6875-3.558593l5.742187 3.375c16.773438 9.851562 16.796875 34.113281 0 43.980469l-69.636719 40.910156c-17.027343 10.003906-38.421874-2.28125-38.421874-21.992188zm0 0"/></svg>