<?xml version="1.0" encoding="UTF-8"?>
<svg width="30px" height="32px" viewBox="0 0 30 32" version="1.1" xmlns="http://www.w3.org/2000/svg" xmlns:xlink="http://www.w3.org/1999/xlink">
    <title>product-management</title>
    <g id="页面-1" stroke="none" stroke-width="1" fill="none" fill-rule="evenodd">
        <g id="图标" transform="translate(-406.000000, -40.000000)">
            <g id="product-management" transform="translate(406.000000, 40.000000)">
                <path d="M3.40425532,16.6807511 C3.40425532,22.8851421 8.43397582,27.9148936 14.6383779,27.9148936 C20.8427799,27.9148936 25.8723404,22.8851421 25.8723404,16.6807511 C25.8723404,10.4764 20.8427799,5.44680851 14.6383779,5.44680851 C8.43397582,5.44680851 3.40425532,10.4764 3.40425532,16.6807511 Z" id="Fill-1" fill="#D7D7FF"></path>
                <path d="M20.1624336,22.4680851 L10.0805697,22.4361601 C8.16711403,22.219568 6.80851064,20.6840581 6.80851064,18.8524742 C6.80851064,17.0367167 8.13714723,15.5268713 9.86135378,15.2751656 C10.372817,13.5262133 11.977278,12.2553191 13.8276777,12.2553191 C15.1796308,12.2553191 16.4419268,12.9402091 17.2093852,14.0455678 C18.7805542,14.0168703 20.1424828,15.0170826 20.6341574,16.4696886 C22.0559384,16.6990352 23.1489362,17.9478035 23.1489362,19.4512718 C23.1489362,21.1142093 21.8067963,22.4680851 20.1624336,22.4680851 Z M19.8768366,20.6076482 L20.1624336,20.6076482 C20.7404402,20.6076482 21.2088388,20.0884492 21.2088388,19.4512718 C21.2088388,18.753744 20.6108814,18.2154134 20.0063954,18.3141436 L18.9798193,18.479718 L18.8835119,17.4826943 C18.7971799,16.5843619 18.1095654,15.9090378 17.2824166,15.9090378 C17.1761338,15.9090378 17.0631602,15.9249808 16.923626,15.9600555 L16.1297286,16.1543274 L15.7975796,15.4343627 C15.4221632,14.6221617 14.6680053,14.1187891 13.8276777,14.1187891 C12.6948188,14.1187891 11.7349078,15.0649507 11.6384382,16.2722282 L11.5620816,17.2469316 L10.3661667,17.1003723 C9.47596198,17.1003723 8.74844576,17.8871811 8.74844576,18.8556628 C8.74844576,19.747618 9.37300431,20.4897863 10.2001531,20.5885165 L19.8768366,20.6076482 Z" id="Fill-2" fill="#424242"></path>
                <path d="M14.9788034,32 C6.7199003,32 0,25.2801755 0,17.0212766 C0,8.76241762 6.7199003,2.04255319 14.9788034,2.04255319 C23.2377464,2.04255319 29.9574468,8.76241762 29.9574468,17.0212766 C29.9574468,25.2801755 23.2377464,32 14.9788034,32 Z M14.9788034,3.95511339 C7.77424451,3.95511339 1.9124105,9.8169161 1.9124105,17.0212766 C1.9124105,24.225837 7.77424451,30.0876397 14.9788034,30.0876397 C22.1832423,30.0876397 28.0450363,24.225837 28.0450363,17.0212766 C28.0450363,9.8169161 22.1832423,3.95511339 14.9788034,3.95511339 Z" id="Fill-3" fill="#424242"></path>
                <path d="M15.2821547,6.00251336 C14.9298,6.00251336 14.645941,5.7142325 14.645941,5.3562787 L14.645941,0.646275123 C14.645941,0.288442707 14.9298,0 15.2821547,0 C15.6345094,0 15.9182489,0.288442707 15.9182489,0.646275123 L15.9182489,5.35959646 C15.9182489,5.7142325 15.6345094,6.00251336 15.2821547,6.00251336 Z M1.31623711,27.9148936 C1.11712167,27.9148936 0.924696501,27.8221178 0.800727224,27.6463575 C0.701926139,27.5079017 0.661784465,27.3350141 0.689342043,27.166213 C0.71701909,26.9974119 0.809886534,26.8467776 0.947554954,26.7481754 L5.1297758,23.698791 C5.41694009,23.4899745 5.81158691,23.5563702 6.01723334,23.8479688 C6.22272048,24.1364115 6.15737079,24.5406925 5.87036579,24.7461508 L1.68802548,27.7955352 C1.57385268,27.8750401 1.44347189,27.9148936 1.31623711,27.9148936 Z M29.3230592,27.9148936 C29.1925589,27.9148936 29.0652843,27.8750401 28.954377,27.7955352 L24.772196,24.7461508 C24.6352842,24.6470631 24.5428947,24.4965906 24.5153769,24.3281132 C24.4878193,24.159474 24.5273238,23.9867482 24.6253285,23.8479688 C24.8308156,23.5563702 25.228927,23.4899745 25.5094011,23.698791 L29.6917414,26.7481754 C29.9754809,26.9569515 30.0440961,27.3580766 29.8385691,27.6463575 C29.7145998,27.8188 29.5187499,27.9148936 29.3230592,27.9148936 Z" id="Fill-4" fill="#424242"></path>
            </g>
        </g>
    </g>
</svg>