<svg height="512pt" viewBox="0 -123 512.001 512" width="512pt" xmlns="http://www.w3.org/2000/svg"><path d="m482.132812 120.800781-48.53125-.527343h-115.113281c-14.835937 0-26.867187 12.027343-26.867187 26.867187v45.867187c6.292968.332032 12.332031 3.609376 15.933594 9.355469l15.296874 24.40625c3.859376 6.15625 3.941407 13.585938.90625 19.636719 3.394532.867188 6.953126 1.328125 10.617188 1.328125h115.046875c29.039063 0 52.578125-23.539063 52.578125-52.574219v-49.890625c0-12.050781-8.523438-22.105469-19.867188-24.46875zm0 0" fill="#b1d9ff"/><path d="m189.144531 226.769531 15.300781-24.40625c3.601563-5.746093 9.640626-9.023437 15.933594-9.355469v-45.867187c0-14.839844-12.03125-26.867187-26.871094-26.867187h-115.109374l-48.53125.527343c-11.34375 2.363281-19.867188 12.417969-19.867188 24.464844v49.890625c0 29.039062 23.539062 52.578125 52.578125 52.578125h115.046875c3.664062 0 7.222656-.460937 10.617188-1.332031-3.035157-6.046875-2.953126-13.480469.902343-19.632813zm0 0" fill="#b1d9ff"/><path d="m232.0625 196.027344c-3.632812-2.277344-7.710938-3.230469-11.683594-3.019532-6.292968.332032-12.332031 3.609376-15.933594 9.355469l-15.300781 24.40625c-3.855469 6.152344-3.9375 13.585938-.902343 19.632813 1.589843 3.167968 4.019531 5.964844 7.242187 7.984375 9.375 5.875 21.738281 3.039062 27.617187-6.335938l15.296876-24.410156c5.875-9.375 3.039062-21.738281-6.335938-27.613281zm0 0" fill="#ffcb78"/><path d="m322.855469 226.769531-15.300781-24.40625c-3.601563-5.746093-9.640626-9.023437-15.933594-9.355469-3.976563-.210937-8.050782.742188-11.683594 3.019532-9.375 5.875-12.210938 18.242187-6.335938 27.617187l15.296876 24.40625c5.878906 9.375 18.242187 12.214844 27.617187 6.335938 3.222656-2.019531 5.652344-4.8125 7.242187-7.980469 3.035157-6.050781 2.953126-13.484375-.902343-19.636719zm0 0" fill="#ffcb78"/><path d="m156.019531 47.601562c4.058594-3.804687 9.261719-6.15625 14.796875-6.699218l22.902344-2.246094c9.070312-.886719 11.390625-13.050781 3.285156-17.21875l-13.089844-6.726562c-16.085937-8.269532-35.632812-5.523438-48.820312 6.855468l-105.726562 99.238282.503906-.003907 48.527344-.527343zm0 0" fill="#6e9fc5"/><path d="m482.636719 120.804688-105.730469-99.238282c-13.1875-12.378906-32.734375-15.121094-48.820312-6.855468l-13.089844 6.726562c-8.105469 4.167969-5.78125 16.332031 3.289062 17.222656l22.898438 2.242188c5.535156.542968 10.738281 2.898437 14.796875 6.699218l77.625 72.671876 48.527343.527343zm0 0" fill="#6e9fc5"/><path d="m487.871094 112.007812-104.121094-97.734374c-16.230469-15.234376-40.4375-18.632813-60.234375-8.457032l-13.089844 6.726563c-16.9375 8.707031-12.097656 34.207031 6.882813 36.066406 19.980468 2.722656 25.714844.554687 31.835937 6.292969l59.144531 55.371094h-89.800781c-15.496093 0-28.78125 9.613281-34.226562 23.191406l-1.238281-.492188c-17.425782-6.90625-36.621094-6.90625-54.046876 0l-1.238281.492188c-5.445312-13.578125-18.730469-23.191406-34.226562-23.191406h-89.800781l59.144531-55.375c6.128906-5.734376 11.894531-3.570313 31.839843-6.289063 8.519532-.832031 15.324219-7.046875 16.929688-15.457031 1.605469-8.414063-2.433594-16.695313-10.050781-20.609375l-13.089844-6.726563c-19.796875-10.175781-44.003906-6.777344-60.234375 8.457032l-104.121094 97.734374c-13.992187 4.582032-24.128906 17.757813-24.128906 33.257813v49.894531c0 34.503906 28.070312 62.574219 62.578125 62.574219 120.980469-.128906 115.183594.320313 121.109375-.359375 1.847656 2.078125 4.011719 3.9375 6.484375 5.488281 14.089844 8.828125 32.640625 4.476563 41.402344-9.5l15.296875-24.410156c8.796875-14.03125 4.535156-32.605469-9.5-41.402344-2.214844-1.386719-4.5625-2.460937-6.992188-3.226562v-30.394531c2.808594-.636719 21.402344-11.828126 45.273438-2.367188l5.96875 2.367188c.007812 13.042968-.011719 29.484374.019531 30.390624-18.933594 5.933594-26.875 28.097657-16.511719 44.632813l15.296875 24.40625c8.785157 14.015625 27.347657 18.308594 41.402344 9.5 2.472656-1.546875 4.636719-3.40625 6.484375-5.484375 5.726562.65625.960938.230469 121.113281.359375 34.503907 0 62.574219-28.070313 62.574219-62.578125v-49.890625c0-15.5-10.136719-28.675781-24.128906-33.257813zm-345.933594-83.152343c10.082031-9.457031 25.113281-11.570313 37.40625-5.25l10.480469 5.386719c-13.9375 2.402343-27.855469-.660157-40.640625 11.308593l-74.738282 69.96875h-19.246093zm-79.359375 208.878906c-23.476563 0-42.578125-19.097656-42.578125-42.574219v-49.894531c0-8.269531 6.726562-14.996094 14.996094-14.996094h158.515625c9.300781 0 16.867187 7.566407 16.867187 16.867188v37.929687c-5.9375 2.332032-10.957031 6.480469-14.40625 11.984375-11.652344 20.523438-20.039062 26.675781-19.867187 40.683594zm167.347656-19.402344-15.296875 24.410157c-2.941406 4.6875-9.148437 6.113281-13.835937 3.171874-4.625-2.902343-6.132813-9.113281-3.175781-13.835937l15.300781-24.40625c2.941406-4.699219 9.132812-6.121094 13.832031-3.175781 4.6875 2.941406 6.113281 9.148437 3.175781 13.835937zm132.886719-178.03125c-12.816406-12-26.582031-8.886719-40.636719-11.308593l10.480469-5.386719c12.292969-6.320313 27.328125-4.210938 37.40625 5.25l86.738281 81.414062h-19.25zm-65.441406 202.441407-15.296875-24.410157c-2.9375-4.6875-1.515625-10.894531 3.175781-13.832031 1.617188-1.015625 3.445312-1.535156 5.308594-1.535156 3.355468 0 6.617187 1.664062 8.523437 4.707031l15.296875 24.410156c1.792969 2.863281 2.109375 6.289063.339844 10.054688-3.613281 6.78125-13.257812 7.125-17.347656.605469zm194.628906-47.582032c0 23.476563-19.101562 42.574219-42.578125 42.574219h-113.527344c.070313-5.566406-1.398437-11.214844-4.566406-16.273437l-15.296875-24.410157c-3.460938-5.519531-8.5-9.679687-14.460938-12.007812.035157-.339844.050782-.683594.050782-1.035157v-36.867187c0-9.300781 7.570312-16.867187 16.871094-16.867187h158.511718c8.269532 0 14.996094 6.726562 14.996094 14.996093zm0 0"/><path d="m392.425781 170.671875-35.972656 17.863281c-4.949219 2.457032-6.964844 8.460938-4.511719 13.40625 2.453125 4.9375 8.449219 6.96875 13.40625 4.507813l35.972656-17.863281c4.949219-2.457032 6.964844-8.457032 4.511719-13.402344-2.457031-4.945313-8.457031-6.964844-13.40625-4.511719zm0 0"/><path d="m428.386719 152.820312c-4.980469 2.382813-7.089844 8.351563-4.707031 13.335938 2.386718 4.992188 8.359374 7.085938 13.335937 4.707031l.023437-.011719c4.980469-2.382812 7.078126-8.347656 4.695313-13.332031-2.382813-4.980469-8.367187-7.082031-13.347656-4.699219zm0 0"/><path d="m113.617188 165.574219c-2.425782-4.960938-8.417969-7.011719-13.375-4.585938l-26.730469 13.082031c-4.960938 2.425782-7.015625 8.414063-4.585938 13.375 2.433594 4.976563 8.429688 7.007813 13.375 4.585938l26.730469-13.078125c4.960938-2.425781 7.015625-8.417969 4.585938-13.378906zm0 0"/><path d="m150.796875 178.839844-39.523437 19.339844c-9.46875 4.632812-6.179688 18.984374 4.402343 18.984374 4.101563 0 2.796875-.632812 43.910157-20.359374 4.960937-2.425782 7.015624-8.414063 4.585937-13.375-2.425781-4.960938-8.414063-7.015626-13.375-4.589844zm0 0"/></svg>