<?xml version="1.0" encoding="UTF-8"?>
<svg width="32px" height="32px" viewBox="0 0 32 32" version="1.1" xmlns="http://www.w3.org/2000/svg" xmlns:xlink="http://www.w3.org/1999/xlink">
    <title>optimizationcost</title>
    <g id="页面-1" stroke="none" stroke-width="1" fill="none" fill-rule="evenodd">
        <g id="图标" transform="translate(-489.000000, -40.000000)">
            <g id="optimizationcost" transform="translate(489.000000, 40.000000)">
                <path d="M15.1074475,17.3913043 L3.67532273,17.3913043 C2.79837688,17.3913043 2.08695652,16.6798456 2.08695652,15.8030637 L2.08695652,4.37080894 C2.08695652,3.49402708 2.79837688,2.7826087 3.67532273,2.7826087 L15.1074475,2.7826087 C15.9843934,2.7826087 16.6956522,3.49402708 16.6956522,4.37080894 L16.6956522,15.8030637 C16.6956522,16.6798456 15.9843934,17.3913043 15.1074475,17.3913043 Z M3.67532273,3.79175404 C3.36087275,3.79175404 3.09626623,4.0565214 3.09626623,4.37080894 L3.09626623,15.8030637 C3.09626623,16.1173916 3.36087275,16.3821186 3.67532273,16.3821186 L15.1074475,16.3821186 C15.4217359,16.3821186 15.686504,16.1173916 15.686504,15.8030637 L15.686504,4.37080894 C15.686504,4.0565214 15.4217359,3.79175404 15.1074475,3.79175404 L3.67532273,3.79175404 Z" id="Fill-1" fill="#424242"></path>
                <path d="M27.6290471,28.5217391 L16.1970399,28.5217391 C15.3201062,28.5217391 14.6086957,27.8103188 14.6086957,26.9335345 L14.6086957,15.5012481 C14.6086957,14.6244638 15.3201062,13.9130435 16.1970399,13.9130435 L27.6290471,13.9130435 C28.5059808,13.9130435 29.2173913,14.6244638 29.2173913,15.5012481 L29.2173913,26.9335345 C29.2173913,27.8103188 28.5059808,28.5217391 27.6290471,28.5217391 Z M16.1970399,14.9221916 C15.8825943,14.9221916 15.6179914,15.1869597 15.6179914,15.5012481 L15.6179914,26.9335345 C15.6179914,27.2478229 15.8825943,27.512591 16.1970399,27.512591 L27.6290471,27.512591 C27.9434927,27.512591 28.2080956,27.2478229 28.2080956,26.9335345 L28.2080956,15.5012481 C28.2080956,15.1869597 27.9434927,14.9221916 27.6290471,14.9221916 L16.1970399,14.9221916 Z" id="Fill-2" fill="#424242"></path>
                <path d="M11.1304348,16.3479398 C11.1304348,17.9634017 11.9922554,19.4561251 13.3913241,20.2638561 C14.7902741,21.0714683 16.5139154,21.0714683 17.9129841,20.2638561 C19.3120924,19.4561251 20.173913,17.9634017 20.173913,16.3479398 C20.173913,13.8505185 18.1494793,11.826087 15.6520948,11.826087 C13.1548685,11.826087 11.1304348,13.8505185 11.1304348,16.3479398 Z" id="Fill-3" fill="#6462F3"></path>
                <path d="M15.6521739,20.8695652 C12.7697943,20.8695652 10.4347826,18.5345142 10.4347826,15.6521739 C10.4347826,12.7696371 12.7697943,10.4347826 15.6521739,10.4347826 C18.5346714,10.4347826 20.8695652,12.7696371 20.8695652,15.6521739 C20.8695652,18.5345142 18.5185527,20.8695652 15.6521739,20.8695652 Z M15.6521739,11.8840121 C13.574983,11.8840121 11.9001308,13.5748257 11.9001308,15.6360159 C11.9001308,17.6972454 13.5911017,19.388059 15.6521739,19.388059 C17.7134034,19.388059 19.4041777,17.6972454 19.4041777,15.6360159 C19.4041777,13.5748257 17.7134034,11.8840121 15.6521739,11.8840121 Z" id="Fill-4" fill="#424242"></path>
                <path d="M0.695652174,3.47831943 C0.695652174,5.01498831 1.94137318,6.26086957 3.47828039,6.26086957 C5.01499239,6.26086957 6.26086957,5.01498831 6.26086957,3.47831943 C6.26086957,1.94149439 5.01499239,0.695652174 3.47828039,0.695652174 C1.94137318,0.695652174 0.695652174,1.94149439 0.695652174,3.47831943 Z" id="Fill-5" fill="#EFEFFD"></path>
                <path d="M3.13043478,6.95652174 C1.40489114,6.95652174 0,5.40873635 0,3.4867734 C0,1.56481045 1.40489114,0 3.13043478,0 C4.85597842,0 6.26086957,1.56481045 6.26086957,3.4867734 C6.26086957,5.40873635 4.84069328,6.95652174 3.13043478,6.95652174 Z M3.13043478,1.03749042 C1.92402683,1.03749042 0.931424485,2.14308108 0.931424485,3.4867734 C0.931424485,4.83034114 1.92402683,5.9359318 3.13043478,5.9359318 C4.33680546,5.9359318 5.32925868,4.83034114 5.32925868,3.4867734 C5.32925868,2.14308108 4.33680546,1.03749042 3.13043478,1.03749042 Z" id="Fill-6" fill="#424242"></path>
                <path d="M0.695652174,15.9999414 C0.695652174,17.5367665 1.94149439,18.7826087 3.47820231,18.7826087 C5.01502735,18.7826087 6.26086957,17.5367665 6.26086957,15.9999414 C6.26086957,14.4632335 5.01502735,13.2173913 3.47820231,13.2173913 C1.94149439,13.2173913 0.695652174,14.4632335 0.695652174,15.9999414 Z" id="Fill-7" fill="#EFEFFD"></path>
                <path d="M3.82603103,19.4782609 C2.10043602,19.4782609 0.695652174,17.9173028 0.695652174,16.0000207 C0.695652174,14.0826972 2.10043602,12.5217391 3.82603103,12.5217391 C5.55162605,12.5217391 6.95652174,14.0826972 6.95652174,16.0000207 C6.95652174,17.9173028 5.55162605,19.4782609 3.82603103,19.4782609 Z M3.82603103,13.5568271 C2.61973629,13.5568271 1.62710439,14.6597251 1.62710439,16.0000207 C1.62710439,17.3404406 2.61973629,18.4433386 3.82603103,18.4433386 C5.03243763,18.4433386 6.02506952,17.3404406 6.02506952,16.0000207 C6.02506952,14.6597251 5.03243763,13.5568271 3.82603103,13.5568271 Z" id="Fill-8" fill="#424242"></path>
                <path d="M13.2173913,3.47832919 C13.2173913,4.47239061 13.7476797,5.39094381 14.6087835,5.88799405 C15.4697311,6.3851614 16.5304641,6.3851614 17.3913727,5.88799405 C18.2523203,5.39094381 18.7826087,4.47239061 18.7826087,3.47832919 C18.7826087,1.94149876 17.5368877,0.695652174 16.0000195,0.695652174 C14.4632685,0.695652174 13.2173913,1.94149876 13.2173913,3.47832919 Z" id="Fill-9" fill="#EFEFFD"></path>
                <path d="M16.3478447,6.95652174 C14.6222908,6.95652174 13.2173913,5.39553158 13.2173913,3.47826087 C13.2173913,1.56099016 14.6222908,0 16.3478447,0 C18.0733986,0 19.4782609,1.56099016 19.4782609,3.47826087 C19.4782609,5.39553158 18.0581134,6.95652174 16.3478447,6.95652174 Z M16.3478447,1.05194101 C15.1414296,1.05194101 14.1489705,2.1548325 14.1489705,3.49524436 C14.1489705,4.83553195 15.1414296,5.93842345 16.3478447,5.93842345 C17.5542226,5.93842345 18.5468308,4.83553195 18.5468308,3.49524436 C18.5468308,2.1548325 17.5542226,1.05194101 16.3478447,1.05194101 Z" id="Fill-10" fill="#424242"></path>
                <path d="M25.7391304,14.608681 C25.7391304,15.6029178 26.2694189,16.5214887 27.1303665,17.0185095 C27.991314,17.5155693 29.0520471,17.5155693 29.9131508,17.0185095 C30.7740594,16.5214887 31.3043478,15.6029178 31.3043478,14.608681 C31.3043478,13.6146004 30.7740594,12.6960295 29.9131508,12.1989697 C29.0520471,11.7017927 27.991314,11.7017927 27.1303665,12.1989697 C26.2694189,12.6960295 25.7391304,13.6146004 25.7391304,14.608681 Z" id="Fill-11" fill="#EFEFFD"></path>
                <path d="M28.173913,18.0869565 C26.4483694,18.0869565 25.0434783,16.5259613 25.0434783,14.6087992 C25.0434783,12.69143 26.4483694,11.1304348 28.173913,11.1304348 C29.8994567,11.1304348 31.3043478,12.69143 31.3043478,14.6087992 C31.3043478,16.5259613 29.8841715,18.0869565 28.173913,18.0869565 Z M28.173913,12.1823657 C26.9675051,12.1823657 25.97494,13.28529 25.97494,14.6256175 C25.97494,15.9660693 26.9675051,17.0689936 28.173913,17.0689936 C29.3802837,17.0689936 30.3727369,15.9660693 30.3727369,14.6256175 C30.3727369,13.28529 29.3802837,12.1823657 28.173913,12.1823657 Z" id="Fill-12" fill="#424242"></path>
                <path d="M25.7391304,28.5217391 C25.7391304,29.5159316 26.2694189,30.4345368 27.1303665,30.9315549 C27.9914702,31.4286121 29.0522033,31.4286121 29.9131118,30.9315549 C30.7740594,30.4345368 31.3043478,29.5159316 31.3043478,28.5217391 C31.3043478,27.5276638 30.7740594,26.6090586 29.9131118,26.1120405 C29.0522033,25.6148271 27.9914702,25.6148271 27.1303665,26.1120405 C26.2694189,26.6090586 25.7391304,27.5276638 25.7391304,28.5217391 Z" id="Fill-13" fill="#EFEFFD"></path>
                <path d="M28.8695839,32 C27.1439927,32 25.7391304,30.4390048 25.7391304,28.521677 C25.7391304,26.6043078 27.1439927,25.0434783 28.8695839,25.0434783 C30.5951378,25.0434783 32,26.6043078 32,28.521677 C32,30.4390048 30.5951378,32 28.8695839,32 Z M28.8695839,26.0784252 C27.6631687,26.0784252 26.6707096,27.1813495 26.6707096,28.521677 C26.6707096,29.8621288 27.6631687,30.9650531 28.8695839,30.9650531 C30.0759617,30.9650531 31.06857,29.8621288 31.06857,28.521677 C31.06857,27.1813495 30.091247,26.0784252 28.8695839,26.0784252 Z" id="Fill-14" fill="#424242"></path>
                <path d="M12.5217391,28.5216806 C12.5217391,30.0585056 13.7676163,31.3043478 15.3043673,31.3043478 C16.8412355,31.3043478 18.0869565,30.0585056 18.0869565,28.5216806 C18.0869565,26.9849727 16.8412355,25.7391304 15.3043673,25.7391304 C13.7676163,25.7391304 12.5217391,26.9849727 12.5217391,28.5216806 Z" id="Fill-15" fill="#EFEFFD"></path>
                <path d="M14.9565217,32 C13.2309781,32 11.826087,30.4390048 11.826087,28.521677 C11.826087,26.6043078 13.2309781,25.0434783 14.9565217,25.0434783 C16.6820654,25.0434783 18.0869565,26.6043078 18.0869565,28.521677 C18.0869565,30.4390048 16.6820654,32 14.9565217,32 Z M14.9565217,26.0784252 C13.7501138,26.0784252 12.7576606,27.1813495 12.7576606,28.521677 C12.7576606,29.8621288 13.7501138,30.9650531 14.9565217,30.9650531 C16.1628924,30.9650531 17.1554948,29.8621288 17.1554948,28.521677 C17.1554948,27.1813495 16.1628924,26.0784252 14.9565217,26.0784252 Z" id="Fill-16" fill="#424242"></path>
            </g>
        </g>
    </g>
</svg>