<svg height="512pt" viewBox="0 -53 512 512" width="512pt" xmlns="http://www.w3.org/2000/svg"><g fill="#829db7"><path d="m502 368.527344c0 2.367187-.300781 4.664062-.863281 6.851562.5625-2.1875.863281-4.484375.863281-6.851562zm0 0"/><path d="m10 368.527344c0 2.839844.433594 5.578125 1.230469 8.152344-.796875-2.574219-1.230469-5.3125-1.230469-8.152344zm0 0"/><path d="m10.070312 238.550781c.023438-.582031.0625-1.167969.09375-1.75-.03125.582031-.070312 1.167969-.09375 1.75zm0 0"/><path d="m501.835938 236.804688c.03125.582031.070312 1.164062.09375 1.746093-.023438-.582031-.0625-1.164062-.09375-1.746093zm0 0"/><path d="m501.132812 229.734375c.125.898437.234376 1.796875.332032 2.699219-.722656-6.625-2.195313-13.152344-4.421875-19.453125l-18.03125-50.957031c-3.664063-10.363282-13.464844-17.289063-24.453125-17.289063h-23.5625v85zm0 0"/><path d="m81.003906 229.734375v-43.429687c0-12.167969 9.863282-22.03125 22.03125-22.03125h6.183594v-19.539063h-51.777344c-10.992187 0-20.789062 6.925781-24.453125 17.289063l-18.03125 50.957031c-2.230469 6.300781-3.699219 12.832031-4.425781 19.453125.101562-.902344.210938-1.800782.335938-2.695313h70.136718zm0 0"/><path d="m10.253906 235.410156c.0625-.777344.128906-1.550781.210938-2.324218-.078125.773437-.152344 1.546874-.210938 2.324218zm0 0"/><path d="m501.535156 233.085938c.082032.773437.152344 1.546874.210938 2.320312-.058594-.773438-.132813-1.546875-.210938-2.320312zm0 0"/></g><path d="m301.894531 96.441406 17.105469-19.035156c5.417969-6.027344 13.136719-9.46875 21.242188-9.46875h32.316406v-45.15625c0-7.058594-5.722656-12.78125-12.78125-12.78125h-30.152344c-10.71875 0-20.933594 4.554688-28.097656 12.527344l-8.671875 9.652344c-1.265625 1.40625-3.066407 2.210937-4.960938 2.210937h-126.417969c-12.167968 0-22.03125 9.863281-22.03125 22.03125v42.230469h157.492188c1.890625 0 3.695312-.804688 4.957031-2.210938zm0 0" fill="#ffcb78"/><path d="m305.378906 164.273438c1.890625 0 3.691406-.804688 4.957032-2.210938l22.410156-24.941406c5.414062-6.027344 13.136718-9.46875 21.238281-9.46875h48.796875v-46.933594c0-7.058594-5.71875-12.78125-12.777344-12.78125h-49.765625c-8.101562 0-15.824219 3.441406-21.238281 9.46875l-17.105469 19.035156c-1.261719 1.410156-3.066406 2.210938-4.957031 2.210938h-165.6875c-12.167969 0-22.035156 9.867187-22.035156 22.035156v43.585938zm0 0" fill="#ff9d6a"/><path d="m353.984375 127.652344c-8.101563 0-15.824219 3.441406-21.238281 9.46875l-22.410156 24.941406c-1.265626 1.40625-3.066407 2.210938-4.957032 2.210938h-202.34375c-12.167968 0-22.03125 9.863281-22.03125 22.03125v43.429687h349.992188v-89.300781c0-7.058594-5.722656-12.78125-12.78125-12.78125zm0 0" fill="#ffcb78"/><path d="m501.929688 238.550781c-.023438-.582031-.058594-1.164062-.09375-1.746093-.027344-.464844-.054688-.933594-.089844-1.398438-.058594-.773438-.128906-1.550781-.210938-2.320312-.019531-.21875-.042968-.4375-.066406-.652344-.101562-.902344-.210938-1.800782-.335938-2.699219h-490.265624c-.125.898437-.234376 1.796875-.332032 2.699219-.023437.214844-.046875.433594-.070312.652344-.082032.773437-.152344 1.546874-.210938 2.324218-.035156.464844-.058594.929688-.089844 1.390625-.03125.582031-.070312 1.167969-.09375 1.75-.042968 1.101563-.070312 2.203125-.070312 3.304688v126.671875c0 2.839844.433594 5.578125 1.230469 8.152344.269531.859374.578125 1.699218.921875 2.519531 4.164062 9.839843 13.90625 16.742187 25.261718 16.742187h437.171876c10.410156 0 19.464843-5.800781 24.105468-14.347656 1.054688-1.941406 1.882813-4.023438 2.445313-6.214844s.863281-4.484375.863281-6.851562v-126.671875c0-1.101563-.027344-2.203125-.070312-3.304688zm-307.207032 65.207031-5.980468-27.601562c-.808594-3.746094 2.042968-7.285156 5.875-7.285156h122.765624c3.832032 0 6.6875 3.539062 5.875 7.285156l-5.980468 27.601562c-2.160156 9.957032-10.96875 17.0625-21.15625 17.0625h-80.238282c-10.191406 0-19-7.105468-21.160156-17.0625zm0 0" fill="#b1d9ff"/><path d="m215.882812 320.820312h80.234376c10.191406 0 19-7.105468 21.160156-17.0625l5.980468-27.601562c.808594-3.746094-2.042968-7.285156-5.875-7.285156h-122.765624c-3.832032 0-6.683594 3.539062-5.875 7.285156l5.980468 27.601562c2.160156 9.957032 10.96875 17.0625 21.160156 17.0625zm0 0" fill="#f8f8f8"/><path d="m231.164062 174.273438c5.519532 0 10-4.476563 10-10 0-5.523438-4.480468-10-10-10h-.027343c-5.519531 0-9.984375 4.476562-9.984375 10 0 5.523437 4.488281 10 10.011718 10zm0 0"/><path d="m506.46875 209.644531-18.027344-50.957031c-5.070312-14.328125-18.6875-23.953125-33.882812-23.953125h-14.28125c-2.539063-9.8125-11.464844-17.082031-22.0625-17.082031h-5.433594v-36.933594c0-12.5625-10.21875-22.78125-22.777344-22.78125h-7.445312v-35.15625c0-12.5625-10.222656-22.78125-22.78125-22.78125h-30.152344c-27.289062 0-39.117188 21.023438-43.214844 24.390625h-124.933594c-17.664062 0-32.03125 14.371094-32.03125 32.035156v32.277344c-16.828124.941406-30.226562 14.925781-30.226562 31.980469v14.050781h-41.777344c-15.195312 0-28.8125 9.625-33.882812 23.953125l-18.027344 50.957031c-3.671875 10.371094-5.53125 21.210938-5.53125 32.210938v126.671875c0 20.628906 16.785156 37.414062 37.414062 37.414062h437.171876c20.628906 0 37.414062-16.785156 37.414062-37.414062v-126.671875c0-11-1.859375-21.839844-5.53125-32.210938zm-65.472656-54.910156h13.5625c6.742187 0 12.777344 4.269531 15.027344 10.625 0 0 18.804687 53.230469 19.148437 54.375h-47.738281zm-291.554688-98.308594c0-6.636719 5.398438-12.035156 12.035156-12.035156h126.417969c17.234375 0 17.996094-24.390625 41.730469-24.390625h30.148438c1.535156 0 2.78125 1.246094 2.78125 2.78125v35.15625h-22.316407c-10.921875 0-21.375 4.660156-28.675781 12.785156l-16.113281 17.929688h-146.007813zm-46.40625 117.847657h88.101563c5.523437 0 10-4.476563 10-10 0-5.523438-4.476563-10-10-10h-71.917969v-33.589844c0-6.632813 5.394531-12.03125 12.03125-12.03125h165.6875c4.722656 0 9.242188-2.015625 12.398438-5.527344l17.101562-19.035156c3.515625-3.910156 8.542969-6.15625 13.800781-6.15625h49.765625c1.53125 0 2.777344 1.25 2.777344 2.785156v36.933594h-38.796875c-10.921875 0-21.375 4.660156-28.675781 12.785156l-21.417969 23.832031h-32.753906c-5.523438 0-10 4.476563-10 10 0 5.523438 4.476562 10 10 10h34.242187c4.71875 0 9.234375-2.011719 12.394532-5.527343l22.410156-24.9375c3.511718-3.910157 8.542968-6.152344 13.800781-6.152344h64.230469c1.53125 0 2.78125 1.246094 2.78125 2.78125v79.300781h-329.992188v-33.429687c0-6.632813 5.398438-12.03125 12.03125-12.03125zm-60.621094-8.914063c2.25-6.355469 8.285157-10.625 15.027344-10.625h40.148438c-15.078125 2.59375-26.585938 15.761719-26.585938 31.570313v33.429687h-47.738281c.34375-1.144531 19.148437-54.375 19.148437-54.375zm432.171876 220.582031h-437.171876c-9.601562 0-17.414062-7.8125-17.414062-17.414062 0 0 .011719-128.085938.027344-128.792969h471.941406c.019531.707031.03125 128.792969.03125 128.792969 0 9.605468-7.8125 17.414062-17.414062 17.414062zm0 0"/><path d="m317.382812 258.871094h-122.765624c-10.21875 0-17.808594 9.433594-15.648438 19.402344l5.980469 27.601562c3.132812 14.457031 16.140625 24.949219 30.933593 24.949219h80.234376c14.792968 0 27.800781-10.492188 30.933593-24.945313l5.980469-27.605468c2.164062-9.988282-5.449219-19.402344-15.648438-19.402344zm-9.878906 42.769531c-1.152344 5.320313-5.941406 9.179687-11.386718 9.179687h-80.234376c-5.445312 0-10.234374-3.859374-11.386718-9.179687l-4.933594-22.769531h112.875zm0 0"/></svg>