<svg height="512pt" viewBox="-84 0 512 512.001" width="512pt" xmlns="http://www.w3.org/2000/svg"><g fill="#f8f8f8"><path d="m59.019531 272.566406v29.472656c2.34375-7.070312 5.347657-13.925781 9-20.472656zm0 0"/><path d="m285.75 302v-29.433594l-9 8.996094c3.605469 6.46875 6.628906 13.300781 9 20.4375zm0 0"/><path d="m239.488281 339.617188c0-37.0625-30.042969-67.101563-67.105469-67.101563-44.195312 0-76.121093 41.90625-64.847656 84.359375h129.710938c1.460937-5.507812 2.242187-11.292969 2.242187-17.257812zm0 0"/></g><path d="m316.558594 306.867188h-29.3125c-.464844-1.636719-.964844-3.261719-1.5-4.867188-2.367188-7.132812-5.390625-13.96875-8.996094-20.433594l8.996094-9 11.742187-11.742187c7.109375-7.109375 7.109375-18.636719 0-25.75-1.121093-1.121094-20.464843-20.464844-20.566406-20.5625-7.109375-7.113281-18.636719-7.113281-25.75 0l-20.738281 20.738281c-7.925782-4.414062-16.398438-7.964844-25.300782-10.496094v-29.3125c0-10.058594-8.152343-18.210937-18.210937-18.210937h-29.082031c-10.054688 0-18.207032 8.152343-18.207032 18.210937v29.3125c-8.902343 2.53125-17.378906 6.082032-25.300781 10.496094l-20.742187-20.738281c-7.109375-7.113281-18.636719-7.113281-25.75 0-3.339844 3.339843-12.445313 12.445312-20.5625 20.5625-7.113282 7.113281-7.113282 18.640625 0 25.75l11.738281 11.742187 9 9c-4.496094 8.066406-8.0625 16.742188-10.5 25.300782h-29.3125c-10.054687 0-18.207031 8.152343-18.207031 18.207031v29.082031c0 10.058594 8.152344 18.210938 18.207031 18.210938h29.3125c2.535156 8.902343 6.082031 17.375 10.5 25.300781l-20.742187 20.738281c-7.109376 7.113281-7.109376 18.640625 0 25.75l20.566406 20.566406c7.109375 7.113282 18.636718 7.113282 25.75 0l20.738281-20.738281c7.925781 4.414063 16.398437 7.964844 25.304687 10.496094v29.3125c0 10.058593 8.152344 18.210937 18.207032 18.210937h29.082031c10.054687 0 18.207031-8.152344 18.207031-18.210937v-29.3125c8.90625-2.53125 17.378906-6.082031 25.304688-10.496094l20.738281 20.738281c7.113281 7.113282 18.640625 7.113282 25.75 0l20.566406-20.566406c7.109375-7.109375 7.109375-18.636719 0-25.75l-20.742187-20.738281c4.417968-7.925781 7.964844-16.398438 10.5-25.300781h29.3125c10.054687 0 18.207031-8.152344 18.207031-18.210938v-29.082031c.003906-10.054688-8.148437-18.207031-18.207031-18.207031zm-144.175782 99.851562c-31.128906 0-57.234374-21.179688-64.847656-49.84375-11.296875-42.546875 20.75-84.363281 64.847656-84.363281 37.0625 0 67.105469 30.042969 67.105469 67.101562 0 5.96875-.78125 11.753907-2.242187 17.261719-7.617188 28.695312-33.769532 49.84375-64.863282 49.84375zm0 0" fill="#ff838e"/><path d="m93.59375 214.511719 20.738281 20.738281c7.925781-4.417969 16.398438-7.964844 25.304688-10.496094v-29.316406c0-10.054688 8.152343-18.207031 18.207031-18.207031h29.082031c10.058594 0 18.207031 8.152343 18.207031 18.207031v29.316406c8.90625 2.53125 17.378907 6.078125 25.304688 10.496094l20.738281-20.738281c7.113281-7.113281 18.640625-7.113281 25.75 0 .886719.882812 4.6875 4.683593 8.824219 8.820312v-186.890625c0-14.601562-11.839844-26.441406-26.445312-26.441406-147.402344.230469-141.246094-.554688-146.457032.644531v39.109375c0 8.332032-6.753906 15.089844-15.089844 15.089844h-37.925781c-1.53125 5.894531-.523437-.042969-.808593 158.488281l8.820312-8.820312c7.109375-7.113281 18.640625-7.113281 25.75 0zm0 0" fill="#f8f8f8"/><path d="m112.847656 49.753906v-39.109375c-5.90625 1.59375-8.566406 3.359375-12.464844 7.097657-24.742187 25.976562-34.625 36.289062-35.429687 37.238281-2.355469 2.769531-4.152344 6.140625-5.121094 9.863281h37.921875c8.335938 0 15.09375-6.753906 15.09375-15.089844zm0 0" fill="#829db7"/><path d="m316.558594 296.867188h-20.808594v-20.160157c4.878906-6.066406 17.074219-12.527343 17.074219-28.757812 0-16.203125-12.289063-22.808594-17.074219-28.757813v-182.75c0-20.09375-16.347656-36.441406-36.445312-36.441406h-140.84375c-9.136719 0-18.535157 3.730469-25.316407 10.84375l-34.464843 36.160156c-6.082032 6.378906-9.660157 14.933594-9.660157 24.128906v148.058594l-8.8125 8.8125c-11.023437 11.023438-11.023437 28.867188 0 39.894532l8.8125 8.8125v20.15625h-20.8125c-15.550781 0-28.207031 12.65625-28.207031 28.207031v29.085937c0 15.554688 12.65625 28.207032 28.207031 28.207032h22c1.597657 4.5625 3.457031 9.039062 5.566407 13.40625l-15.566407 15.5625c-5.328125 5.328124-8.261719 12.414062-8.261719 19.945312 0 7.535156 2.933594 14.621094 8.261719 19.949219l20.566407 20.5625c11 11 28.894531 11 39.890624 0l15.5625-15.5625c4.367188 2.109375 8.847657 3.96875 13.410157 5.566406v21.996094c0 15.554687 12.652343 28.207031 28.207031 28.207031h29.082031c15.554688 0 28.207031-12.652344 28.207031-28.207031v-21.996094c4.5625-1.601563 9.042969-3.457031 13.410157-5.566406l15.5625 15.5625c10.996093 11 28.890625 11 39.890625 0l20.5625-20.5625c5.328125-5.328125 8.265625-12.414063 8.265625-19.949219 0-7.53125-2.9375-14.617188-8.265625-19.945312l-15.5625-15.5625c2.109375-4.367188 3.96875-8.84375 5.566406-13.40625h21.996094c15.554687 0 28.210937-12.652344 28.210937-28.207032v-29.085937c0-15.554688-12.65625-28.207031-28.210937-28.207031zm-40.808594-260.425782v165.273438c-20.9375-9.566406-32.355469 6.554687-47.210938 21.285156-4.367187-2.105469-8.84375-3.964844-13.40625-5.5625v-22c0-15.550781-12.652343-28.207031-28.207031-28.207031h-29.082031c-15.554688 0-28.210938 12.65625-28.210938 28.207031v22c-4.558593 1.597656-9.039062 3.457031-13.40625 5.5625-14.886718-14.757812-15.433593-15.644531-17.699218-17.496094-.84375-.472656-7.085938-6.328125-17.808594-6.328125-4.101562 0-8.074219.871094-11.699219 2.523438v-126.851563h28.734375c13.835938 0 25.09375-11.257812 25.09375-25.09375v-29.753906h136.457032c9.066406 0 16.445312 7.378906 16.445312 16.441406zm-172.902344-6.792968v20.105468c0 2.808594-2.285156 5.09375-5.09375 5.09375h-18.921875c2.375-2.496094 21.257813-22.304687 24.015625-25.199218zm221.921875 324.507812c0 4.527344-3.683593 8.207031-8.210937 8.207031h-29.3125c-4.46875 0-8.394532 2.964844-9.617188 7.265625-2.285156 8.027344-5.519531 15.820313-9.613281 23.167969-2.175781 3.90625-1.5 8.78125 1.664063 11.941406l20.738281 20.738281c1.550781 1.550782 2.40625 3.613282 2.40625 5.804688 0 5.847656-4.238281 6.648438-22.972657 26.367188-3.195312 3.203124-8.402343 3.203124-11.605468 0l-20.738282-20.738282c-3.164062-3.160156-8.039062-3.839844-11.941406-1.664062-7.347656 4.097656-15.144531 7.332031-23.167968 9.613281-4.300782 1.226563-7.265626 5.152344-7.265626 9.621094v29.3125c0 4.523437-3.679687 8.207031-8.207031 8.207031h-29.082031c-4.527344 0-8.207031-3.683594-8.207031-8.207031v-29.3125c0-4.46875-2.964844-8.398438-7.265625-9.621094-8.023438-2.28125-15.820313-5.515625-23.167969-9.613281-3.886719-2.167969-8.765625-1.511719-11.941406 1.664062l-20.738281 20.738282c-3.199219 3.203124-8.40625 3.203124-11.605469 0l-20.566407-20.5625c-1.550781-1.550782-2.402343-3.613282-2.402343-5.804688 0-5.871094 4.472656-6.898438 23.140625-26.542969 3.164062-3.160156 3.839844-8.035156 1.664062-11.941406-4.09375-7.347656-7.328125-15.140625-9.613281-23.167969-1.222656-4.300781-5.148437-7.265625-9.617187-7.265625h-29.3125c-4.527344 0-8.207032-3.679687-8.207032-8.207031v-29.082031c0-4.527344 3.679688-8.207031 8.207032-8.207031h29.3125c4.46875 0 8.394531-2.964844 9.617187-7.265626 2.195313-7.707031 5.5-15.789062 9.613281-23.167968 2.179688-3.90625 1.5-8.78125-1.664062-11.941406l-20.738282-20.738282c-3.207031-3.207031-3.207031-8.398437 0-11.605468l20.566407-20.566407c3.199219-3.199219 8.40625-3.199219 11.605469 0l20.742187 20.738281c3.160156 3.164063 8.035156 3.84375 11.9375 1.664063.917969-.511719 1.84375-1.007813 2.777344-1.496094 6.523437-3.390625 13.371093-6.117187 20.394531-8.117187 3.757812-1.070313 6.5-4.210938 7.125-7.972656.089844-.535157.136719-1.085938.136719-1.644532v-29.3125c0-4.527344 3.683593-8.210937 8.207031-8.210937h29.082031c4.527344 0 8.210938 3.683593 8.210938 8.210937v29.3125c0 4.457032 2.953125 8.390625 7.261719 9.617188 15.746093 4.480468 22.21875 9.695312 25.515624 10.554687 3.300782.863281 7.011719-.023437 9.59375-2.605469 21.871094-21.847656 20.75-20.800781 21.363282-21.300781 3.253906-2.652343 8.019531-2.40625 10.984375.5625 18.976562 19.976563 22.96875 20.535157 22.96875 26.367188 0 2.195312-.855469 4.253906-2.402344 5.804687l-20.742187 20.738282c-3.160157 3.164062-3.839844 8.039062-1.664063 11.941406 4.207031 7.546875 7.476563 15.65625 9.613281 23.171875 1.222656 4.296875 5.152344 7.261719 9.621094 7.261719h29.3125c4.523438 0 8.207031 3.683593 8.207031 8.207031zm0 0"/><path d="m199.355469 289.210938c4.980469 2.074218 10.882812-.195313 13.050781-5.402344.25-.609375.449219-1.238282.566406-1.867188.914063-4.5625-1.453125-9.308594-5.96875-11.191406-6.019531-2.46875-12.511718 1.320312-13.628906 7.28125-.960938 4.71875 1.621094 9.390625 5.980469 11.179688zm0 0"/><path d="m239.988281 302.511719c-2.664062-4.839844-8.742187-6.605469-13.582031-3.945313-4.855469 2.671875-6.597656 8.757813-3.945312 13.582032 5.699218 10.359374 8.109374 22.496093 6.550781 34.726562h-113.25c-4.035157-31.625 18.585937-60.300781 49.898437-63.96875 5.484375-.644531 9.410156-5.609375 8.769532-11.097656-.648438-5.527344-5.664063-9.398438-11.097657-8.769532-39.066406 4.578126-68.046875 37.945313-68.046875 76.574219v.003907c0 42.246093 34.367188 77.101562 77.101563 77.101562 35.515625 0 65.484375-24.148438 74.394531-56.882812.039062-.132813.085938-.261719.121094-.398438 5.300781-20.007812 2.167968-40.410156-6.914063-56.925781zm-117.769531 64.363281h100.332031c-21.6875 39.746094-78.640625 39.753906-100.332031 0zm0 0"/></svg>