<?xml version="1.0" encoding="UTF-8"?>
<svg width="32px" height="29px" viewBox="0 0 32 29" version="1.1" xmlns="http://www.w3.org/2000/svg" xmlns:xlink="http://www.w3.org/1999/xlink">
    <title>High-quality-mirror-image</title>
    <g id="页面-1" stroke="none" stroke-width="1" fill="none" fill-rule="evenodd">
        <g id="图标" transform="translate(-158.000000, -41.000000)">
            <g id="High-quality-mirror-image" transform="translate(158.000000, 41.000000)">
                <path d="M31.3632015,14.6086957 L0.63667889,14.6086957 C0.293805804,14.6086957 0,14.3311418 0,13.9720155 C0,13.612929 0.277622768,13.3355346 0.63667889,13.3355346 L31.3632015,13.3355346 C31.7060348,13.3355346 32,13.612929 32,13.9720155 C32,14.3311418 31.7224171,14.6086957 31.3632015,14.6086957 Z M23.5102041,10.7238189 L8.45711097,10.7238189 C7.82043208,10.7238189 7.26534598,10.2994584 7.10204082,9.69549491 L4.88157685,1.76287522 C4.76729911,1.33839521 4.84901148,0.897736176 5.11013233,0.554948242 C5.3877551,0.195821891 5.79583865,0 6.23680644,0 L25.7143256,0 C26.1551339,0 26.5795599,0.195821891 26.8408402,0.554948242 C27.1021205,0.897736176 27.1836735,1.33839521 27.0693957,1.76287522 L24.8652742,9.69549491 C24.7021285,10.3157968 24.146883,10.7238189 23.5102041,10.7238189 Z M6.25298948,1.27316109 C6.18773916,1.27316109 6.15505421,1.30587777 6.1225287,1.33839521 C6.10614636,1.37107204 6.08980389,1.40378872 6.10614636,1.43630615 L8.31026786,9.36908524 C8.32649075,9.4344389 8.39186065,9.46699619 8.45711097,9.46699619 L23.5102041,9.46699619 C23.5754544,9.46699619 23.6408642,9.41810049 23.6572066,9.36908524 L25.8611687,1.43630615 C25.8775112,1.40378872 25.8611687,1.37107204 25.8449458,1.33839521 C25.8286033,1.32205679 25.7959184,1.27316109 25.730668,1.27316109 L6.25298948,1.27316109 Z" id="Fill-1" fill="#424242"></path>
                <polygon id="Fill-2" fill="#D7D7FF" points="23.0227142 9.04347826 8.96070659 9.04347826 6.95652174 2.08695652 25.0434783 2.08695652"></polygon>
                <path d="M25.0462244,28.5217391 L5.57867531,28.5217391 C5.13813333,28.5217391 4.71388559,28.3311952 4.45277942,27.9817483 C4.1916334,27.6481994 4.11008254,27.2194173 4.22430155,26.8064945 L6.42729031,19.0875643 C6.59039203,18.4998793 7.16152693,18.0869565 7.78166406,18.0869565 L22.827061,18.0869565 C23.4633728,18.0869565 24.0181736,18.4998793 24.1814347,19.0875643 L26.3844235,26.8064945 C26.4986425,27.2194173 26.4169323,27.6481994 26.1559456,27.9817483 C25.8947996,28.3152583 25.4867664,28.5217391 25.0462244,28.5217391 Z M7.78166406,19.3099044 C7.71648712,19.3099044 7.65111098,19.3417393 7.6347769,19.4051764 L5.43178815,27.1241454 C5.41561343,27.1559415 5.43178815,27.1875825 5.44812222,27.2194173 C5.4644563,27.2353154 5.49712445,27.2828544 5.56234123,27.2828544 L25.0298904,27.2828544 C25.0952267,27.2828544 25.1278948,27.2512134 25.1441094,27.2194173 C25.1604434,27.1875825 25.1767775,27.1559415 25.1604434,27.1241454 L22.957614,19.4051764 C22.94128,19.3417393 22.8759038,19.3099044 22.810687,19.3099044 L7.78166406,19.3099044 Z" id="Fill-3" fill="#424242"></path>
                <polygon id="Fill-4" fill="#D7D7FF" points="8.26685723 19.4782609 22.3417979 19.4782609 24.3478261 26.4347826 6.26086957 26.4347826"></polygon>
            </g>
        </g>
    </g>
</svg>