<svg height="511pt" viewBox="-69 0 511 511.99889" width="511pt" xmlns="http://www.w3.org/2000/svg"><path d="m170.089844 432.808594v-81.5625c0-7.398438 5.996094-13.398438 13.398437-13.398438h126.71875v-301.621094c0-14.472656-11.734375-26.203124-26.203125-26.203124-191.238281.148437-181.949218-.371094-187.234375.414062v53.0625c0 17.847656-14.46875 32.316406-32.320312 32.316406h-51.765625c-3.875 11.246094-1.320313-5.960937-2.046875 379.980469 0 14.472656 11.730469 26.203125 26.203125 26.203125h247.164062c14.46875 0 26.203125-11.730469 26.203125-26.203125v-29.589844h-126.71875c-7.402343 0-13.398437-6-13.398437-13.398437zm-58.140625-136.417969h-30.296875c-11.121094 0-20.136719-9.015625-20.136719-20.140625v-127.484375c0-11.121094 9.015625-20.140625 20.136719-20.140625h159.050781c11.121094 0 20.140625 9.019531 20.140625 20.140625v24.574219h-148.894531zm0 0" fill="#f8f8f8"/><path d="m96.769531 63.5c0-9.796875 0-43.1875 0-53.175781-8.59375 1.269531-16.542969 5.492187-22.410156 12.050781-53.4375 61.066406-57.5 60.992188-61.765625 73.445312h51.855469c17.851562 0 32.320312-14.472656 32.320312-32.320312zm0 0" fill="#829db7"/><path d="m339.925781 284.433594h-29.71875v53.414062h28.058594c14.324219 0 25.9375-11.613281 25.9375-25.9375v-3.199218c0-13.410157-10.871094-24.277344-24.277344-24.277344zm0 0" fill="#b1d9ff"/><path d="m338.265625 337.847656c-22.230469 0-135.238281 0-154.777344 0-7.402343 0-13.398437 6-13.398437 13.398438v81.5625c0 7.398437 5.996094 13.398437 13.398437 13.398437h151.679688c16.035156 0 29.035156-13 29.035156-29.035156 0-9.585937 0-90.914063 0-105.261719 0 14.324219-11.613281 25.9375-25.9375 25.9375zm0 0" fill="#63d9b8"/><path d="m81.652344 128.625c-11.121094 0-20.136719 9.019531-20.136719 20.140625v127.484375c0 11.125 9.015625 20.140625 20.136719 20.140625h30.300781v-167.765625zm0 0" fill="#ffcb78"/><path d="m260.84375 148.765625c0-11.121094-9.019531-20.140625-20.140625-20.140625h-128.753906v44.714844h148.890625v-24.574219zm0 0" fill="#ff838e"/><path d="m270.84375 276.25v-127.484375c0-16.617187-13.523438-30.140625-30.140625-30.140625h-7.480469c-5.519531 0-10 4.476562-10 10s4.480469 10 10 10h7.480469c5.589844 0 10.140625 4.550781 10.140625 10.140625v14.578125h-128.894531v-24.71875h31.277343c5.523438 0 10-4.476562 10-10s-4.476562-10-10-10c-16.34375 0-56.949218 0-71.574218 0-16.667969 0-30.136719 13.574219-30.136719 30.140625.054687 135.710937-.652344 130 1.355469 136.4375 3.820312 12.261719 15.28125 21.1875 28.78125 21.1875h159.050781c16.617187 0 30.140625-13.519531 30.140625-30.140625zm-30.140625 10.140625h-118.753906v-24.714844h128.894531v14.574219c0 5.59375-4.550781 10.140625-10.140625 10.140625zm10.140625-44.714844h-128.894531v-19.167969h128.894531zm0-58.335937v19.167968h-128.894531v-19.167968zm-148.890625-44.714844v24.71875h-30.441406v-14.578125c0-5.589844 4.550781-10.140625 10.140625-10.140625zm-20.300781 147.765625c-5.589844 0-10.140625-4.546875-10.140625-10.140625v-92.910156h30.441406v103.050781zm0 0"/><path d="m193.25 138.625c5.523438 0 10-4.476562 10-10s-4.476562-10-10-10h-.023438c-5.523437 0-9.988281 4.476562-9.988281 10s4.488281 10 10.011719 10zm0 0"/><path d="m339.925781 274.433594h-19.722656v-238.207032c0-19.960937-16.238281-36.2031245-36.199219-36.2031245-179.546875.1093745-183.824218-.3085935-188.695312.4101565-10.945313 1.613281-21.035156 7.039062-28.402344 15.273437-50.050781 57.453125-61.484375 64.683594-64.117188 78.199219-3.980468 12.789062-1.390624-4.09375-2.152343 381.890625 0 19.960937 16.242187 36.203125 36.203125 36.203125h247.164062c19.960938 0 36.203125-16.242188 36.203125-36.203125v-19.589844h14.960938c21.523437 0 39.035156-17.511719 39.035156-39.039062 0-37.359375 0-79.25 0-108.457031 0-18.902344-15.378906-34.277344-34.277344-34.277344zm0 20c7.871094 0 14.277344 6.402344 14.277344 14.277344v3.199218c0 8.789063-7.152344 15.9375-15.9375 15.9375h-18.0625v-33.414062zm-253.15625-269.601563v38.667969c0 12.304688-10.011719 22.320312-22.320312 22.320312h-33.328125c53.660156-59.542968 50.75-57.628906 55.648437-60.988281zm213.4375 450.964844c0 8.933594-7.269531 16.203125-16.203125 16.203125h-247.164062c-8.933594 0-16.203125-7.269531-16.203125-16.203125.035156-384.460937-.085938-367.757813.089843-369.980469h43.722657c23.335937 0 42.320312-18.980468 42.320312-42.316406v-43.476562h177.234375c8.933594 0 16.203125 7.269531 16.203125 16.203124v291.621094h-116.71875c-12.902343 0-23.398437 10.496094-23.398437 23.398438v81.5625c0 12.902344 10.496094 23.398437 23.398437 23.398437h116.71875zm53.996094-58.625c0 10.496094-8.539063 19.035156-19.035156 19.035156-23.324219 0-129.949219 0-151.679688 0-1.875 0-3.398437-1.523437-3.398437-3.398437v-81.5625c0-1.871094 1.523437-3.398438 3.398437-3.398438h126.71875c28.289063-.019531 34.191407 1.144532 43.996094-3.730468zm0 0"/></svg>