<?xml version="1.0" encoding="UTF-8"?>
<svg width="28px" height="32px" viewBox="0 0 28 32" version="1.1" xmlns="http://www.w3.org/2000/svg" xmlns:xlink="http://www.w3.org/1999/xlink">
    <title>zidian</title>
    <defs>
        <polygon id="path-1" points="0 0 27.7894737 0 27.7894737 32 0 32"></polygon>
    </defs>
    <g id="页面-1" stroke="none" stroke-width="1" fill="none" fill-rule="evenodd">
        <g id="图标" transform="translate(-574.000000, -40.000000)">
            <g id="zidian" transform="translate(574.000000, 40.000000)">
                <mask id="mask-2" fill="white">
                    <use xlink:href="#path-1"></use>
                </mask>
                <g id="Clip-2"></g>
                <path d="M27.7894737,10.1052632 L12.9020036,10.1052632 L12.9020036,8.08406838 L25.8045113,8.08406838 L25.8045113,2.02103684 L4.96207637,2.02103684 C3.31765584,2.02103684 1.98453581,3.37835829 1.98453581,5.05263158 C1.98453581,6.72690487 3.31765584,8.08406838 4.96207637,8.08406838 L6.82797904,8.08406838 L6.82797904,10.1052632 L4.96207637,10.1052632 C2.22145305,10.1049473 0,7.84285014 0,5.05263158 C0,2.26225507 2.22145305,0.00015794286 4.96207637,0 L27.7894737,0 L27.7894737,10.1052632 Z" id="Fill-1" fill="#424242" mask="url(#mask-2)"></path>
                <path d="M27.7894737,32 L4.96245865,32 C2.2217261,32 0,29.7782863 0,27.0375691 L0,5.20308231 L1.98496795,5.20308231 L1.98496795,27.0375691 C1.98496795,27.8273014 2.29866765,28.5845743 2.85707562,29.1429403 C3.41544481,29.7013452 4.17276065,30.0150819 4.96245865,30.0150819 L25.8045445,30.0150819 L25.8045445,9.17295726 L27.7894737,9.17295726 L27.7894737,32 Z M12.9022529,6.19548318 L26.7970673,6.19548318 L26.7970673,4.21052632 L12.9022529,4.21052632 L12.9022529,6.19548318 Z" id="Fill-4" fill="#424242" mask="url(#mask-2)"></path>
                <path d="M13.4736842,22.7368421 L9.68428456,20.1154245 L5.89473684,22.7368421 L5.89473684,4.21052632 L13.4736842,4.21052632 L13.4736842,22.7368421 Z M7.78941816,6.17409589 L7.78941816,19.0649317 L9.68428456,17.7592485 L11.5789659,19.0649317 L11.5789659,6.17409589 L7.78941816,6.17409589 Z" id="Fill-3" fill="#6462F3" mask="url(#mask-2)"></path>
            </g>
        </g>
    </g>
</svg>