<svg height="511pt" viewBox="-62 0 511 511.99992" width="511pt" xmlns="http://www.w3.org/2000/svg"><path d="m244.441406 378.972656c0-4.167968-3.378906-7.550781-7.546875-7.550781h-35.5625c-14.667969 0-23.09375-16.683594-14.390625-28.488281l79.359375-107.628906c3.164063-4.292969 7.769531-6.679688 12.539063-7.167969v-191.933594c0-14.472656-11.730469-26.203125-26.203125-26.203125-157.585938.148438-150.71875-.371094-156 .410156v53.070313c0 17.847656-14.46875 32.320312-32.320313 32.320312h-51.769531c-3.882813 11.257813-1.328125-1.15625-2.046875 324.175781 0 14.472657 11.730469 26.207032 26.203125 26.207032h207.738281zm0 0" fill="#f8f8f8"/><path d="m96.636719 63.480469c0-9.796875 0-43.195313 0-53.179688-8.59375 1.269531-16.542969 5.492188-22.410157 12.050781-29.691406 33.929688-44.140624 48.984376-51.851562 57.804688-6.164062 7.050781-8.023438 10.113281-9.917969 15.644531h51.859375c17.851563 0 32.320313-14.472656 32.320313-32.320312zm0 0" fill="#829db7"/><path d="m244.441406 463.710938v-17.527344h-77.617187v11.757812c0 23.488282 18.414062 42.667969 41.59375 43.898438 20.082031-1.125 36.023437-17.761719 36.023437-38.128906zm0 0" fill="#1dd0a8"/><path d="m374.441406 342.933594-79.359375-107.628906c-7.132812-9.675782-21.632812-9.695313-28.78125 0l-79.359375 107.628906c-8.703125 11.804687-.277344 28.488281 14.390625 28.488281h35.5625c4.167969 0 7.546875 3.382813 7.546875 7.550781v84.738282c0 21.132812-17.148437 38.195312-38.195312 38.195312h78.980468c17.515626 0 31.714844-14.199219 31.714844-31.714844v-91.21875c0-4.167968 3.378906-7.550781 7.546875-7.550781h35.5625c14.667969 0 23.09375-16.683594 14.390625-28.488281zm0 0" fill="#63d9b8"/><path d="m382.488281 337-79.359375-107.628906c-3.640625-4.9375-8.628906-8.429688-14.289062-10.136719v-183.03125c0-19.960937-16.242188-36.203125-36.203125-36.203125h-150.511719c-14.472656 0-26.84375 6.179688-35.347656 15.683594l-54.261719 60.617187c-7.84375 8.769531-12.015625 19.902344-12.015625 31.683594v311.992187c0 19.964844 16.242188 36.203126 36.203125 36.203126h120.121094v1.761718c0 25.78125 18.113281 47.496094 42.558593 52.742188 4.230469 2.3125 1.878907.78125 85.84375 1.21875 23 0 41.714844-18.710938 41.714844-41.710938v-88.769531h33.109375c10.578125 0 20.113281-5.867187 24.882813-15.308594 4.773437-9.445312 3.832031-20.601562-2.445313-29.113281zm-295.847656-312.195312v38.675781c0 12.308593-10.015625 22.324219-22.324219 22.324219h-33.335937c53.527343-59.390626 50.761719-57.644532 55.660156-61zm90.179687 433.136718v-1.761718h57.625c-.21875 5.640624 1 11.890624-2.816406 19.800781-4.289062 8.84375-13.050781 15.089843-23.265625 15.839843-17.738281-1.246093-31.542969-16.011718-31.542969-33.878906zm183.230469-96.515625h-35.5625c-9.671875 0-17.542969 7.871094-17.542969 17.546875v91.21875c0 11.972656-9.742187 21.714844-21.71875 21.714844h-39.90625c11.800782-16.332031 9.121094-21.445312 9.121094-112.933594 0-9.675781-7.875-17.546875-17.546875-17.546875h-35.5625c-6.390625 0-10.238281-7.273437-6.34375-12.558593l23.488281-31.855469c3.277344-4.445313 2.332032-10.703125-2.113281-13.980469-4.445312-3.273438-10.703125-2.332031-13.980469 2.113281l-23.488281 31.855469c-13.621093 18.476562-.246093 44.421875 22.4375 44.421875h33.113281v54.761719h-197.742187c-8.9375 0-16.207031-7.269532-16.207031-16.207032.035156-332.410156-.085938-311.960937.09375-314.179687h43.726562c23.335938 0 42.320313-18.984375 42.320313-42.316406v-43.484375h146c8.9375 0 16.207031 7.269531 16.207031 16.207031v184.457031c-4.300781 2.011719-7.992188 5.117188-10.660156 8.804688-13.789063 19.871094-16.15625 20.78125-16.632813 25.390625-1.058593 10.210937 12.113281 15.136719 18.054688 6.882812 14.988281-20.839843 15.53125-23.160156 20.246093-23.65625 2.902344-.304687 5.550782.9375 7.183594 3.15625l79.363282 107.625c3.839843 5.214844.128906 12.5625-6.347657 12.5625zm0 0"/><path d="m230.71875 273.597656h-.027344c-5.519531 0-9.984375 4.476563-9.984375 10 0 5.519532 4.488281 9.996094 10.011719 9.996094s9.996094-4.476562 9.996094-9.996094c0-5.523437-4.472656-10-9.996094-10zm0 0"/><path d="m78.128906 145.597656h137.765625c5.519531 0 9.996094-4.472656 9.996094-9.996094 0-5.523437-4.476563-10-9.996094-10h-137.765625c-5.519531 0-9.996094 4.476563-9.996094 10 0 5.523438 4.476563 9.996094 9.996094 9.996094zm0 0"/><path d="m225.890625 191.75c0-5.523438-4.476563-10-9.996094-10h-137.765625c-5.519531 0-9.996094 4.476562-9.996094 10s4.476563 9.996094 9.996094 9.996094h137.765625c5.519531 0 9.996094-4.472656 9.996094-9.996094zm0 0"/><path d="m185.101562 237.898438h-106.972656c-5.519531 0-9.996094 4.476562-9.996094 10 0 5.519531 4.476563 9.996093 9.996094 9.996093h106.972656c5.523438 0 10-4.476562 10-9.996093 0-5.523438-4.476562-10-10-10zm0 0"/><path d="m152.28125 294.046875h-74.148438c-5.523437 0-10 4.476563-10 10 0 5.519531 4.476563 9.996094 10 9.996094h74.148438c5.523438 0 10-4.476563 10-9.996094 0-5.523437-4.480469-10-10-10zm0 0"/><path d="m131.617188 350.195312h-53.488282c-5.519531 0-9.996094 4.476563-9.996094 10 0 5.519532 4.476563 9.996094 9.996094 9.996094h53.488282c5.519531 0 9.996093-4.476562 9.996093-9.996094 0-5.523437-4.476562-10-9.996093-10zm0 0"/></svg>