<?xml version="1.0" encoding="UTF-8"?>
<svg width="32px" height="32px" viewBox="0 0 32 32" version="1.1" xmlns="http://www.w3.org/2000/svg" xmlns:xlink="http://www.w3.org/1999/xlink">
    <title>biaoge</title>
    <defs>
        <polygon id="path-1" points="0 0.177019894 31.3333333 0.177019894 31.3333333 31.5103532 0 31.5103532"></polygon>
    </defs>
    <g id="页面-1" stroke="none" stroke-width="1" fill="none" fill-rule="evenodd">
        <g id="图标" transform="translate(-844.000000, -40.000000)">
            <g id="biaoge" transform="translate(844.000000, 40.000000)">
                <mask id="mask-2" fill="white">
                    <use xlink:href="#path-1"></use>
                </mask>
                <g id="Clip-2"></g>
                <path d="M31.3333333,11.3711778 L31.3333333,4.65370376 C31.3333333,2.1814243 29.3291038,0.177019894 26.8566495,0.177019894 L4.47668387,0.177019894 C2.0044044,0.177019894 0,2.1814243 0,4.65370376 L0,27.0336694 C0,29.5061237 2.0044044,31.5103532 4.47668387,31.5103532 L26.8566495,31.5103532 C29.3291038,31.5103532 31.3333333,29.5061237 31.3333333,27.0336694 L31.3333333,11.3711778 Z M2.89328833,3.07030823 C3.31302936,2.64846871 3.88394886,2.41195179 4.47891351,2.41330127 L26.86277,2.41330127 C27.4565543,2.41400656 28.0257688,2.65069835 28.444854,3.07148862 C28.8639393,3.49210402 29.0985763,4.06214915 29.0972269,4.65593341 L29.0972269,9.13484692 L2.23628137,9.13484692 L2.23628137,4.65593341 C2.23493189,4.06096875 2.47144882,3.49004925 2.89328833,3.07030823 Z M12.3058749,19.2044783 L19.0274585,19.2044783 L19.0274585,11.3711778 L12.3058749,11.3711778 L12.3058749,19.2044783 Z M12.3058749,29.2740661 L19.0274585,29.2740661 L19.0274585,21.4407655 L12.3058749,21.4407655 L12.3058749,29.2740661 Z M2.23628717,19.2044783 L10.0695877,19.2044783 L10.0695877,11.3711778 L2.23628717,11.3711778 L2.23628717,19.2044783 Z M2.89328833,28.6209996 C2.47162369,28.2029636 2.23493189,27.6333993 2.23628138,27.0397899 L2.23628138,21.4407655 L10.0695877,21.4407655 L10.0695877,29.2740923 L4.47891351,29.2740923 C3.8842986,29.2769515 3.31337911,29.0417898 2.89328833,28.6208247 L2.89328833,28.6209996 Z M29.0970506,27.0397899 C29.0982266,27.6327435 28.8632398,28.2017394 28.4439797,28.6209996 C28.0245447,29.0402597 27.4557237,29.2752465 26.8625952,29.2742441 L21.2637456,29.2742441 L21.2637456,21.4407655 L29.0970506,21.4407655 L29.0970506,27.0397899 Z M21.2637456,19.2044783 L29.0970462,19.2044783 L29.0970462,11.3711778 L21.2637456,11.3711778 L21.2637456,19.2044783 Z" id="Fill-1" fill="#424242" mask="url(#mask-2)"></path>
                <rect id="矩形" fill="#6462F3" mask="url(#mask-2)" x="12" y="11.3333333" width="7.33333333" height="8"></rect>
            </g>
        </g>
    </g>
</svg>