<?xml version="1.0" encoding="UTF-8"?>
<svg width="32px" height="32px" viewBox="0 0 32 32" version="1.1" xmlns="http://www.w3.org/2000/svg" xmlns:xlink="http://www.w3.org/1999/xlink">
    <title>global-data</title>
    <defs>
        <polygon id="path-1" points="0.0137493606 0.0184942792 6.2488798 0.0184942792 6.2488798 6.25839817 0.0137493606 6.25839817"></polygon>
    </defs>
    <g id="页面-1" stroke="none" stroke-width="1" fill="none" fill-rule="evenodd">
        <g id="图标" transform="translate(-447.000000, -41.000000)">
            <g id="global-data" transform="translate(447.000000, 41.000000)">
                <path d="M8.66833645,28.5217391 L3.47826087,12.8035717 L16.1776204,2.7826087 L29.2173913,12.3118667 L24.5788954,28.2164416 L8.66833645,28.5217391 Z M5.06770518,13.312332 L9.62514701,27.0804449 L23.5571069,26.8091336 L27.6117124,12.8713374 L16.193855,4.52903495 L5.06770518,13.312332 Z" id="Fill-1" fill="#424242"></path>
                <path d="M11.9852783,22.9565217 L9.04347826,14.4587754 L16.2475625,9.04347826 L23.6521739,14.1921212 L21.0278957,22.7899798 L11.9852783,22.9565217 Z M10.1467043,14.7920219 L12.6537839,22.0234151 L20.3258873,21.8902711 L22.5656789,14.5754035 L16.2810245,10.1933253 L10.1467043,14.7920219 Z" id="Fill-2" fill="#424242"></path>
                <polygon id="Fill-3" fill="#D7D7FF" points="19.2329843 20.7717629 13.6483181 20.8695652 11.826087 15.7663711 16.2802102 12.5217391 20.8695652 15.6032479"></polygon>
                <polygon id="Fill-4" fill="#424242" points="15.3043478 17.3913043 16.6956522 17.3913043 16.6956522 4.17391304 15.3043478 4.17391304"></polygon>
                <polygon id="Fill-5" fill="#424242" points="16 16.0692451 28.0745498 11.826087 28.5217391 13.1481055 16.4471893 17.3913043"></polygon>
                <polygon id="Fill-6" fill="#424242" points="15.3043478 17.5425366 16.4593334 16.6956522 24.3478261 26.9792025 23.1927985 27.826087"></polygon>
                <polygon id="Fill-7" fill="#424242" points="7.65217391 27.6758163 15.5256614 16.6956522 16.6956522 17.541575 8.82229044 28.5217391"></polygon>
                <polygon id="Fill-8" fill="#424242" points="3.47826087 13.9660326 3.86098391 12.5217391 16 16.642663 15.6171608 18.0869565"></polygon>
                <path d="M13.9130435,3.13048155 C13.9130435,4.00034257 14.3771104,4.80410978 15.1304657,5.23895716 C15.8838211,5.6739708 16.8118311,5.6739708 17.5651864,5.23895716 C18.3185418,4.80410978 18.7826087,4.00034257 18.7826087,3.13048155 C18.7826087,1.78570118 17.6925757,0.695652174 16.3477642,0.695652174 C15.0030764,0.695652174 13.9130435,1.78570118 13.9130435,3.13048155 Z" id="Fill-9" fill="#6462F3"></path>
                <path d="M16.3477645,6.26086957 C14.6311215,6.26086957 13.2173913,4.85642801 13.2173913,3.13049675 C13.2173913,1.40444155 14.6142747,0 16.3477645,0 C18.0813775,0 19.4782609,1.40444155 19.4782609,3.13049675 C19.4614141,4.85642801 18.0645307,6.26086957 16.3477645,6.26086957 Z M16.3477645,1.42137946 C15.4052503,1.42137946 14.6311215,2.18292422 14.6311215,3.13049675 C14.6311215,4.0781106 15.4052503,4.83949011 16.3477645,4.83949011 C17.2902375,4.83949011 18.0645307,4.0781106 18.0645307,3.13049675 C18.0645307,2.19969687 17.2902375,1.42137946 16.3477645,1.42137946 Z" id="Fill-10" fill="#424242"></path>
                <path d="M21.5652174,28.1738299 C21.5652174,29.5185057 22.6554568,30.6086957 24.0001032,30.6086957 C25.3447496,30.6086957 26.4347826,29.5185057 26.4347826,28.1738299 C26.4347826,26.8291542 25.3447496,25.7391304 24.0001032,25.7391304 C22.6554568,25.7391304 21.5652174,26.8291542 21.5652174,28.1738299 Z" id="Fill-11" fill="#6462F3"></path>
                <path d="M24.6957549,30.6086957 C22.9789476,30.6086957 21.5652174,29.2042448 21.5652174,27.4781782 C21.5652174,25.7522769 22.9622652,24.3478261 24.6957549,24.3478261 C26.4292035,24.3478261 27.826087,25.7522769 27.826087,27.4781782 C27.8094046,29.2042448 26.4123568,30.6086957 24.6957549,30.6086957 Z M24.6957549,25.7692149 C23.7532407,25.7692149 22.9789476,26.5305995 22.9789476,27.4781782 C22.9789476,28.4257983 23.7532407,29.1873068 24.6957549,29.1873068 C25.638228,29.1873068 26.4123568,28.4257983 26.4123568,27.4781782 C26.4123568,26.5305995 25.638228,25.7692149 24.6957549,25.7692149 Z" id="Fill-12" fill="#424242"></path>
                <path d="M26.4347826,12.1738299 C26.4347826,13.5186719 27.5248569,14.6086957 28.8695033,14.6086957 C30.2143149,14.6086957 31.3043478,13.5186719 31.3043478,12.1738299 C31.3043478,10.8291542 30.2143149,9.73913043 28.8695033,9.73913043 C27.5248569,9.73913043 26.4347826,10.8291542 26.4347826,12.1738299 Z" id="Fill-13" fill="#EFEFFD"></path>
                <path d="M28.8695036,15.3043478 C27.1529017,15.3043478 25.7391304,13.899897 25.7391304,12.1738304 C25.7391304,10.4479291 27.1360138,9.04347826 28.8695036,9.04347826 C30.5862698,9.04347826 32,10.4479291 32,12.1738304 C32,13.899897 30.6031166,15.3043478 28.8695036,15.3043478 Z M28.8695036,10.4648671 C27.9269894,10.4648671 27.1529017,11.2262516 27.1529017,12.1738304 C27.1529017,13.1214505 27.9269894,13.882959 28.8695036,13.882959 C29.8119767,13.882959 30.5862698,13.1214505 30.5862698,12.1738304 C30.5862698,11.2262516 29.8288645,10.4648671 28.8695036,10.4648671 Z" id="Fill-14" fill="#424242"></path>
                <path d="M0.695652174,12.8695029 C0.695652174,14.2142918 1.78568514,15.3043478 3.13053798,15.3043478 C4.47518442,15.3043478 5.56521739,14.2142918 5.56521739,12.8695029 C5.56521739,11.5248386 4.47518442,10.4347826 3.13053798,10.4347826 C1.78568514,10.4347826 0.695652174,11.5248386 0.695652174,12.8695029 Z" id="Fill-15" fill="#EFEFFD"></path>
                <path d="M3.13053751,16 C1.39688341,16 0,14.5955584 0,12.8695032 C0,11.143572 1.39688341,9.73913043 3.13053751,9.73913043 C4.86398616,9.73913043 6.26086957,11.143572 6.26086957,12.8695032 C6.24402281,14.5955584 4.8471394,16 3.13053751,16 Z M3.13053751,11.1605512 C2.18785898,11.1605512 1.41373016,11.9218894 1.41373016,12.8695032 C1.41373016,13.8170758 2.18785898,14.5786205 3.13053751,14.5786205 C4.07301058,14.5786205 4.8471394,13.8170758 4.8471394,12.8695032 C4.83029265,11.9218894 4.07301058,11.1605512 3.13053751,11.1605512 Z" id="Fill-16" fill="#424242"></path>
                <g id="编组" transform="translate(4.869565, 25.043478)">
                    <mask id="mask-2" fill="white">
                        <use xlink:href="#path-1"></use>
                    </mask>
                    <g id="Clip-18"></g>
                    <path d="M0.71770844,3.15650801 C0.71770844,4.01844851 1.17773913,4.81489703 1.9245422,5.24590847 C2.67134527,5.67679634 3.59144757,5.67679634 4.33825064,5.24590847 C5.08489003,4.81489703 5.54492072,4.01844851 5.54492072,3.15650801 C5.54492072,1.82409611 4.46436829,0.74397254 3.13137596,0.74397254 C1.79842455,0.74397254 0.71770844,1.82409611 0.71770844,3.15650801 Z" id="Fill-17" fill="#6462F3" mask="url(#mask-2)"></path>
                    <path d="M3.13137596,6.26086957 C1.42166752,6.26086957 0.0137493606,4.86057666 0.0137493606,3.13962014 C0.0137493606,1.41878719 1.40505371,0.0184942792 3.13137596,0.0184942792 C4.85773913,0.0184942792 6.2488798,1.41878719 6.2488798,3.13962014 C6.2488798,4.87746453 4.84096164,6.26086957 3.13137596,6.26086957 Z M3.13137596,1.43567506 C2.19277749,1.43567506 1.42166752,2.19480549 1.42166752,3.13962014 C1.42166752,4.08439359 2.19277749,4.84368879 3.13137596,4.84368879 C4.07001535,4.84368879 4.84096164,4.08439359 4.84096164,3.13962014 C4.84096164,2.21169336 4.07001535,1.43567506 3.13137596,1.43567506 Z" id="Fill-19" fill="#424242" mask="url(#mask-2)"></path>
                </g>
            </g>
        </g>
    </g>
</svg>